<svg id="a4a2c0a6-51c9-4646-b745-d2ddac64e1e6" data-name="Layer 1" xmlns="http://www.w3.org/2000/svg" width="5.64in" height="3.34in" viewBox="0 0 406.19 240.22"><rect x="0.75" y="74.87" width="404.69" height="119.46" rx="3.95" fill="#8fd0b8"/><rect x="0.75" y="74.87" width="404.69" height="119.46" rx="3.95" fill="none" stroke="#393d4f" stroke-miterlimit="8" stroke-width="1.5"/><polygon points="260.68 187.32 260.68 200.22 254.93 200.22 250.9 239.47 242.84 239.47 238.81 200.22 233.06 200.22 233.06 187.32 260.68 187.32" fill="#a1dbf7" fill-rule="evenodd"/><polygon points="260.68 187.32 260.68 200.22 254.93 200.22 250.9 239.47 242.84 239.47 238.81 200.22 233.06 200.22 233.06 187.32 260.68 187.32" fill="none" stroke="#393d4f" stroke-miterlimit="8" stroke-width="1.5"/><polygon points="217.1 187.32 217.1 200.22 211.27 200.22 207.18 239.47 199 239.47 194.92 200.22 189.09 200.22 189.09 187.32 217.1 187.32" fill="#a1dbf7" fill-rule="evenodd"/><polygon points="217.1 187.32 217.1 200.22 211.27 200.22 207.18 239.47 199 239.47 194.92 200.22 189.09 200.22 189.09 187.32 217.1 187.32" fill="none" stroke="#393d4f" stroke-miterlimit="8" stroke-width="1.5"/><polygon points="173.13 187.32 173.13 200.22 167.38 200.22 163.35 239.47 155.28 239.47 151.25 200.22 145.5 200.22 145.5 187.32 173.13 187.32" fill="#a1dbf7" fill-rule="evenodd"/><polygon points="173.13 187.32 173.13 200.22 167.38 200.22 163.35 239.47 155.28 239.47 151.25 200.22 145.5 200.22 145.5 187.32 173.13 187.32" fill="none" stroke="#393d4f" stroke-miterlimit="8" stroke-width="1.5"/><polygon points="260.68 81.87 260.68 68.98 254.93 68.98 250.9 29.73 242.84 29.73 238.81 68.98 233.06 68.98 233.06 81.87 260.68 81.87" fill="#a1dbf7" fill-rule="evenodd"/><polygon points="260.68 81.87 260.68 68.98 254.93 68.98 250.9 29.73 242.84 29.73 238.81 68.98 233.06 68.98 233.06 81.87 260.68 81.87" fill="none" stroke="#393d4f" stroke-miterlimit="8" stroke-width="1.5"/><polygon points="217.1 81.87 217.1 68.98 211.27 68.98 207.18 29.73 199 29.73 194.92 68.98 189.09 68.98 189.09 81.87 217.1 81.87" fill="#a1dbf7" fill-rule="evenodd"/><polygon points="217.1 81.87 217.1 68.98 211.27 68.98 207.18 29.73 199 29.73 194.92 68.98 189.09 68.98 189.09 81.87 217.1 81.87" fill="none" stroke="#393d4f" stroke-miterlimit="8" stroke-width="1.5"/><polygon points="173.13 81.87 173.13 68.98 167.38 68.98 163.35 29.73 155.28 29.73 151.25 68.98 145.5 68.98 145.5 81.87 173.13 81.87" fill="#a1dbf7" fill-rule="evenodd"/><polygon points="173.13 81.87 173.13 68.98 167.38 68.98 163.35 29.73 155.28 29.73 151.25 68.98 145.5 68.98 145.5 81.87 173.13 81.87" fill="none" stroke="#393d4f" stroke-miterlimit="8" stroke-width="1.5"/><polygon points="392.21 187.32 392.21 200.22 386.37 200.22 382.29 239.47 374.11 239.47 370.02 200.22 364.19 200.22 364.19 187.32 392.21 187.32" fill="#a1dbf7" fill-rule="evenodd"/><polygon points="392.21 187.32 392.21 200.22 386.37 200.22 382.29 239.47 374.11 239.47 370.02 200.22 364.19 200.22 364.19 187.32 392.21 187.32" fill="none" stroke="#393d4f" stroke-miterlimit="8" stroke-width="1.5"/><polygon points="348.24 187.32 348.24 200.22 342.4 200.22 338.31 239.47 330.14 239.47 326.05 200.22 320.22 200.22 320.22 187.32 348.24 187.32" fill="#a1dbf7" fill-rule="evenodd"/><polygon points="348.24 187.32 348.24 200.22 342.4 200.22 338.31 239.47 330.14 239.47 326.05 200.22 320.22 200.22 320.22 187.32 348.24 187.32" fill="none" stroke="#393d4f" stroke-miterlimit="8" stroke-width="1.5"/><polygon points="304.65 187.32 304.65 200.22 298.82 200.22 294.73 239.47 286.56 239.47 282.47 200.22 276.64 200.22 276.64 187.32 304.65 187.32" fill="#a1dbf7" fill-rule="evenodd"/><polygon points="304.65 187.32 304.65 200.22 298.82 200.22 294.73 239.47 286.56 239.47 282.47 200.22 276.64 200.22 276.64 187.32 304.65 187.32" fill="none" stroke="#393d4f" stroke-miterlimit="8" stroke-width="1.5"/><polygon points="130.33 187.32 130.33 200.22 124.58 200.22 120.55 239.47 112.48 239.47 108.45 200.22 102.7 200.22 102.7 187.32 130.33 187.32" fill="#a1dbf7" fill-rule="evenodd"/><polygon points="130.33 187.32 130.33 200.22 124.58 200.22 120.55 239.47 112.48 239.47 108.45 200.22 102.7 200.22 102.7 187.32 130.33 187.32" fill="none" stroke="#393d4f" stroke-miterlimit="8" stroke-width="1.5"/><polygon points="86.75 187.32 86.75 200.22 80.91 200.22 76.83 239.47 68.65 239.47 64.56 200.22 58.73 200.22 58.73 187.32 86.75 187.32" fill="#a1dbf7" fill-rule="evenodd"/><polygon points="86.75 187.32 86.75 200.22 80.91 200.22 76.83 239.47 68.65 239.47 64.56 200.22 58.73 200.22 58.73 187.32 86.75 187.32" fill="none" stroke="#393d4f" stroke-miterlimit="8" stroke-width="1.5"/><polygon points="43.16 187.32 43.16 200.22 37.33 200.22 33.24 239.47 25.07 239.47 20.98 200.22 15.15 200.22 15.15 187.32 43.16 187.32" fill="#a1dbf7" fill-rule="evenodd"/><polygon points="43.16 187.32 43.16 200.22 37.33 200.22 33.24 239.47 25.07 239.47 20.98 200.22 15.15 200.22 15.15 187.32 43.16 187.32" fill="none" stroke="#393d4f" stroke-miterlimit="8" stroke-width="1.5"/><polygon points="392.21 81.48 392.21 68.59 386.37 68.59 382.29 29.34 374.11 29.34 370.02 68.59 364.19 68.59 364.19 81.48 392.21 81.48" fill="#a1dbf7" fill-rule="evenodd"/><polygon points="392.21 81.48 392.21 68.59 386.37 68.59 382.29 29.34 374.11 29.34 370.02 68.59 364.19 68.59 364.19 81.48 392.21 81.48" fill="none" stroke="#393d4f" stroke-miterlimit="8" stroke-width="1.5"/><polygon points="348.24 81.48 348.24 68.59 342.4 68.59 338.31 29.34 330.14 29.34 326.05 68.59 320.22 68.59 320.22 81.48 348.24 81.48" fill="#a1dbf7" fill-rule="evenodd"/><polygon points="348.24 81.48 348.24 68.59 342.4 68.59 338.31 29.34 330.14 29.34 326.05 68.59 320.22 68.59 320.22 81.48 348.24 81.48" fill="none" stroke="#393d4f" stroke-miterlimit="8" stroke-width="1.5"/><polygon points="304.65 81.48 304.65 68.59 298.82 68.59 294.73 29.34 286.56 29.34 282.47 68.59 276.64 68.59 276.64 81.48 304.65 81.48" fill="#a1dbf7" fill-rule="evenodd"/><polygon points="304.65 81.48 304.65 68.59 298.82 68.59 294.73 29.34 286.56 29.34 282.47 68.59 276.64 68.59 276.64 81.48 304.65 81.48" fill="none" stroke="#393d4f" stroke-miterlimit="8" stroke-width="1.5"/><polygon points="130.33 81.48 130.33 68.59 124.58 68.59 120.55 29.34 112.48 29.34 108.45 68.59 102.7 68.59 102.7 81.48 130.33 81.48" fill="#a1dbf7" fill-rule="evenodd"/><polygon points="130.33 81.48 130.33 68.59 124.58 68.59 120.55 29.34 112.48 29.34 108.45 68.59 102.7 68.59 102.7 81.48 130.33 81.48" fill="none" stroke="#393d4f" stroke-miterlimit="8" stroke-width="1.5"/><polygon points="86.75 81.48 86.75 68.59 80.91 68.59 76.83 29.34 68.65 29.34 64.56 68.59 58.73 68.59 58.73 81.48 86.75 81.48" fill="#a1dbf7" fill-rule="evenodd"/><polygon points="86.75 81.48 86.75 68.59 80.91 68.59 76.83 29.34 68.65 29.34 64.56 68.59 58.73 68.59 58.73 81.48 86.75 81.48" fill="none" stroke="#393d4f" stroke-miterlimit="8" stroke-width="1.5"/><polygon points="43.16 81.48 43.16 68.59 37.33 68.59 33.24 29.34 25.07 29.34 20.98 68.59 15.15 68.59 15.15 81.48 43.16 81.48" fill="#a1dbf7" fill-rule="evenodd"/><polygon points="43.16 81.48 43.16 68.59 37.33 68.59 33.24 29.34 25.07 29.34 20.98 68.59 15.15 68.59 15.15 81.48 43.16 81.48" fill="none" stroke="#393d4f" stroke-miterlimit="8" stroke-width="1.5"/><path d="M100.6,112.77a2.66,2.66,0,0,1-.77-2v-3.17a2.62,2.62,0,0,1,.77-2,3.36,3.36,0,0,1,4.18,0,2.59,2.59,0,0,1,.78,2v3.17a2.63,2.63,0,0,1-.78,2,3.32,3.32,0,0,1-4.18,0Zm3-1a1.21,1.21,0,0,0,.31-.88v-3.3a1.21,1.21,0,0,0-.31-.88,1.15,1.15,0,0,0-.86-.33,1.13,1.13,0,0,0-.85.33,1.22,1.22,0,0,0-.32.88v3.3a1.22,1.22,0,0,0,.32.88,1.09,1.09,0,0,0,.85.33A1.12,1.12,0,0,0,103.55,111.72Z" transform="translate(0 -1.44)" fill="#393d4f"/><path d="M125,105h1.45a.14.14,0,0,1,.15.15v8.11a.18.18,0,0,1,0,.1.15.15,0,0,1-.11,0h-1.4a.14.14,0,0,1-.14-.14v-6.58a.05.05,0,0,0,0,0,0,0,0,0,0,0,0l-1.18.33h0c-.07,0-.11-.05-.11-.13l0-1a.17.17,0,0,1,.11-.16l1.26-.59A.4.4,0,0,1,125,105Z" transform="translate(0 -1.44)" fill="#393d4f"/><path d="M147.53,105H149a.14.14,0,0,1,.1,0,.12.12,0,0,1,0,.1v8.11a.13.13,0,0,1,0,.1.14.14,0,0,1-.1,0h-1.4a.16.16,0,0,1-.11,0,.18.18,0,0,1,0-.1v-6.57a.08.08,0,0,0,0,0,.06.06,0,0,0,0,0l-1.19.33h0c-.07,0-.1,0-.1-.13l0-1a.18.18,0,0,1,.11-.17l1.26-.59A.4.4,0,0,1,147.53,105Z" transform="translate(0 -1.44)" fill="#393d4f"/><path d="M170,105h1.45a.18.18,0,0,1,.1,0,.15.15,0,0,1,0,.11v8.11a.14.14,0,0,1-.14.14h-1.41a.14.14,0,0,1-.14-.14v-6.58a.05.05,0,0,0,0,0s0,0,0,0l-1.19.33h0c-.07,0-.11-.05-.11-.13l0-1a.16.16,0,0,1,.11-.16l1.25-.59A.41.41,0,0,1,170,105Z" transform="translate(0 -1.44)" fill="#393d4f"/><path d="M190.55,112.77a2.66,2.66,0,0,1-.77-2v-3.17a2.62,2.62,0,0,1,.77-2,3.36,3.36,0,0,1,4.18,0,2.58,2.58,0,0,1,.77,2v3.17a2.62,2.62,0,0,1-.77,2,3.32,3.32,0,0,1-4.18,0Zm2.94-1a1.18,1.18,0,0,0,.32-.88v-3.3a1.18,1.18,0,0,0-.32-.88,1.26,1.26,0,0,0-1.7,0,1.22,1.22,0,0,0-.32.88v3.3a1.22,1.22,0,0,0,.32.88,1.26,1.26,0,0,0,1.7,0Z" transform="translate(0 -1.44)" fill="#393d4f"/><path d="M215,105h1.45a.18.18,0,0,1,.1,0,.15.15,0,0,1,0,.11v8.11a.14.14,0,0,1-.14.14H215a.15.15,0,0,1-.11,0,.18.18,0,0,1,0-.1v-6.58a.08.08,0,0,0,0,0s0,0-.05,0l-1.19.33h0c-.07,0-.1-.05-.1-.13l0-1a.17.17,0,0,1,.11-.16l1.26-.59A.4.4,0,0,1,215,105Z" transform="translate(0 -1.44)" fill="#393d4f"/><path d="M235.52,112.77a2.66,2.66,0,0,1-.77-2v-3.17a2.62,2.62,0,0,1,.77-2,3.36,3.36,0,0,1,4.18,0,2.59,2.59,0,0,1,.78,2v3.17a2.63,2.63,0,0,1-.78,2,3.32,3.32,0,0,1-4.18,0Zm2.95-1a1.22,1.22,0,0,0,.32-.88v-3.3a1.22,1.22,0,0,0-.32-.88,1.27,1.27,0,0,0-1.71,0,1.21,1.21,0,0,0-.31.88v3.3a1.21,1.21,0,0,0,.31.88,1.27,1.27,0,0,0,1.71,0Z" transform="translate(0 -1.44)" fill="#393d4f"/><path d="M260,105h1.45a.14.14,0,0,1,.15.15v8.11a.18.18,0,0,1,0,.1.15.15,0,0,1-.11,0H260a.14.14,0,0,1-.14-.14v-6.58a.05.05,0,0,0,0,0,0,0,0,0,0,0,0l-1.18.33h-.05c-.07,0-.11-.05-.11-.13l0-1a.17.17,0,0,1,.11-.16l1.26-.59A.4.4,0,0,1,260,105Z" transform="translate(0 -1.44)" fill="#393d4f"/><path d="M33.61,149.13a.13.13,0,0,1,0-.1v-1.16a.15.15,0,0,1,0-.11.18.18,0,0,1,.1,0h4.74a.18.18,0,0,1,.1,0,.16.16,0,0,1,.05.11V149a.14.14,0,0,1-.05.1.13.13,0,0,1-.1,0H33.71A.13.13,0,0,1,33.61,149.13Z" transform="translate(0 -1.44)" fill="#9365ab"/><path d="M40.25,151.24a2.66,2.66,0,0,1-.77-2v-3.16a2.59,2.59,0,0,1,.77-2,3.32,3.32,0,0,1,4.18,0,2.56,2.56,0,0,1,.78,2v3.16a2.63,2.63,0,0,1-.78,2,3.32,3.32,0,0,1-4.18,0Zm3-1a1.22,1.22,0,0,0,.32-.88V146a1.22,1.22,0,0,0-.32-.88,1.27,1.27,0,0,0-1.71,0,1.21,1.21,0,0,0-.31.88v3.3a1.21,1.21,0,0,0,.31.88,1.27,1.27,0,0,0,1.71,0Z" transform="translate(0 -1.44)" fill="#9365ab"/><path d="M19.1,166a2.51,2.51,0,0,1-1.11-.87,2.31,2.31,0,0,1-.39-1.33v-.26a.14.14,0,0,1,.15-.15h1.36a.14.14,0,0,1,.15.15v.17a1,1,0,0,0,.44.82,2,2,0,0,0,1.2.32,1.48,1.48,0,0,0,1-.26.85.85,0,0,0,.31-.67.67.67,0,0,0-.19-.49,1.74,1.74,0,0,0-.52-.34q-.33-.15-1.05-.42a9.7,9.7,0,0,1-1.36-.56,2.67,2.67,0,0,1-.94-.79,2,2,0,0,1-.38-1.23,2.22,2.22,0,0,1,.37-1.26,2.47,2.47,0,0,1,1-.83,3.78,3.78,0,0,1,1.52-.29,3.86,3.86,0,0,1,1.63.33,2.63,2.63,0,0,1,1.11.91,2.26,2.26,0,0,1,.4,1.34v.18a.15.15,0,0,1,0,.11.13.13,0,0,1-.1,0H22.27a.13.13,0,0,1-.1,0,.15.15,0,0,1,0-.11v-.09a1.09,1.09,0,0,0-.42-.86,1.7,1.7,0,0,0-1.13-.35,1.42,1.42,0,0,0-.88.24.76.76,0,0,0-.32.66.73.73,0,0,0,.18.5,1.65,1.65,0,0,0,.56.37l1.13.44a12.74,12.74,0,0,1,1.34.55,2.75,2.75,0,0,1,.87.71,1.89,1.89,0,0,1,.39,1.23,2.14,2.14,0,0,1-.82,1.78,3.52,3.52,0,0,1-2.25.66A4.16,4.16,0,0,1,19.1,166Z" transform="translate(0 -1.44)" fill="#393d4f"/><path d="M28.43,161.4a.18.18,0,0,1-.1,0H27.18a.05.05,0,0,0-.06.06V164a.89.89,0,0,0,.16.59.64.64,0,0,0,.52.19h.4a.14.14,0,0,1,.1.05.12.12,0,0,1,0,.1v1.14a.14.14,0,0,1-.14.15l-.72,0A2.7,2.7,0,0,1,26,166a1.43,1.43,0,0,1-.51-1.25V161.5s0-.06-.05-.06h-.69a.18.18,0,0,1-.1,0,.15.15,0,0,1,0-.11v-1.06a.12.12,0,0,1,0-.1.14.14,0,0,1,.1,0h.69s.05,0,.05-.06v-1.43a.14.14,0,0,1,.05-.1.13.13,0,0,1,.1,0H27a.15.15,0,0,1,.11,0,.18.18,0,0,1,0,.1V160a.05.05,0,0,0,.06.06h1.15a.14.14,0,0,1,.1,0,.12.12,0,0,1,0,.1v1.06A.15.15,0,0,1,28.43,161.4Z" transform="translate(0 -1.44)" fill="#393d4f"/><path d="M33.35,160.26a2.29,2.29,0,0,1,.95.74,1.71,1.71,0,0,1,.34,1v4.07a.14.14,0,0,1-.14.14H33.09a.14.14,0,0,1-.14-.14v-.4a.08.08,0,0,0,0-.05s0,0,0,0a1.92,1.92,0,0,1-1.62.66,2.31,2.31,0,0,1-1.51-.46,1.59,1.59,0,0,1-.58-1.34,1.73,1.73,0,0,1,.65-1.44,2.92,2.92,0,0,1,1.84-.51h1.23a.05.05,0,0,0,.06-.06v-.26a.8.8,0,0,0-.24-.62,1,1,0,0,0-.72-.22,1.29,1.29,0,0,0-.62.13.64.64,0,0,0-.32.37q0,.13-.15.12l-1.45-.19c-.1,0-.14-.05-.14-.11a1.64,1.64,0,0,1,.41-.91,2.37,2.37,0,0,1,.93-.64A3.58,3.58,0,0,1,32,160,3.46,3.46,0,0,1,33.35,160.26Zm-.76,4.55a.85.85,0,0,0,.36-.71v-.43a.05.05,0,0,0-.06-.06H32a1.45,1.45,0,0,0-.84.21.65.65,0,0,0-.31.57.62.62,0,0,0,.23.51.91.91,0,0,0,.61.19A1.36,1.36,0,0,0,32.59,164.81Z" transform="translate(0 -1.44)" fill="#393d4f"/><path d="M39.58,160.17c.07,0,.09.09.08.18l-.25,1.36c0,.1-.07.13-.17.09a1.33,1.33,0,0,0-.42-.06l-.27,0a1.22,1.22,0,0,0-.73.32,1,1,0,0,0-.3.75v3.28a.14.14,0,0,1-.14.14H36a.14.14,0,0,1-.14-.14v-5.88a.12.12,0,0,1,0-.1.14.14,0,0,1,.1,0h1.41a.14.14,0,0,1,.1,0,.12.12,0,0,1,0,.1v.45a.06.06,0,0,0,0,0s0,0,0,0A1.53,1.53,0,0,1,38.9,160,1.12,1.12,0,0,1,39.58,160.17Z" transform="translate(0 -1.44)" fill="#393d4f"/><path d="M43.92,161.4a.18.18,0,0,1-.1,0H42.67a.05.05,0,0,0-.06.06V164a.89.89,0,0,0,.16.59.64.64,0,0,0,.52.19h.4a.14.14,0,0,1,.1.05.12.12,0,0,1,0,.1v1.14a.13.13,0,0,1-.14.15l-.72,0a2.72,2.72,0,0,1-1.49-.33,1.43,1.43,0,0,1-.5-1.25V161.5a.05.05,0,0,0-.06-.06h-.69a.18.18,0,0,1-.1,0,.15.15,0,0,1,0-.11v-1.06a.12.12,0,0,1,0-.1.14.14,0,0,1,.1,0h.69A.05.05,0,0,0,41,160v-1.43a.14.14,0,0,1,.14-.14h1.35a.14.14,0,0,1,.14.14V160a.05.05,0,0,0,.06.06h1.15a.14.14,0,0,1,.1,0,.12.12,0,0,1,0,.1v1.06A.16.16,0,0,1,43.92,161.4Z" transform="translate(0 -1.44)" fill="#393d4f"/><path d="M52.47,161.94a2,2,0,0,1,1.14,2,2.07,2.07,0,0,1-.79,1.76,3.42,3.42,0,0,1-2.08.59h-3.1a.15.15,0,0,1-.11,0,.18.18,0,0,1,0-.1V158a.14.14,0,0,1,.15-.15h3c1.89,0,2.84.77,2.84,2.31a1.77,1.77,0,0,1-1,1.71S52.42,161.92,52.47,161.94Zm-3.29-2.58v1.88s0,0,.06,0h1.41a1.27,1.27,0,0,0,.87-.26.88.88,0,0,0,.32-.72.93.93,0,0,0-.32-.74,1.28,1.28,0,0,0-.87-.27H49.24A.05.05,0,0,0,49.18,159.36Zm2.43,5.14a1,1,0,0,0,.31-.77,1,1,0,0,0-.31-.77,1.26,1.26,0,0,0-.88-.29H49.24s-.06,0-.06.07v2a.05.05,0,0,0,.06.06h1.5A1.25,1.25,0,0,0,51.61,164.5Z" transform="translate(0 -1.44)" fill="#393d4f"/><path d="M55.06,159.12a.93.93,0,0,1-.27-.68.89.89,0,0,1,1-.95.94.94,0,0,1,.68.26,1,1,0,0,1,0,1.37,1,1,0,0,1-1.35,0Zm-.15,7.09a.18.18,0,0,1,0-.1v-5.9a.18.18,0,0,1,0-.1.15.15,0,0,1,.11,0h1.4a.14.14,0,0,1,.14.14v5.9a.14.14,0,0,1-.14.14H55A.15.15,0,0,1,54.91,166.21Z" transform="translate(0 -1.44)" fill="#393d4f"/><path d="M61.38,161.4a.18.18,0,0,1-.1,0H60.13a.05.05,0,0,0-.06.06V164a.89.89,0,0,0,.16.59.64.64,0,0,0,.52.19h.4a.14.14,0,0,1,.1.05.12.12,0,0,1,0,.1v1.14a.14.14,0,0,1-.14.15l-.72,0a2.7,2.7,0,0,1-1.49-.33,1.4,1.4,0,0,1-.5-1.25V161.5a.05.05,0,0,0-.06-.06h-.69a.18.18,0,0,1-.1,0,.15.15,0,0,1,0-.11v-1.06a.12.12,0,0,1,0-.1.14.14,0,0,1,.1,0h.69a.05.05,0,0,0,.06-.06v-1.43a.14.14,0,0,1,.14-.14h1.34a.15.15,0,0,1,.11,0,.18.18,0,0,1,0,.1V160a.05.05,0,0,0,.06.06h1.15a.14.14,0,0,1,.1,0,.12.12,0,0,1,0,.1v1.06A.15.15,0,0,1,61.38,161.4Z" transform="translate(0 -1.44)" fill="#393d4f"/><path d="M310.13,148.35a.12.12,0,0,1,0-.1v-1.16a.12.12,0,0,1,0-.1.14.14,0,0,1,.1-.05H315a.14.14,0,0,1,.1.05.12.12,0,0,1,0,.1v1.16a.12.12,0,0,1,0,.1.14.14,0,0,1-.1.05h-4.74A.14.14,0,0,1,310.13,148.35Z" transform="translate(0 -1.44)" fill="#9365ab"/><path d="M316.77,150.46a2.65,2.65,0,0,1-.77-2v-3.17a2.61,2.61,0,0,1,.77-2,3.36,3.36,0,0,1,4.18,0,2.58,2.58,0,0,1,.78,2v3.17a2.62,2.62,0,0,1-.78,2,3.32,3.32,0,0,1-4.18,0Zm3-1a1.21,1.21,0,0,0,.31-.88v-3.3a1.21,1.21,0,0,0-.31-.88,1.15,1.15,0,0,0-.86-.33,1.13,1.13,0,0,0-.85.33,1.22,1.22,0,0,0-.32.88v3.3a1.22,1.22,0,0,0,.32.88,1.13,1.13,0,0,0,.85.33A1.15,1.15,0,0,0,319.72,149.42Z" transform="translate(0 -1.44)" fill="#9365ab"/><path d="M305.72,157.38a2.44,2.44,0,0,1,.94.92,2.87,2.87,0,0,1,.32,1.36,2.57,2.57,0,0,1-.34,1.34,2.36,2.36,0,0,1-1,.89,3.06,3.06,0,0,1-1.42.32h-1.7a.05.05,0,0,0-.06.06v3.06a.18.18,0,0,1,0,.1.15.15,0,0,1-.11,0H301a.12.12,0,0,1-.1,0,.14.14,0,0,1-.05-.1V157.2a.14.14,0,0,1,.05-.1.12.12,0,0,1,.1,0h3.38A2.94,2.94,0,0,1,305.72,157.38Zm-.75,3.15a1.1,1.1,0,0,0,.33-.83,1.13,1.13,0,0,0-.33-.85,1.21,1.21,0,0,0-.89-.33h-1.52a.05.05,0,0,0-.06.06v2.21a.05.05,0,0,0,.06.06h1.52A1.2,1.2,0,0,0,305,160.53Z" transform="translate(0 -1.44)" fill="#393d4f"/><path d="M311.77,159.48a2.26,2.26,0,0,1,1,.74,1.71,1.71,0,0,1,.34,1v4.07a.18.18,0,0,1,0,.1.15.15,0,0,1-.11,0h-1.4a.14.14,0,0,1-.14-.14v-.4a.05.05,0,0,0,0-.05.05.05,0,0,0-.05,0,1.89,1.89,0,0,1-1.62.66,2.34,2.34,0,0,1-1.51-.46,1.61,1.61,0,0,1-.57-1.34,1.71,1.71,0,0,1,.65-1.44,2.9,2.9,0,0,1,1.84-.51h1.23a.05.05,0,0,0,.06-.06v-.26a.81.81,0,0,0-.24-.62,1,1,0,0,0-.72-.22,1.27,1.27,0,0,0-.62.13.61.61,0,0,0-.32.37.13.13,0,0,1-.15.12l-1.46-.19c-.09,0-.14-.05-.13-.11a1.63,1.63,0,0,1,.4-.91,2.36,2.36,0,0,1,.94-.63,3.75,3.75,0,0,1,2.69,0ZM311,164a.85.85,0,0,0,.36-.71v-.43a.05.05,0,0,0-.06-.06h-.87a1.45,1.45,0,0,0-.84.21.63.63,0,0,0-.31.57.62.62,0,0,0,.23.51.89.89,0,0,0,.61.19A1.38,1.38,0,0,0,311,164Z" transform="translate(0 -1.44)" fill="#393d4f"/><path d="M318,159.39c.07,0,.09.09.07.18l-.25,1.37c0,.09-.06.12-.17.08a1.31,1.31,0,0,0-.41-.06l-.27,0a1.19,1.19,0,0,0-.73.32,1,1,0,0,0-.3.75v3.28a.18.18,0,0,1,0,.1.15.15,0,0,1-.11,0h-1.4a.14.14,0,0,1-.14-.14v-5.88a.12.12,0,0,1,0-.1.14.14,0,0,1,.1,0h1.4a.16.16,0,0,1,.11,0,.15.15,0,0,1,0,.1v.45a.06.06,0,0,0,0,0s0,0,0,0a1.53,1.53,0,0,1,1.32-.72A1.22,1.22,0,0,1,318,159.39Z" transform="translate(0 -1.44)" fill="#393d4f"/><path d="M319.09,158.34a.93.93,0,0,1-.27-.68.89.89,0,0,1,.26-.68.91.91,0,0,1,.68-.27,1,1,0,0,1,.68,1.63,1,1,0,0,1-1.35,0Zm-.15,7.09a.13.13,0,0,1,0-.1v-5.89a.15.15,0,0,1,0-.11.18.18,0,0,1,.1,0h1.41a.18.18,0,0,1,.1,0,.15.15,0,0,1,0,.11v5.89a.14.14,0,0,1-.14.14H319A.13.13,0,0,1,318.94,165.43Z" transform="translate(0 -1.44)" fill="#393d4f"/><path d="M325.41,160.62a.13.13,0,0,1-.1,0h-1.15a.05.05,0,0,0-.06.06v2.54a.89.89,0,0,0,.16.59.64.64,0,0,0,.52.19h.4a.14.14,0,0,1,.1.05.12.12,0,0,1,0,.1v1.14a.14.14,0,0,1-.14.15l-.72,0a2.7,2.7,0,0,1-1.49-.33,1.42,1.42,0,0,1-.51-1.24v-3.22a.05.05,0,0,0-.06-.06h-.68a.14.14,0,0,1-.14-.14v-1.07a.12.12,0,0,1,0-.1.14.14,0,0,1,.1,0h.68a.05.05,0,0,0,.06-.06v-1.42a.16.16,0,0,1,.05-.11.15.15,0,0,1,.1,0H324a.15.15,0,0,1,.1,0,.16.16,0,0,1,.05.11v1.42a.05.05,0,0,0,.06.06h1.15a.14.14,0,0,1,.1,0,.12.12,0,0,1,0,.1v1.07A.13.13,0,0,1,325.41,160.62Z" transform="translate(0 -1.44)" fill="#393d4f"/><path d="M326.38,167.82a.17.17,0,0,1,0-.1v-1.11a.18.18,0,0,1,0-.1.15.15,0,0,1,.11,0,3.74,3.74,0,0,0,.79-.09.82.82,0,0,0,.47-.27,1.39,1.39,0,0,0,.27-.6.08.08,0,0,0,0-.07l-2-6s0,0,0-.06.05-.11.13-.11h1.5a.16.16,0,0,1,.17.12l1,3.89s0,0,0,0,0,0,0,0l1-3.89a.16.16,0,0,1,.17-.12h1.46a.13.13,0,0,1,.1,0,.14.14,0,0,1,0,.13l-2.08,6.24A5.22,5.22,0,0,1,329,167a1.8,1.8,0,0,1-.87.65,5.11,5.11,0,0,1-1.6.2h-.08A.05.05,0,0,1,326.38,167.82Z" transform="translate(0 -1.44)" fill="#393d4f"/><path d="M360.58,147.58a.15.15,0,0,1,0-.11v-1.16a.14.14,0,0,1,.14-.14h4.74a.14.14,0,0,1,.14.14v1.16a.15.15,0,0,1,0,.11.18.18,0,0,1-.1,0h-4.74A.18.18,0,0,1,360.58,147.58Z" transform="translate(0 -1.44)" fill="#9365ab"/><path d="M367.88,141.89h1.45a.15.15,0,0,1,.1,0,.16.16,0,0,1,.05.11v8.11a.14.14,0,0,1-.05.1.12.12,0,0,1-.1,0h-1.4a.12.12,0,0,1-.1,0,.14.14,0,0,1-.05-.1v-6.58a0,0,0,0,0,0,0s0,0-.05,0l-1.19.33h0c-.08,0-.11,0-.11-.13l0-1a.17.17,0,0,1,.11-.16l1.26-.59A.4.4,0,0,1,367.88,141.89Z" transform="translate(0 -1.44)" fill="#9365ab"/><path d="M345.77,164.48a2.44,2.44,0,0,1-1.11-.87,2.29,2.29,0,0,1-.39-1.33V162a.12.12,0,0,1,0-.1.14.14,0,0,1,.1,0h1.37a.18.18,0,0,1,.15.15v.18a1,1,0,0,0,.44.81,2,2,0,0,0,1.2.33,1.44,1.44,0,0,0,.95-.27.84.84,0,0,0,.31-.67.65.65,0,0,0-.19-.48,1.58,1.58,0,0,0-.52-.35q-.33-.15-1.05-.42a10.42,10.42,0,0,1-1.37-.56,2.62,2.62,0,0,1-.93-.79,2,2,0,0,1-.38-1.23,2.15,2.15,0,0,1,.37-1.26,2.34,2.34,0,0,1,1-.82,3.67,3.67,0,0,1,1.53-.29,3.93,3.93,0,0,1,1.62.32,2.67,2.67,0,0,1,1.12.91,2.31,2.31,0,0,1,.4,1.35V159a.14.14,0,0,1-.14.14h-1.38a.12.12,0,0,1-.1,0,.14.14,0,0,1,0-.1v-.1a1.09,1.09,0,0,0-.41-.86,1.72,1.72,0,0,0-1.13-.35,1.47,1.47,0,0,0-.89.24.78.78,0,0,0-.31.66.71.71,0,0,0,.18.5,1.7,1.7,0,0,0,.55.37c.25.11.63.25,1.14.44s1,.39,1.34.55a2.75,2.75,0,0,1,.87.71,1.89,1.89,0,0,1,.39,1.23,2.14,2.14,0,0,1-.83,1.79,3.55,3.55,0,0,1-2.24.65A4.16,4.16,0,0,1,345.77,164.48Z" transform="translate(0 -1.44)" fill="#393d4f"/><path d="M355.1,159.84a.13.13,0,0,1-.1,0h-1.15a.05.05,0,0,0-.06.06v2.55a.86.86,0,0,0,.16.58.64.64,0,0,0,.52.2h.4a.14.14,0,0,1,.14.14v1.14a.15.15,0,0,1-.14.16l-.72,0a2.7,2.7,0,0,1-1.49-.33,1.41,1.41,0,0,1-.51-1.24v-3.22a.05.05,0,0,0-.06-.06h-.68a.14.14,0,0,1-.14-.14v-1.07a.14.14,0,0,1,.14-.14h.68a.05.05,0,0,0,.06-.06V157a.18.18,0,0,1,.15-.15h1.34a.18.18,0,0,1,.15.15v1.43a.05.05,0,0,0,.06.06H355a.14.14,0,0,1,.14.14v1.07A.13.13,0,0,1,355.1,159.84Z" transform="translate(0 -1.44)" fill="#393d4f"/><path d="M357.16,164.26a2.65,2.65,0,0,1-1-1.44,4.28,4.28,0,0,1-.17-1.22,4.49,4.49,0,0,1,.17-1.27,2.62,2.62,0,0,1,1-1.4,3,3,0,0,1,1.73-.5,2.85,2.85,0,0,1,1.68.5,2.64,2.64,0,0,1,1,1.38,4.36,4.36,0,0,1,0,2.48,2.64,2.64,0,0,1-1,1.46,2.79,2.79,0,0,1-1.73.54A2.84,2.84,0,0,1,357.16,164.26Zm2.4-1.16a1.36,1.36,0,0,0,.39-.66,3.22,3.22,0,0,0,.1-.84,3,3,0,0,0-.1-.85,1.21,1.21,0,0,0-.41-.64,1,1,0,0,0-.67-.23,1,1,0,0,0-.67.23,1.2,1.2,0,0,0-.4.64,3,3,0,0,0-.09.85,3.6,3.6,0,0,0,.08.84,1.31,1.31,0,0,0,.41.66,1,1,0,0,0,.68.24A1,1,0,0,0,359.56,163.1Z" transform="translate(0 -1.44)" fill="#393d4f"/><path d="M368.57,161.62a4.72,4.72,0,0,1-.23,1.5,2.54,2.54,0,0,1-.87,1.22,2.34,2.34,0,0,1-1.47.45,1.62,1.62,0,0,1-1.34-.6s0,0-.05,0,0,0,0,0v2.57a.18.18,0,0,1-.15.15H363a.18.18,0,0,1-.15-.15v-8.11a.14.14,0,0,1,.05-.1.12.12,0,0,1,.1,0h1.4a.12.12,0,0,1,.1,0,.14.14,0,0,1,0,.1v.4s0,0,0,0a.06.06,0,0,0,.05,0,1.65,1.65,0,0,1,1.39-.66,2.27,2.27,0,0,1,1.43.46,2.48,2.48,0,0,1,.87,1.29A4.19,4.19,0,0,1,368.57,161.62Zm-1.75,0a2.49,2.49,0,0,0-.25-1.2.93.93,0,0,0-.89-.52.88.88,0,0,0-.83.52,2.4,2.4,0,0,0-.25,1.21,2.53,2.53,0,0,0,.26,1.25.9.9,0,0,0,.82.48,1,1,0,0,0,.84-.47A2.34,2.34,0,0,0,366.82,161.6Z" transform="translate(0 -1.44)" fill="#393d4f"/><path d="M377.15,160.39a2,2,0,0,1,1.14,2,2.06,2.06,0,0,1-.79,1.76,3.35,3.35,0,0,1-2.08.59h-3.11a.14.14,0,0,1-.14-.14v-8.11a.15.15,0,0,1,0-.11.18.18,0,0,1,.1,0h3c1.89,0,2.84.77,2.84,2.31a1.77,1.77,0,0,1-1,1.71S377.1,160.36,377.15,160.39Zm-3.29-2.58v1.87a.05.05,0,0,0,.06.06h1.41a1.29,1.29,0,0,0,.87-.27.87.87,0,0,0,.31-.72.9.9,0,0,0-.31-.73,1.24,1.24,0,0,0-.87-.27h-1.41A.05.05,0,0,0,373.86,157.81Zm2.43,5.14a1.12,1.12,0,0,0,0-1.55,1.26,1.26,0,0,0-.88-.28h-1.49a.05.05,0,0,0-.06.06v2a.05.05,0,0,0,.06.06h1.5A1.25,1.25,0,0,0,376.29,163Z" transform="translate(0 -1.44)" fill="#393d4f"/><path d="M379.74,157.56a1,1,0,0,1,0-1.36.91.91,0,0,1,.68-.27,1,1,0,1,1,0,1.9A.89.89,0,0,1,379.74,157.56Zm-.15,7.09a.13.13,0,0,1,0-.1v-5.89a.12.12,0,0,1,0-.1.14.14,0,0,1,.1-.05h1.41a.14.14,0,0,1,.1.05.12.12,0,0,1,0,.1v5.89a.14.14,0,0,1-.14.14h-1.41A.13.13,0,0,1,379.59,164.65Z" transform="translate(0 -1.44)" fill="#393d4f"/><path d="M386.06,159.84a.13.13,0,0,1-.1,0h-1.15a.05.05,0,0,0-.06.06v2.55a.86.86,0,0,0,.16.58.64.64,0,0,0,.52.2h.4a.14.14,0,0,1,.14.14v1.14a.15.15,0,0,1-.14.16l-.72,0a2.7,2.7,0,0,1-1.49-.33,1.41,1.41,0,0,1-.51-1.24v-3.22a.05.05,0,0,0-.06-.06h-.68a.14.14,0,0,1-.14-.14v-1.07a.14.14,0,0,1,.14-.14h.68a.05.05,0,0,0,.06-.06V157a.18.18,0,0,1,.15-.15h1.34a.18.18,0,0,1,.15.15v1.43a.05.05,0,0,0,.06.06H386a.14.14,0,0,1,.14.14v1.07A.13.13,0,0,1,386.06,159.84Z" transform="translate(0 -1.44)" fill="#393d4f"/><path d="M164.62,10.09l-1.5-3.32a.09.09,0,0,0-.08,0h-1.11a.05.05,0,0,0-.06.06v3.28a.18.18,0,0,1,0,.1.15.15,0,0,1-.11,0h-1.4a.14.14,0,0,1-.14-.14V1.94a.14.14,0,0,1,.14-.14h3.43a2.8,2.8,0,0,1,1.35.31A2.2,2.2,0,0,1,166,3a2.73,2.73,0,0,1,.32,1.33,2.39,2.39,0,0,1-.41,1.4,2.14,2.14,0,0,1-1.14.82.06.06,0,0,0,0,.09L166.37,10l0,.07c0,.07,0,.1-.13.1h-1.48A.16.16,0,0,1,164.62,10.09Zm-2.75-6.78V5.36a.05.05,0,0,0,.06.06h1.57a1.13,1.13,0,0,0,.82-.3,1,1,0,0,0,.32-.78,1,1,0,0,0-.32-.78,1.1,1.1,0,0,0-.82-.31h-1.57A.05.05,0,0,0,161.87,3.31Z" transform="translate(0 -1.44)" fill="#393d4f"/><path d="M172.94,7.5c0,.1-.06.14-.15.14h-3.71c-.05,0-.06,0-.05.06a2.85,2.85,0,0,0,.13.48,1.27,1.27,0,0,0,1.28.68,1.46,1.46,0,0,0,1.21-.63.13.13,0,0,1,.11-.07.15.15,0,0,1,.08.05l.86.85a.17.17,0,0,1,.06.11.2.2,0,0,1,0,.09,2.71,2.71,0,0,1-1,.77,3.45,3.45,0,0,1-1.37.27,3.15,3.15,0,0,1-1.75-.47,2.57,2.57,0,0,1-1-1.31A4,4,0,0,1,167.3,7a3.51,3.51,0,0,1,.18-1.17A2.84,2.84,0,0,1,172,4.62a3,3,0,0,1,.89,1.86A5.5,5.5,0,0,1,172.94,7.5ZM169.1,6.1a2.49,2.49,0,0,0-.08.38.05.05,0,0,0,.06.06h2.08s.06,0,0-.06l-.06-.34a1,1,0,0,0-.37-.55,1.07,1.07,0,0,0-.67-.2A1,1,0,0,0,169.1,6.1Z" transform="translate(0 -1.44)" fill="#393d4f"/><path d="M175,9.82a2.61,2.61,0,0,1-1-1.32,4.33,4.33,0,0,1-.21-1.42A4.11,4.11,0,0,1,174,5.69a2.5,2.5,0,0,1,1-1.29,3,3,0,0,1,1.67-.46,3,3,0,0,1,1.69.48,2.3,2.3,0,0,1,1,1.21,1.33,1.33,0,0,1,.1.43v0a.13.13,0,0,1-.12.14l-1.38.2h0a.14.14,0,0,1-.14-.12l0-.19a.91.91,0,0,0-.37-.52,1.19,1.19,0,0,0-.68-.2,1.06,1.06,0,0,0-.65.19,1,1,0,0,0-.37.53,2.9,2.9,0,0,0-.13,1,3.25,3.25,0,0,0,.12,1,1,1,0,0,0,.37.56,1,1,0,0,0,.66.2,1.11,1.11,0,0,0,.65-.19,1,1,0,0,0,.39-.55.15.15,0,0,0,0-.07.05.05,0,0,0,0,0c0-.09.06-.13.16-.12l1.38.22a.12.12,0,0,1,.12.13,1.6,1.6,0,0,1-.07.36,2.2,2.2,0,0,1-1,1.26,3.1,3.1,0,0,1-1.67.46A2.87,2.87,0,0,1,175,9.82Z" transform="translate(0 -1.44)" fill="#393d4f"/><path d="M185.94,7.5a.14.14,0,0,1-.16.14h-3.7c-.05,0-.07,0-.05.06a2.14,2.14,0,0,0,.13.48,1.26,1.26,0,0,0,1.27.68,1.44,1.44,0,0,0,1.21-.63c0-.05.07-.07.11-.07s.05,0,.09.05l.86.85a.17.17,0,0,1,.06.11.28.28,0,0,1,0,.09,2.56,2.56,0,0,1-1,.77,3.38,3.38,0,0,1-1.37.27,3.12,3.12,0,0,1-1.74-.47,2.59,2.59,0,0,1-1-1.31A4.06,4.06,0,0,1,180.3,7a3.51,3.51,0,0,1,.18-1.17,2.61,2.61,0,0,1,1-1.35,2.66,2.66,0,0,1,1.63-.51,2.69,2.69,0,0,1,1.93.7,3,3,0,0,1,.88,1.86A4.71,4.71,0,0,1,185.94,7.5ZM182.1,6.1a2.49,2.49,0,0,0-.08.38.05.05,0,0,0,.06.06h2.07s.07,0,0-.06l-.06-.34a1,1,0,0,0-.38-.55,1,1,0,0,0-.66-.2A1,1,0,0,0,182.1,6.1Z" transform="translate(0 -1.44)" fill="#393d4f"/><path d="M187.22,3.07a.93.93,0,0,1-.27-.68,1,1,0,0,1,.26-.69,1,1,0,0,1,.69-.26.94.94,0,0,1,.68.26.93.93,0,0,1,.26.69.93.93,0,0,1-.27.68,1,1,0,0,1-1.35,0Zm-.15,7.09a.18.18,0,0,1,0-.1V4.16a.18.18,0,0,1,0-.1.15.15,0,0,1,.11,0h1.4a.14.14,0,0,1,.14.14v5.9a.14.14,0,0,1-.14.14h-1.4A.15.15,0,0,1,187.07,10.16Z" transform="translate(0 -1.44)" fill="#393d4f"/><path d="M191.6,10.08l-1.92-5.89s0,0,0-.06.05-.11.13-.11h1.55a.16.16,0,0,1,.17.12l1,3.64s0,0,0,0,0,0,0,0l1-3.64a.16.16,0,0,1,.17-.12l1.55,0a.12.12,0,0,1,.1,0s0,.07,0,.12l-1.91,5.87a.16.16,0,0,1-.16.12h-1.57A.16.16,0,0,1,191.6,10.08Z" transform="translate(0 -1.44)" fill="#393d4f"/><path d="M196.52,3.07a.93.93,0,0,1-.27-.68,1,1,0,0,1,.26-.69,1,1,0,0,1,.69-.26.94.94,0,0,1,.68.26.93.93,0,0,1,.26.69.93.93,0,0,1-.27.68,1,1,0,0,1-1.35,0Zm-.15,7.09a.18.18,0,0,1,0-.1V4.16a.18.18,0,0,1,0-.1.15.15,0,0,1,.11,0h1.4a.14.14,0,0,1,.14.14v5.9a.14.14,0,0,1-.14.14h-1.4A.15.15,0,0,1,196.37,10.16Z" transform="translate(0 -1.44)" fill="#393d4f"/><path d="M204.11,4.52a2.19,2.19,0,0,1,.59,1.6v3.94a.14.14,0,0,1,0,.1.12.12,0,0,1-.1,0h-1.4a.12.12,0,0,1-.1,0,.14.14,0,0,1-.05-.1V6.47a1.12,1.12,0,0,0-.27-.78,1,1,0,0,0-1.42,0,1.12,1.12,0,0,0-.27.78v3.59a.14.14,0,0,1,0,.1.12.12,0,0,1-.1,0h-1.4a.12.12,0,0,1-.1,0,.14.14,0,0,1,0-.1V4.18a.16.16,0,0,1,0-.11.15.15,0,0,1,.1,0h1.4a.15.15,0,0,1,.1,0,.16.16,0,0,1,0,.11V4.6s0,0,0,0,0,0,0,0a1.66,1.66,0,0,1,1.46-.69A2.1,2.1,0,0,1,204.11,4.52Z" transform="translate(0 -1.44)" fill="#393d4f"/><path d="M209.72,4.07a.18.18,0,0,1,.1,0h1.4a.21.21,0,0,1,.11,0,.21.21,0,0,1,0,.11V9.65a2.59,2.59,0,0,1-.91,2.24,3.79,3.79,0,0,1-2.33.67,8.32,8.32,0,0,1-.94-.06c-.08,0-.12-.06-.12-.15l.05-1.24c0-.1.06-.15.17-.13a4.62,4.62,0,0,0,.79.07,1.84,1.84,0,0,0,1.18-.33,1.32,1.32,0,0,0,.42-1.08,0,0,0,0,0,0-.05l-.05,0a1.7,1.7,0,0,1-1.33.49,2.8,2.8,0,0,1-1.43-.37,2.09,2.09,0,0,1-.93-1.22,4.75,4.75,0,0,1-.18-1.43,4.6,4.6,0,0,1,.21-1.52,2.44,2.44,0,0,1,.86-1.18,2.24,2.24,0,0,1,1.39-.44,1.77,1.77,0,0,1,1.41.55l.05,0a0,0,0,0,0,0,0V4.18A.15.15,0,0,1,209.72,4.07Zm0,3a4.3,4.3,0,0,0,0-.58,1.61,1.61,0,0,0-.08-.38,1,1,0,0,0-.36-.52,1,1,0,0,0-.63-.2.92.92,0,0,0-.61.2,1.1,1.1,0,0,0-.37.52,2.34,2.34,0,0,0-.17,1,2.21,2.21,0,0,0,.15,1,1,1,0,0,0,.37.52,1.09,1.09,0,0,0,.65.2,1,1,0,0,0,.63-.2,1,1,0,0,0,.35-.51A4.15,4.15,0,0,0,209.68,7.07Z" transform="translate(0 -1.44)" fill="#393d4f"/><path d="M216.51,9.94a2.62,2.62,0,0,1-1.09-1,2.87,2.87,0,0,1-.39-1.5V1.94a.14.14,0,0,1,.14-.14h1.41a.14.14,0,0,1,.14.14V7.43a1.42,1.42,0,1,0,2.83,0V1.94a.18.18,0,0,1,0-.1.15.15,0,0,1,.11,0h1.4a.14.14,0,0,1,.14.14V7.42a2.87,2.87,0,0,1-.39,1.5,2.62,2.62,0,0,1-1.09,1,3.85,3.85,0,0,1-3.25,0Z" transform="translate(0 -1.44)" fill="#393d4f"/><path d="M227.82,10.08l-.36-1.18a.07.07,0,0,0-.06,0h-3a.05.05,0,0,0-.06,0L224,10.08a.15.15,0,0,1-.16.12h-1.52a.14.14,0,0,1-.11,0,.14.14,0,0,1,0-.13l2.59-8.11A.16.16,0,0,1,225,1.8h1.88a.16.16,0,0,1,.16.12L229.62,10a.13.13,0,0,1,0,.06c0,.07,0,.11-.13.11H228A.15.15,0,0,1,227.82,10.08Zm-2.95-2.53H227c.05,0,.06,0,.05-.07L226,3.91s0,0,0,0,0,0,0,0l-1.06,3.57A.05.05,0,0,0,224.87,7.55Z" transform="translate(0 -1.44)" fill="#393d4f"/><path d="M235.13,10.09l-1.5-3.32s0,0-.07,0h-1.12a.05.05,0,0,0-.06.06v3.28a.13.13,0,0,1,0,.1.15.15,0,0,1-.11,0h-1.4a.14.14,0,0,1-.14-.14V1.94a.14.14,0,0,1,.14-.14h3.43a2.77,2.77,0,0,1,1.35.31,2.2,2.2,0,0,1,.9.89,2.62,2.62,0,0,1,.32,1.33,2.39,2.39,0,0,1-.41,1.4,2.14,2.14,0,0,1-1.14.82.06.06,0,0,0,0,.09L236.88,10l0,.07c0,.07,0,.1-.13.1h-1.48A.16.16,0,0,1,235.13,10.09Zm-2.75-6.78V5.36a.05.05,0,0,0,.06.06H234a1.13,1.13,0,0,0,.82-.3,1,1,0,0,0,.32-.78,1,1,0,0,0-.32-.78,1.1,1.1,0,0,0-.82-.31h-1.57A.05.05,0,0,0,232.38,3.31Z" transform="translate(0 -1.44)" fill="#393d4f"/><path d="M244,1.84a.14.14,0,0,1,.05.1V3.12a.14.14,0,0,1-.05.1.12.12,0,0,1-.1,0H241.7a.05.05,0,0,0-.06.06v6.74a.14.14,0,0,1-.14.14h-1.4a.15.15,0,0,1-.11,0,.18.18,0,0,1,0-.1V3.32a.05.05,0,0,0-.06-.06H237.8a.14.14,0,0,1-.14-.14V1.94a.14.14,0,0,1,.14-.14h6A.12.12,0,0,1,244,1.84Z" transform="translate(0 -1.44)" fill="#393d4f"/><path d="M151.78,134.06a.13.13,0,0,1,0-.1v-8.12a.14.14,0,0,1,.14-.14h3a3.57,3.57,0,0,1,1.58.32,2.49,2.49,0,0,1,1,.89,2.38,2.38,0,0,1,.37,1.33v3.31a2.41,2.41,0,0,1-.37,1.34,2.49,2.49,0,0,1-1,.89,3.71,3.71,0,0,1-1.58.32h-3A.18.18,0,0,1,151.78,134.06Zm1.71-1.41h1.45a1.13,1.13,0,0,0,.89-.38,1.44,1.44,0,0,0,.36-1v-2.76a1.46,1.46,0,0,0-.34-1,1.19,1.19,0,0,0-.92-.37h-1.44a.05.05,0,0,0-.06.06v5.38A.05.05,0,0,0,153.49,132.65Z" transform="translate(0 -1.44)" fill="#393d4f"/><path d="M162.9,128.1a2.37,2.37,0,0,1,.95.74,1.71,1.71,0,0,1,.34,1V134a.13.13,0,0,1,0,.1.18.18,0,0,1-.1,0h-1.41a.18.18,0,0,1-.1,0,.13.13,0,0,1,0-.1v-.4a.06.06,0,0,0,0-.05,0,0,0,0,0,0,0,1.92,1.92,0,0,1-1.62.66,2.36,2.36,0,0,1-1.51-.45,1.61,1.61,0,0,1-.58-1.35,1.73,1.73,0,0,1,.65-1.43,2.93,2.93,0,0,1,1.85-.51h1.22a.05.05,0,0,0,.06-.06v-.26a.8.8,0,0,0-.24-.62,1,1,0,0,0-.72-.22,1.29,1.29,0,0,0-.62.13.64.64,0,0,0-.32.37q0,.14-.15.12l-1.45-.19c-.1,0-.14-.05-.14-.11a1.61,1.61,0,0,1,.41-.91,2.27,2.27,0,0,1,.93-.64,3.58,3.58,0,0,1,1.3-.23A3.46,3.46,0,0,1,162.9,128.1Zm-.76,4.56a.86.86,0,0,0,.36-.71v-.43a.05.05,0,0,0-.06-.06h-.86a1.57,1.57,0,0,0-.85.2.67.67,0,0,0-.31.58.62.62,0,0,0,.23.51,1,1,0,0,0,.62.18A1.41,1.41,0,0,0,162.14,132.66Z" transform="translate(0 -1.44)" fill="#393d4f"/><path d="M168.88,129.25a.18.18,0,0,1-.1,0h-1.16a.05.05,0,0,0-.06.06v2.54a.9.9,0,0,0,.17.59.62.62,0,0,0,.52.19h.39a.15.15,0,0,1,.11,0,.18.18,0,0,1,0,.1V134q0,.12-.15.15c-.33,0-.57,0-.72,0a2.66,2.66,0,0,1-1.48-.33,1.41,1.41,0,0,1-.51-1.24v-3.21a.05.05,0,0,0-.06-.06h-.68a.15.15,0,0,1-.1,0,.16.16,0,0,1-.05-.11v-1.07a.16.16,0,0,1,.05-.1.12.12,0,0,1,.1,0h.68a.05.05,0,0,0,.06-.06v-1.43a.18.18,0,0,1,0-.1.15.15,0,0,1,.11,0h1.34a.14.14,0,0,1,.14.14v1.43a.05.05,0,0,0,.06.06h1.16a.13.13,0,0,1,.1,0,.14.14,0,0,1,0,.1v1.07A.15.15,0,0,1,168.88,129.25Z" transform="translate(0 -1.44)" fill="#393d4f"/><path d="M173.79,128.1a2.34,2.34,0,0,1,1,.74,1.71,1.71,0,0,1,.34,1V134a.18.18,0,0,1,0,.1.21.21,0,0,1-.11,0h-1.4a.18.18,0,0,1-.1,0,.13.13,0,0,1,0-.1v-.4a0,0,0,0,0,0-.05s0,0-.05,0a1.89,1.89,0,0,1-1.61.66,2.41,2.41,0,0,1-1.52-.45,1.63,1.63,0,0,1-.57-1.35,1.7,1.7,0,0,1,.65-1.43,2.9,2.9,0,0,1,1.84-.51h1.23a.05.05,0,0,0,.06-.06v-.26a.8.8,0,0,0-.24-.62,1,1,0,0,0-.72-.22,1.27,1.27,0,0,0-.62.13.61.61,0,0,0-.32.37.14.14,0,0,1-.16.12l-1.45-.19c-.09,0-.14-.05-.13-.11a1.6,1.6,0,0,1,.4-.91,2.38,2.38,0,0,1,.94-.64,3.58,3.58,0,0,1,1.3-.23A3.41,3.41,0,0,1,173.79,128.1Zm-.75,4.56a.86.86,0,0,0,.36-.71v-.43a.05.05,0,0,0-.06-.06h-.87a1.53,1.53,0,0,0-.84.2.65.65,0,0,0-.31.58.62.62,0,0,0,.23.51.94.94,0,0,0,.61.18A1.44,1.44,0,0,0,173,132.66Z" transform="translate(0 -1.44)" fill="#393d4f"/><path d="M184.56,127.11a.13.13,0,0,1-.1,0h-3.92a.05.05,0,0,0-.06.06v1.86a.05.05,0,0,0,.06.06h2.58a.14.14,0,0,1,.14.14v1.17a.14.14,0,0,1-.14.14h-2.58a.05.05,0,0,0-.06.06V134a.14.14,0,0,1,0,.1.15.15,0,0,1-.1,0h-1.4a.15.15,0,0,1-.1,0,.14.14,0,0,1-.05-.1v-8.12a.14.14,0,0,1,.05-.1.12.12,0,0,1,.1,0h5.53a.14.14,0,0,1,.14.14V127A.13.13,0,0,1,184.56,127.11Z" transform="translate(0 -1.44)" fill="#393d4f"/><path d="M189.15,128a.14.14,0,0,1,.07.18l-.25,1.37c0,.1-.06.13-.17.09a1.33,1.33,0,0,0-.42-.06,1.38,1.38,0,0,0-.26,0,1.14,1.14,0,0,0-.73.32,1,1,0,0,0-.3.75V134a.18.18,0,0,1,0,.1.21.21,0,0,1-.11,0h-1.4a.18.18,0,0,1-.1,0,.13.13,0,0,1,0-.1v-5.89a.14.14,0,0,1,0-.1.13.13,0,0,1,.1,0h1.4a.15.15,0,0,1,.11,0,.21.21,0,0,1,0,.1v.46a.08.08,0,0,0,0,.05s0,0,0,0a1.53,1.53,0,0,1,1.32-.72A1.22,1.22,0,0,1,189.15,128Z" transform="translate(0 -1.44)" fill="#393d4f"/><path d="M193.84,128.1a2.34,2.34,0,0,1,1,.74,1.71,1.71,0,0,1,.34,1V134a.13.13,0,0,1,0,.1.18.18,0,0,1-.1,0h-1.41a.18.18,0,0,1-.1,0,.13.13,0,0,1,0-.1v-.4a0,0,0,0,0,0-.05s0,0,0,0a1.92,1.92,0,0,1-1.62.66,2.41,2.41,0,0,1-1.52-.45,1.63,1.63,0,0,1-.57-1.35,1.7,1.7,0,0,1,.65-1.43,2.9,2.9,0,0,1,1.84-.51h1.23a.05.05,0,0,0,.06-.06v-.26a.8.8,0,0,0-.24-.62,1,1,0,0,0-.72-.22,1.27,1.27,0,0,0-.62.13.64.64,0,0,0-.32.37q0,.14-.15.12l-1.46-.19c-.09,0-.14-.05-.13-.11a1.6,1.6,0,0,1,.4-.91,2.38,2.38,0,0,1,.94-.64,3.58,3.58,0,0,1,1.3-.23A3.38,3.38,0,0,1,193.84,128.1Zm-.75,4.56a.86.86,0,0,0,.36-.71v-.43a.05.05,0,0,0-.06-.06h-.87a1.53,1.53,0,0,0-.84.2.65.65,0,0,0-.31.58.62.62,0,0,0,.23.51,1,1,0,0,0,.61.18A1.42,1.42,0,0,0,193.09,132.66Z" transform="translate(0 -1.44)" fill="#393d4f"/><path d="M204.63,128.4a2.22,2.22,0,0,1,.53,1.58v4a.13.13,0,0,1,0,.1.18.18,0,0,1-.1,0h-1.41a.18.18,0,0,1-.1,0,.13.13,0,0,1,0-.1v-3.61a1.21,1.21,0,0,0-.25-.78.87.87,0,0,0-.68-.28.88.88,0,0,0-.68.28,1.09,1.09,0,0,0-.26.77V134a.14.14,0,0,1,0,.1.15.15,0,0,1-.1,0h-1.39a.18.18,0,0,1-.1,0,.13.13,0,0,1,0-.1v-3.61a1.11,1.11,0,0,0-.27-.77.84.84,0,0,0-.68-.29.92.92,0,0,0-.64.22,1,1,0,0,0-.31.64V134a.13.13,0,0,1,0,.1.18.18,0,0,1-.1,0h-1.41a.18.18,0,0,1-.1,0,.13.13,0,0,1,0-.1v-5.89a.14.14,0,0,1,0-.1.13.13,0,0,1,.1,0h1.41a.13.13,0,0,1,.1,0,.14.14,0,0,1,0,.1v.47a.06.06,0,0,0,0,.05,0,0,0,0,0,.05,0,1.72,1.72,0,0,1,1.53-.74,2.1,2.1,0,0,1,1,.26,1.66,1.66,0,0,1,.69.72s0,0,.08,0a1.75,1.75,0,0,1,.71-.74,2.26,2.26,0,0,1,1-.24A1.89,1.89,0,0,1,204.63,128.4Z" transform="translate(0 -1.44)" fill="#393d4f"/><path d="M211.86,131.4a.14.14,0,0,1-.16.14H208c-.05,0-.06,0-.05.06a2.18,2.18,0,0,0,.14.48,1.24,1.24,0,0,0,1.27.67,1.42,1.42,0,0,0,1.21-.62.13.13,0,0,1,.11-.07.15.15,0,0,1,.08.05l.87.85a.17.17,0,0,1,.06.11.45.45,0,0,1-.05.09,2.58,2.58,0,0,1-1,.76,3.42,3.42,0,0,1-1.37.27,3.15,3.15,0,0,1-1.75-.46,2.63,2.63,0,0,1-1-1.31,4.06,4.06,0,0,1-.25-1.57,3.51,3.51,0,0,1,.18-1.17,2.56,2.56,0,0,1,1-1.35,3,3,0,0,1,3.57.19,3.08,3.08,0,0,1,.88,1.86A5.44,5.44,0,0,1,211.86,131.4ZM208,130a2.38,2.38,0,0,0-.09.38.05.05,0,0,0,.06.06h2.08c.05,0,.06,0,.05-.06l-.06-.34a1.12,1.12,0,0,0-.38-.56,1.11,1.11,0,0,0-.67-.19A1,1,0,0,0,208,130Z" transform="translate(0 -1.44)" fill="#393d4f"/><rect x="84.28" y="103.44" width="8.4" height="8.4" fill="#9365ab" stroke="#9365ab" stroke-miterlimit="10" stroke-width="2"/><rect x="271.68" y="103.44" width="8.4" height="8.4" fill="#9365ab" stroke="#9365ab" stroke-miterlimit="10" stroke-width="2"/><rect x="295.45" y="103.44" width="8.4" height="8.4" fill="#9365ab" stroke="#9365ab" stroke-miterlimit="10" stroke-width="2"/><line x1="88.94" y1="108.34" x2="58.13" y2="132.39" fill="none" stroke="#393d4f" stroke-width="1.5"/><polygon points="57.88 128.05 49.46 139.2 62.33 133.75 57.88 128.05" fill="#393d4f"/><line x1="272.92" y1="108.34" x2="303.73" y2="132.39" fill="none" stroke="#393d4f" stroke-width="1.5"/><polygon points="303.99 128.05 312.4 139.2 299.54 133.75 303.99 128.05" fill="#393d4f"/><line x1="298.91" y1="108.82" x2="352.2" y2="133.84" fill="none" stroke="#393d4f" stroke-width="1.5"/><polygon points="351.49 129.56 362.17 138.57 348.41 136.11 351.49 129.56" fill="#393d4f"/></svg>