<svg id="e054bb4d-9ebe-4da7-a415-e5a2ec60df0d" data-name="Layer 1" xmlns="http://www.w3.org/2000/svg" width="5.64in" height="3.34in" viewBox="0 0 406.19 240.22"><rect x="0.75" y="74.87" width="404.69" height="119.46" rx="3.95" fill="#8fd0b8"/><rect x="0.75" y="74.87" width="404.69" height="119.46" rx="3.95" fill="none" stroke="#393d4f" stroke-miterlimit="8" stroke-width="1.5"/><polygon points="260.68 187.32 260.68 200.22 254.93 200.22 250.9 239.47 242.84 239.47 238.81 200.22 233.06 200.22 233.06 187.32 260.68 187.32" fill="#a1dbf7" fill-rule="evenodd"/><polygon points="260.68 187.32 260.68 200.22 254.93 200.22 250.9 239.47 242.84 239.47 238.81 200.22 233.06 200.22 233.06 187.32 260.68 187.32" fill="none" stroke="#393d4f" stroke-miterlimit="8" stroke-width="1.5"/><polygon points="217.1 187.32 217.1 200.22 211.27 200.22 207.18 239.47 199 239.47 194.92 200.22 189.09 200.22 189.09 187.32 217.1 187.32" fill="#a1dbf7" fill-rule="evenodd"/><polygon points="217.1 187.32 217.1 200.22 211.27 200.22 207.18 239.47 199 239.47 194.92 200.22 189.09 200.22 189.09 187.32 217.1 187.32" fill="none" stroke="#393d4f" stroke-miterlimit="8" stroke-width="1.5"/><polygon points="173.13 187.32 173.13 200.22 167.38 200.22 163.35 239.47 155.28 239.47 151.25 200.22 145.5 200.22 145.5 187.32 173.13 187.32" fill="#a1dbf7" fill-rule="evenodd"/><polygon points="173.13 187.32 173.13 200.22 167.38 200.22 163.35 239.47 155.28 239.47 151.25 200.22 145.5 200.22 145.5 187.32 173.13 187.32" fill="none" stroke="#393d4f" stroke-miterlimit="8" stroke-width="1.5"/><polygon points="260.68 81.87 260.68 68.98 254.93 68.98 250.9 29.73 242.84 29.73 238.81 68.98 233.06 68.98 233.06 81.87 260.68 81.87" fill="#a1dbf7" fill-rule="evenodd"/><polygon points="260.68 81.87 260.68 68.98 254.93 68.98 250.9 29.73 242.84 29.73 238.81 68.98 233.06 68.98 233.06 81.87 260.68 81.87" fill="none" stroke="#393d4f" stroke-miterlimit="8" stroke-width="1.5"/><polygon points="217.1 81.87 217.1 68.98 211.27 68.98 207.18 29.73 199 29.73 194.92 68.98 189.09 68.98 189.09 81.87 217.1 81.87" fill="#a1dbf7" fill-rule="evenodd"/><polygon points="217.1 81.87 217.1 68.98 211.27 68.98 207.18 29.73 199 29.73 194.92 68.98 189.09 68.98 189.09 81.87 217.1 81.87" fill="none" stroke="#393d4f" stroke-miterlimit="8" stroke-width="1.5"/><polygon points="173.13 81.87 173.13 68.98 167.38 68.98 163.35 29.73 155.28 29.73 151.25 68.98 145.5 68.98 145.5 81.87 173.13 81.87" fill="#a1dbf7" fill-rule="evenodd"/><polygon points="173.13 81.87 173.13 68.98 167.38 68.98 163.35 29.73 155.28 29.73 151.25 68.98 145.5 68.98 145.5 81.87 173.13 81.87" fill="none" stroke="#393d4f" stroke-miterlimit="8" stroke-width="1.5"/><polygon points="392.21 187.32 392.21 200.22 386.37 200.22 382.29 239.47 374.11 239.47 370.02 200.22 364.19 200.22 364.19 187.32 392.21 187.32" fill="#a1dbf7" fill-rule="evenodd"/><polygon points="392.21 187.32 392.21 200.22 386.37 200.22 382.29 239.47 374.11 239.47 370.02 200.22 364.19 200.22 364.19 187.32 392.21 187.32" fill="none" stroke="#393d4f" stroke-miterlimit="8" stroke-width="1.5"/><polygon points="348.24 187.32 348.24 200.22 342.4 200.22 338.31 239.47 330.14 239.47 326.05 200.22 320.22 200.22 320.22 187.32 348.24 187.32" fill="#a1dbf7" fill-rule="evenodd"/><polygon points="348.24 187.32 348.24 200.22 342.4 200.22 338.31 239.47 330.14 239.47 326.05 200.22 320.22 200.22 320.22 187.32 348.24 187.32" fill="none" stroke="#393d4f" stroke-miterlimit="8" stroke-width="1.5"/><polygon points="304.65 187.32 304.65 200.22 298.82 200.22 294.73 239.47 286.56 239.47 282.47 200.22 276.64 200.22 276.64 187.32 304.65 187.32" fill="#a1dbf7" fill-rule="evenodd"/><polygon points="304.65 187.32 304.65 200.22 298.82 200.22 294.73 239.47 286.56 239.47 282.47 200.22 276.64 200.22 276.64 187.32 304.65 187.32" fill="none" stroke="#393d4f" stroke-miterlimit="8" stroke-width="1.5"/><polygon points="130.33 187.32 130.33 200.22 124.58 200.22 120.55 239.47 112.48 239.47 108.45 200.22 102.7 200.22 102.7 187.32 130.33 187.32" fill="#a1dbf7" fill-rule="evenodd"/><polygon points="130.33 187.32 130.33 200.22 124.58 200.22 120.55 239.47 112.48 239.47 108.45 200.22 102.7 200.22 102.7 187.32 130.33 187.32" fill="none" stroke="#393d4f" stroke-miterlimit="8" stroke-width="1.5"/><polygon points="86.75 187.32 86.75 200.22 80.91 200.22 76.83 239.47 68.65 239.47 64.56 200.22 58.73 200.22 58.73 187.32 86.75 187.32" fill="#a1dbf7" fill-rule="evenodd"/><polygon points="86.75 187.32 86.75 200.22 80.91 200.22 76.83 239.47 68.65 239.47 64.56 200.22 58.73 200.22 58.73 187.32 86.75 187.32" fill="none" stroke="#393d4f" stroke-miterlimit="8" stroke-width="1.5"/><polygon points="43.16 187.32 43.16 200.22 37.33 200.22 33.24 239.47 25.07 239.47 20.98 200.22 15.15 200.22 15.15 187.32 43.16 187.32" fill="#a1dbf7" fill-rule="evenodd"/><polygon points="43.16 187.32 43.16 200.22 37.33 200.22 33.24 239.47 25.07 239.47 20.98 200.22 15.15 200.22 15.15 187.32 43.16 187.32" fill="none" stroke="#393d4f" stroke-miterlimit="8" stroke-width="1.5"/><polygon points="392.21 81.48 392.21 68.59 386.37 68.59 382.29 29.34 374.11 29.34 370.02 68.59 364.19 68.59 364.19 81.48 392.21 81.48" fill="#a1dbf7" fill-rule="evenodd"/><polygon points="392.21 81.48 392.21 68.59 386.37 68.59 382.29 29.34 374.11 29.34 370.02 68.59 364.19 68.59 364.19 81.48 392.21 81.48" fill="none" stroke="#393d4f" stroke-miterlimit="8" stroke-width="1.5"/><polygon points="348.24 81.48 348.24 68.59 342.4 68.59 338.31 29.34 330.14 29.34 326.05 68.59 320.22 68.59 320.22 81.48 348.24 81.48" fill="#a1dbf7" fill-rule="evenodd"/><polygon points="348.24 81.48 348.24 68.59 342.4 68.59 338.31 29.34 330.14 29.34 326.05 68.59 320.22 68.59 320.22 81.48 348.24 81.48" fill="none" stroke="#393d4f" stroke-miterlimit="8" stroke-width="1.5"/><polygon points="304.65 81.48 304.65 68.59 298.82 68.59 294.73 29.34 286.56 29.34 282.47 68.59 276.64 68.59 276.64 81.48 304.65 81.48" fill="#a1dbf7" fill-rule="evenodd"/><polygon points="304.65 81.48 304.65 68.59 298.82 68.59 294.73 29.34 286.56 29.34 282.47 68.59 276.64 68.59 276.64 81.48 304.65 81.48" fill="none" stroke="#393d4f" stroke-miterlimit="8" stroke-width="1.5"/><polygon points="130.33 81.48 130.33 68.59 124.58 68.59 120.55 29.34 112.48 29.34 108.45 68.59 102.7 68.59 102.7 81.48 130.33 81.48" fill="#a1dbf7" fill-rule="evenodd"/><polygon points="130.33 81.48 130.33 68.59 124.58 68.59 120.55 29.34 112.48 29.34 108.45 68.59 102.7 68.59 102.7 81.48 130.33 81.48" fill="none" stroke="#393d4f" stroke-miterlimit="8" stroke-width="1.5"/><polygon points="86.75 81.48 86.75 68.59 80.91 68.59 76.83 29.34 68.65 29.34 64.56 68.59 58.73 68.59 58.73 81.48 86.75 81.48" fill="#a1dbf7" fill-rule="evenodd"/><polygon points="86.75 81.48 86.75 68.59 80.91 68.59 76.83 29.34 68.65 29.34 64.56 68.59 58.73 68.59 58.73 81.48 86.75 81.48" fill="none" stroke="#393d4f" stroke-miterlimit="8" stroke-width="1.5"/><polygon points="43.16 81.48 43.16 68.59 37.33 68.59 33.24 29.34 25.07 29.34 20.98 68.59 15.15 68.59 15.15 81.48 43.16 81.48" fill="#a1dbf7" fill-rule="evenodd"/><polygon points="43.16 81.48 43.16 68.59 37.33 68.59 33.24 29.34 25.07 29.34 20.98 68.59 15.15 68.59 15.15 81.48 43.16 81.48" fill="none" stroke="#393d4f" stroke-miterlimit="8" stroke-width="1.5"/><path d="M100.6,112.77a2.66,2.66,0,0,1-.77-2v-3.17a2.62,2.62,0,0,1,.77-2,3.36,3.36,0,0,1,4.18,0,2.59,2.59,0,0,1,.78,2v3.17a2.63,2.63,0,0,1-.78,2,3.32,3.32,0,0,1-4.18,0Zm3-1a1.21,1.21,0,0,0,.31-.88v-3.3a1.21,1.21,0,0,0-.31-.88,1.15,1.15,0,0,0-.86-.33,1.13,1.13,0,0,0-.85.33,1.22,1.22,0,0,0-.32.88v3.3a1.22,1.22,0,0,0,.32.88,1.09,1.09,0,0,0,.85.33A1.12,1.12,0,0,0,103.55,111.72Z" transform="translate(0 -1.44)" fill="#393d4f"/><path d="M125,105h1.45a.14.14,0,0,1,.15.15v8.11a.18.18,0,0,1,0,.1.15.15,0,0,1-.11,0h-1.4a.14.14,0,0,1-.14-.14v-6.58a.05.05,0,0,0,0,0,0,0,0,0,0,0,0l-1.18.33h0c-.07,0-.11-.05-.11-.13l0-1a.17.17,0,0,1,.11-.16l1.26-.59A.4.4,0,0,1,125,105Z" transform="translate(0 -1.44)" fill="#393d4f"/><path d="M147.53,105H149a.18.18,0,0,1,.15.15v8.11a.14.14,0,0,1,0,.1.12.12,0,0,1-.1,0h-1.4a.12.12,0,0,1-.1,0,.14.14,0,0,1,0-.1v-6.57s0,0,0,0a.06.06,0,0,0,0,0l-1.19.33h0c-.08,0-.11,0-.11-.13l0-1a.18.18,0,0,1,.11-.17l1.26-.59A.4.4,0,0,1,147.53,105Z" transform="translate(0 -1.44)" fill="#393d4f"/><path d="M170,105h1.46a.18.18,0,0,1,.1,0,.15.15,0,0,1,0,.11v8.11a.14.14,0,0,1-.14.14h-1.41a.14.14,0,0,1-.14-.14v-6.58a.05.05,0,0,0,0,0s0,0,0,0l-1.19.33h0c-.07,0-.11-.05-.11-.13l0-1a.16.16,0,0,1,.1-.16l1.26-.59A.4.4,0,0,1,170,105Z" transform="translate(0 -1.44)" fill="#393d4f"/><path d="M190.55,112.77a2.66,2.66,0,0,1-.77-2v-3.17a2.62,2.62,0,0,1,.77-2,3.36,3.36,0,0,1,4.18,0,2.58,2.58,0,0,1,.77,2v3.17a2.62,2.62,0,0,1-.77,2,3.32,3.32,0,0,1-4.18,0Zm2.94-1a1.18,1.18,0,0,0,.32-.88v-3.3a1.18,1.18,0,0,0-.32-.88,1.26,1.26,0,0,0-1.7,0,1.22,1.22,0,0,0-.32.88v3.3a1.22,1.22,0,0,0,.32.88,1.26,1.26,0,0,0,1.7,0Z" transform="translate(0 -1.44)" fill="#393d4f"/><path d="M215,105h1.45a.18.18,0,0,1,.1,0,.15.15,0,0,1,0,.11v8.11a.14.14,0,0,1-.14.14H215a.15.15,0,0,1-.11,0,.18.18,0,0,1,0-.1v-6.58a.08.08,0,0,0,0,0s0,0-.05,0l-1.19.33h0c-.07,0-.1-.05-.1-.13l0-1a.17.17,0,0,1,.11-.16l1.26-.59A.4.4,0,0,1,215,105Z" transform="translate(0 -1.44)" fill="#393d4f"/><path d="M235.52,112.77a2.66,2.66,0,0,1-.77-2v-3.17a2.62,2.62,0,0,1,.77-2,3.36,3.36,0,0,1,4.18,0,2.59,2.59,0,0,1,.78,2v3.17a2.63,2.63,0,0,1-.78,2,3.32,3.32,0,0,1-4.18,0Zm2.95-1a1.21,1.21,0,0,0,.31-.88v-3.3a1.21,1.21,0,0,0-.31-.88,1.15,1.15,0,0,0-.86-.33,1.13,1.13,0,0,0-.85.33,1.22,1.22,0,0,0-.32.88v3.3a1.22,1.22,0,0,0,.32.88,1.09,1.09,0,0,0,.85.33A1.12,1.12,0,0,0,238.47,111.72Z" transform="translate(0 -1.44)" fill="#393d4f"/><path d="M260,105h1.45a.14.14,0,0,1,.15.15v8.11a.18.18,0,0,1,0,.1.15.15,0,0,1-.11,0H260a.14.14,0,0,1-.14-.14v-6.58a.05.05,0,0,0,0,0,0,0,0,0,0,0,0l-1.18.33h-.05c-.07,0-.11-.05-.11-.13l0-1a.17.17,0,0,1,.11-.16l1.26-.59A.4.4,0,0,1,260,105Z" transform="translate(0 -1.44)" fill="#393d4f"/><path d="M37.16,146.12a.13.13,0,0,1,0,.1v1.17a.14.14,0,0,1-.14.14H35.42a.05.05,0,0,0-.06.06v1.62a.14.14,0,0,1,0,.1.12.12,0,0,1-.1,0H34.06a.14.14,0,0,1-.14-.14v-1.62a.05.05,0,0,0-.06-.06H32.21a.14.14,0,0,1-.14-.14v-1.17a.14.14,0,0,1,.14-.14h1.65a.05.05,0,0,0,.06-.06v-1.66a.14.14,0,0,1,.14-.14h1.15a.12.12,0,0,1,.1,0,.14.14,0,0,1,0,.1V146a.05.05,0,0,0,.06.06h1.64A.13.13,0,0,1,37.16,146.12Z" transform="translate(0 -1.44)" fill="#9365ab"/><path d="M38.87,149.8a2.66,2.66,0,0,1-.77-2v-3.16a2.59,2.59,0,0,1,.77-2,3.32,3.32,0,0,1,4.18,0,2.56,2.56,0,0,1,.78,2v3.16a2.63,2.63,0,0,1-.78,2,3.32,3.32,0,0,1-4.18,0Zm3-1a1.22,1.22,0,0,0,.32-.88v-3.3a1.22,1.22,0,0,0-.32-.88,1.27,1.27,0,0,0-1.71,0,1.21,1.21,0,0,0-.31.88v3.3a1.21,1.21,0,0,0,.31.88,1.27,1.27,0,0,0,1.71,0Z" transform="translate(0 -1.44)" fill="#9365ab"/><path d="M17.66,164.6a2.46,2.46,0,0,1-1.11-.88,2.28,2.28,0,0,1-.39-1.32v-.27a.18.18,0,0,1,0-.1.15.15,0,0,1,.11,0h1.36a.15.15,0,0,1,.11,0,.18.18,0,0,1,0,.1v.18a1,1,0,0,0,.44.82,2.05,2.05,0,0,0,1.2.32,1.42,1.42,0,0,0,.95-.27.83.83,0,0,0,.31-.66.67.67,0,0,0-.19-.49,2,2,0,0,0-.52-.35c-.22-.1-.57-.23-1.05-.41a9.7,9.7,0,0,1-1.36-.56,2.78,2.78,0,0,1-.94-.79,2,2,0,0,1-.38-1.23,2.22,2.22,0,0,1,.37-1.26,2.39,2.39,0,0,1,1-.83,3.78,3.78,0,0,1,1.52-.29,3.86,3.86,0,0,1,1.63.33,2.69,2.69,0,0,1,1.11.9,2.31,2.31,0,0,1,.4,1.35v.18a.15.15,0,0,1,0,.11.13.13,0,0,1-.1,0H20.83a.13.13,0,0,1-.1,0,.15.15,0,0,1,0-.11V159a1.09,1.09,0,0,0-.42-.86,1.65,1.65,0,0,0-1.13-.35,1.42,1.42,0,0,0-.88.24.76.76,0,0,0-.32.66.73.73,0,0,0,.18.5,1.65,1.65,0,0,0,.56.37c.24.1.62.25,1.13.43s1,.4,1.34.56a2.62,2.62,0,0,1,.87.71,1.89,1.89,0,0,1,.39,1.23,2.14,2.14,0,0,1-.82,1.78,3.52,3.52,0,0,1-2.25.66A4.34,4.34,0,0,1,17.66,164.6Z" transform="translate(0 -1.44)" fill="#393d4f"/><path d="M27,160a.18.18,0,0,1-.1,0H25.74a.05.05,0,0,0-.06.06v2.54a.89.89,0,0,0,.16.59.64.64,0,0,0,.52.19h.4a.18.18,0,0,1,.1,0,.15.15,0,0,1,0,.11v1.14a.14.14,0,0,1-.14.15l-.72,0a2.7,2.7,0,0,1-1.49-.33,1.4,1.4,0,0,1-.5-1.25v-3.21A.05.05,0,0,0,24,160H23.3a.18.18,0,0,1-.1,0,.15.15,0,0,1,0-.11v-1.06a.15.15,0,0,1,0-.11.18.18,0,0,1,.1,0H24a.05.05,0,0,0,.06-.06v-1.43a.14.14,0,0,1,.14-.14h1.34a.15.15,0,0,1,.11,0,.18.18,0,0,1,0,.1v1.43a.05.05,0,0,0,.06.06h1.15a.18.18,0,0,1,.1,0,.15.15,0,0,1,0,.11v1.06A.15.15,0,0,1,27,160Z" transform="translate(0 -1.44)" fill="#393d4f"/><path d="M31.91,158.82a2.35,2.35,0,0,1,.95.73,1.73,1.73,0,0,1,.34,1v4.07a.14.14,0,0,1-.14.14H31.65a.14.14,0,0,1-.14-.14v-.4a.08.08,0,0,0,0-.05s0,0,0,0a1.92,1.92,0,0,1-1.62.66,2.36,2.36,0,0,1-1.51-.46,1.59,1.59,0,0,1-.58-1.34,1.73,1.73,0,0,1,.65-1.44,2.93,2.93,0,0,1,1.85-.51h1.22a.05.05,0,0,0,.06-.06v-.26a.8.8,0,0,0-.24-.62,1,1,0,0,0-.72-.22,1.29,1.29,0,0,0-.62.13.64.64,0,0,0-.32.37q0,.13-.15.12L28,160.43c-.1,0-.14-.05-.14-.11a1.64,1.64,0,0,1,.41-.91,2.37,2.37,0,0,1,.93-.64,3.58,3.58,0,0,1,1.3-.22A3.46,3.46,0,0,1,31.91,158.82Zm-.76,4.55a.85.85,0,0,0,.36-.71v-.43a.05.05,0,0,0-.06-.06h-.86a1.48,1.48,0,0,0-.85.21.65.65,0,0,0-.31.57.62.62,0,0,0,.23.51,1,1,0,0,0,.61.19A1.42,1.42,0,0,0,31.15,163.37Z" transform="translate(0 -1.44)" fill="#393d4f"/><path d="M38.15,158.73c.06,0,.08.09.07.18L38,160.27c0,.1-.07.13-.17.09a1.33,1.33,0,0,0-.42-.06l-.27,0a1.22,1.22,0,0,0-.73.32,1,1,0,0,0-.3.75v3.28a.14.14,0,0,1-.14.14H34.53a.14.14,0,0,1-.14-.14v-5.88a.15.15,0,0,1,0-.11.18.18,0,0,1,.1,0h1.41a.18.18,0,0,1,.1,0,.15.15,0,0,1,0,.11v.45a0,0,0,0,0,0,0s0,0,0,0a1.53,1.53,0,0,1,1.32-.72A1.18,1.18,0,0,1,38.15,158.73Z" transform="translate(0 -1.44)" fill="#393d4f"/><path d="M42.48,160a.15.15,0,0,1-.1,0H41.23a.05.05,0,0,0-.06.06v2.54a.89.89,0,0,0,.16.59.64.64,0,0,0,.52.19h.4a.18.18,0,0,1,.1,0,.15.15,0,0,1,0,.11v1.14a.14.14,0,0,1-.14.15l-.72,0a2.72,2.72,0,0,1-1.49-.33,1.43,1.43,0,0,1-.5-1.25v-3.21a.05.05,0,0,0-.06-.06h-.69a.18.18,0,0,1-.1,0,.15.15,0,0,1,0-.11v-1.06a.15.15,0,0,1,0-.11.18.18,0,0,1,.1,0h.69a.05.05,0,0,0,.06-.06v-1.43a.14.14,0,0,1,.14-.14H41a.14.14,0,0,1,.14.14v1.43a.05.05,0,0,0,.06.06h1.15a.15.15,0,0,1,.1,0,.16.16,0,0,1,.05.11v1.06A.16.16,0,0,1,42.48,160Z" transform="translate(0 -1.44)" fill="#393d4f"/><path d="M51,160.5a2,2,0,0,1,1.14,2,2.07,2.07,0,0,1-.79,1.76,3.42,3.42,0,0,1-2.08.59H46.2a.15.15,0,0,1-.11,0,.18.18,0,0,1,0-.1v-8.12a.18.18,0,0,1,0-.1.15.15,0,0,1,.11,0h3c1.9,0,2.84.77,2.84,2.3a1.78,1.78,0,0,1-1,1.72C51,160.45,51,160.48,51,160.5Zm-3.29-2.58v1.87a.05.05,0,0,0,.06.06h1.41a1.3,1.3,0,0,0,.88-.26.91.91,0,0,0,.31-.72,1,1,0,0,0-.31-.74,1.3,1.3,0,0,0-.88-.27H47.8A.05.05,0,0,0,47.74,157.92Zm2.43,5.14a1,1,0,0,0,.31-.77,1,1,0,0,0-.31-.77,1.26,1.26,0,0,0-.88-.29H47.8a.05.05,0,0,0-.06.06v2a.05.05,0,0,0,.06.06h1.5A1.25,1.25,0,0,0,50.17,163.06Z" transform="translate(0 -1.44)" fill="#393d4f"/><path d="M53.62,157.68a.93.93,0,0,1-.27-.68.89.89,0,0,1,.95-.95.94.94,0,0,1,.68.26,1,1,0,0,1,0,1.37.89.89,0,0,1-.67.27A.93.93,0,0,1,53.62,157.68Zm-.15,7.09a.18.18,0,0,1,0-.1v-5.9a.18.18,0,0,1,0-.1.15.15,0,0,1,.11,0H55a.14.14,0,0,1,.14.14v5.9a.14.14,0,0,1-.14.14h-1.4A.15.15,0,0,1,53.47,164.77Z" transform="translate(0 -1.44)" fill="#393d4f"/><path d="M59.94,160a.18.18,0,0,1-.1,0H58.69a.05.05,0,0,0-.06.06v2.54a.89.89,0,0,0,.16.59.64.64,0,0,0,.52.19h.4a.18.18,0,0,1,.1,0,.15.15,0,0,1,0,.11v1.14a.14.14,0,0,1-.14.15l-.72,0a2.7,2.7,0,0,1-1.49-.33,1.4,1.4,0,0,1-.5-1.25v-3.21a.05.05,0,0,0-.06-.06h-.69a.18.18,0,0,1-.1,0,.15.15,0,0,1,0-.11v-1.06a.15.15,0,0,1,0-.11.18.18,0,0,1,.1,0h.69a.05.05,0,0,0,.06-.06v-1.43a.14.14,0,0,1,.14-.14h1.34a.14.14,0,0,1,.11,0,.18.18,0,0,1,0,.1v1.43a.05.05,0,0,0,.06.06h1.15a.18.18,0,0,1,.1,0,.15.15,0,0,1,0,.11v1.06A.15.15,0,0,1,59.94,160Z" transform="translate(0 -1.44)" fill="#393d4f"/><path d="M313.68,145.34a.13.13,0,0,1,0,.1v1.17a.14.14,0,0,1-.14.14h-1.64s-.07,0-.07.06v1.62a.13.13,0,0,1,0,.1.14.14,0,0,1-.1.05h-1.15a.12.12,0,0,1-.1-.05.13.13,0,0,1,0-.1v-1.62s0-.06-.07-.06h-1.64a.14.14,0,0,1-.14-.14v-1.17a.14.14,0,0,1,.14-.14h1.64s.07,0,.07-.06v-1.66a.13.13,0,0,1,0-.1.12.12,0,0,1,.1,0h1.15a.14.14,0,0,1,.14.14v1.66s0,.06.07.06h1.64A.13.13,0,0,1,313.68,145.34Z" transform="translate(0 -1.44)" fill="#9365ab"/><path d="M315.39,149a2.66,2.66,0,0,1-.77-2v-3.16a2.59,2.59,0,0,1,.77-2,3.32,3.32,0,0,1,4.18,0,2.56,2.56,0,0,1,.78,2V147a2.63,2.63,0,0,1-.78,2,3.32,3.32,0,0,1-4.18,0Zm2.95-1a1.21,1.21,0,0,0,.31-.88v-3.3a1.21,1.21,0,0,0-.31-.88,1.15,1.15,0,0,0-.86-.33,1.13,1.13,0,0,0-.85.33,1.21,1.21,0,0,0-.31.88v3.3a1.21,1.21,0,0,0,.31.88,1.13,1.13,0,0,0,.85.33A1.15,1.15,0,0,0,318.34,148Z" transform="translate(0 -1.44)" fill="#9365ab"/><path d="M304.28,155.94a2.31,2.31,0,0,1,.94.92,2.76,2.76,0,0,1,.32,1.36,2.57,2.57,0,0,1-.34,1.34,2.3,2.3,0,0,1-1,.89,3.06,3.06,0,0,1-1.42.32h-1.7a.05.05,0,0,0-.06.06v3.06a.18.18,0,0,1,0,.1.15.15,0,0,1-.11,0h-1.4a.13.13,0,0,1-.1,0,.14.14,0,0,1-.05-.1v-8.13a.14.14,0,0,1,.05-.1.13.13,0,0,1,.1,0h3.38A2.94,2.94,0,0,1,304.28,155.94Zm-.75,3.15a1.1,1.1,0,0,0,.33-.83,1.13,1.13,0,0,0-.33-.85,1.21,1.21,0,0,0-.89-.33h-1.52a.05.05,0,0,0-.06.06v2.21a.05.05,0,0,0,.06.06h1.52A1.2,1.2,0,0,0,303.53,159.09Z" transform="translate(0 -1.44)" fill="#393d4f"/><path d="M310.33,158a2.26,2.26,0,0,1,1,.74,1.71,1.71,0,0,1,.34,1v4.07a.18.18,0,0,1,0,.1.14.14,0,0,1-.11,0h-1.4a.14.14,0,0,1-.14-.14v-.4a.05.05,0,0,0,0-.05.05.05,0,0,0-.05,0,1.89,1.89,0,0,1-1.62.66,2.34,2.34,0,0,1-1.51-.46,1.61,1.61,0,0,1-.57-1.34,1.71,1.71,0,0,1,.65-1.44,2.9,2.9,0,0,1,1.84-.51h1.23a.05.05,0,0,0,.06-.06v-.26a.8.8,0,0,0-.24-.62,1,1,0,0,0-.72-.22,1.27,1.27,0,0,0-.62.13.61.61,0,0,0-.32.37.13.13,0,0,1-.15.12l-1.46-.19c-.09,0-.14-.05-.13-.11a1.63,1.63,0,0,1,.4-.91,2.36,2.36,0,0,1,.94-.63,3.75,3.75,0,0,1,2.69,0Zm-.75,4.55a.85.85,0,0,0,.36-.71v-.43a.05.05,0,0,0-.06-.06H309a1.45,1.45,0,0,0-.84.21.63.63,0,0,0-.31.57.62.62,0,0,0,.23.51.89.89,0,0,0,.61.19A1.38,1.38,0,0,0,309.58,162.59Z" transform="translate(0 -1.44)" fill="#393d4f"/><path d="M316.57,158c.07,0,.09.09.08.18l-.26,1.37c0,.09-.06.12-.16.08a1.37,1.37,0,0,0-.42-.06l-.27,0a1.19,1.19,0,0,0-.73.32,1,1,0,0,0-.3.75v3.28a.18.18,0,0,1,0,.1.15.15,0,0,1-.11,0H313a.14.14,0,0,1-.14-.14V158a.12.12,0,0,1,0-.1.14.14,0,0,1,.1,0h1.4a.16.16,0,0,1,.11,0,.15.15,0,0,1,0,.1v.45a.06.06,0,0,0,0,0s0,0,0,0a1.53,1.53,0,0,1,1.32-.72A1.14,1.14,0,0,1,316.57,158Z" transform="translate(0 -1.44)" fill="#393d4f"/><path d="M317.65,156.9a.93.93,0,0,1-.27-.68.89.89,0,0,1,.26-.68,1,1,0,0,1,1.37,0,1,1,0,0,1,0,1.36,1,1,0,0,1-1.35,0ZM317.5,164a.13.13,0,0,1,0-.1V158a.15.15,0,0,1,0-.11.18.18,0,0,1,.11,0H319a.18.18,0,0,1,.1,0,.15.15,0,0,1,0,.11v5.89a.14.14,0,0,1-.14.14h-1.4A.14.14,0,0,1,317.5,164Z" transform="translate(0 -1.44)" fill="#393d4f"/><path d="M324,159.18a.13.13,0,0,1-.1,0h-1.15a.05.05,0,0,0-.06.06v2.54a.89.89,0,0,0,.16.59.64.64,0,0,0,.52.19h.4a.14.14,0,0,1,.1.05.12.12,0,0,1,0,.1v1.14a.14.14,0,0,1-.14.15l-.72,0a2.7,2.7,0,0,1-1.49-.33,1.42,1.42,0,0,1-.51-1.24v-3.22a.05.05,0,0,0-.06-.06h-.68a.14.14,0,0,1-.14-.14V158a.12.12,0,0,1,0-.1.14.14,0,0,1,.1,0H321a.05.05,0,0,0,.06-.06v-1.42a.14.14,0,0,1,.05-.11.15.15,0,0,1,.1,0h1.34a.15.15,0,0,1,.1,0,.14.14,0,0,1,.05.11v1.42a.05.05,0,0,0,.06.06h1.15a.14.14,0,0,1,.1,0,.12.12,0,0,1,0,.1v1.07A.13.13,0,0,1,324,159.18Z" transform="translate(0 -1.44)" fill="#393d4f"/><path d="M324.94,166.38a.17.17,0,0,1,0-.1v-1.11a.18.18,0,0,1,0-.1.15.15,0,0,1,.11,0,3.94,3.94,0,0,0,.8-.09.82.82,0,0,0,.46-.27,1.39,1.39,0,0,0,.27-.6.08.08,0,0,0,0-.07l-2-6s0,0,0-.06.05-.11.13-.11h1.5a.16.16,0,0,1,.17.12l1,3.89s0,0,0,0,0,0,0,0l1-3.89a.16.16,0,0,1,.17-.12h1.46a.13.13,0,0,1,.1,0,.14.14,0,0,1,0,.13l-2.08,6.24a5.22,5.22,0,0,1-.61,1.31,1.72,1.72,0,0,1-.87.64,4.79,4.79,0,0,1-1.6.21H325A.05.05,0,0,1,324.94,166.38Z" transform="translate(0 -1.44)" fill="#393d4f"/><path d="M364.13,144.56a.15.15,0,0,1,0,.11v1.16a.14.14,0,0,1-.14.14h-1.65a.05.05,0,0,0-.06.06v1.62a.15.15,0,0,1,0,.11.18.18,0,0,1-.1,0H361a.15.15,0,0,1-.1,0,.16.16,0,0,1-.05-.11V146a.05.05,0,0,0-.06-.06h-1.64a.13.13,0,0,1-.1,0,.14.14,0,0,1-.05-.1v-1.16a.16.16,0,0,1,.05-.11.18.18,0,0,1,.1,0h1.64a.05.05,0,0,0,.06-.06v-1.65a.16.16,0,0,1,.05-.11.15.15,0,0,1,.1,0h1.15a.18.18,0,0,1,.1,0,.15.15,0,0,1,0,.11v1.65a.05.05,0,0,0,.06.06H364A.18.18,0,0,1,364.13,144.56Z" transform="translate(0 -1.44)" fill="#9365ab"/><path d="M366.5,140.45H368a.18.18,0,0,1,.15.15v8.11a.14.14,0,0,1-.05.1.12.12,0,0,1-.1,0h-1.4a.15.15,0,0,1-.11,0,.18.18,0,0,1,0-.1v-6.58a0,0,0,0,0,0,0,.06.06,0,0,0-.05,0l-1.19.33h0c-.08,0-.11,0-.11-.13l0-1a.18.18,0,0,1,.11-.17l1.26-.59A.4.4,0,0,1,366.5,140.45Z" transform="translate(0 -1.44)" fill="#9365ab"/><path d="M344.33,163a2.44,2.44,0,0,1-1.11-.87,2.29,2.29,0,0,1-.39-1.33v-.26a.12.12,0,0,1,0-.1.14.14,0,0,1,.1,0h1.37a.18.18,0,0,1,.15.15v.18a1,1,0,0,0,.44.81,2,2,0,0,0,1.2.33,1.44,1.44,0,0,0,.95-.27.84.84,0,0,0,.31-.67.65.65,0,0,0-.19-.48,1.58,1.58,0,0,0-.52-.35q-.33-.15-1.05-.42a10.42,10.42,0,0,1-1.37-.56,2.62,2.62,0,0,1-.93-.79,2,2,0,0,1-.38-1.23,2.15,2.15,0,0,1,.37-1.26,2.34,2.34,0,0,1,1-.82,3.67,3.67,0,0,1,1.53-.29,3.93,3.93,0,0,1,1.62.32,2.67,2.67,0,0,1,1.12.91,2.31,2.31,0,0,1,.4,1.35v.18a.14.14,0,0,1-.14.14H347.5a.12.12,0,0,1-.1,0,.14.14,0,0,1,0-.1v-.1a1.09,1.09,0,0,0-.41-.86,1.72,1.72,0,0,0-1.13-.35,1.47,1.47,0,0,0-.89.24.78.78,0,0,0-.31.66.71.71,0,0,0,.18.5,1.7,1.7,0,0,0,.55.37c.25.11.63.25,1.14.44s1,.39,1.34.55a2.75,2.75,0,0,1,.87.71,1.89,1.89,0,0,1,.39,1.23,2.14,2.14,0,0,1-.83,1.79,3.55,3.55,0,0,1-2.24.65A4.16,4.16,0,0,1,344.33,163Z" transform="translate(0 -1.44)" fill="#393d4f"/><path d="M353.66,158.4a.13.13,0,0,1-.1,0h-1.15a.05.05,0,0,0-.06.06v2.55a.86.86,0,0,0,.16.58.64.64,0,0,0,.52.2h.4a.14.14,0,0,1,.14.14v1.14a.15.15,0,0,1-.14.16l-.72,0a2.7,2.7,0,0,1-1.49-.33,1.41,1.41,0,0,1-.51-1.24V158.5a.05.05,0,0,0-.06-.06H350a.14.14,0,0,1-.14-.14v-1.07a.14.14,0,0,1,.14-.14h.68a.05.05,0,0,0,.06-.06V155.6a.18.18,0,0,1,.15-.15h1.34a.18.18,0,0,1,.15.15V157a.05.05,0,0,0,.06.06h1.15a.14.14,0,0,1,.14.14v1.07A.13.13,0,0,1,353.66,158.4Z" transform="translate(0 -1.44)" fill="#393d4f"/><path d="M355.72,162.82a2.65,2.65,0,0,1-1-1.44,4.29,4.29,0,0,1-.16-1.22,4.5,4.5,0,0,1,.16-1.27,2.62,2.62,0,0,1,1-1.4,3,3,0,0,1,1.73-.5,2.85,2.85,0,0,1,1.68.5,2.64,2.64,0,0,1,1,1.38,4,4,0,0,1,.19,1.26,4.34,4.34,0,0,1-.16,1.22,2.77,2.77,0,0,1-1,1.47,3.07,3.07,0,0,1-3.45,0Zm2.4-1.16a1.36,1.36,0,0,0,.39-.66,3.22,3.22,0,0,0,.1-.84,3,3,0,0,0-.1-.85,1.26,1.26,0,0,0-.4-.64,1.05,1.05,0,0,0-.68-.23,1,1,0,0,0-.67.23,1.2,1.2,0,0,0-.4.64,3,3,0,0,0-.09.85,3.6,3.6,0,0,0,.08.84,1.31,1.31,0,0,0,.41.66,1,1,0,0,0,.68.24A1,1,0,0,0,358.12,161.66Z" transform="translate(0 -1.44)" fill="#393d4f"/><path d="M367.13,160.18a4.72,4.72,0,0,1-.23,1.5,2.54,2.54,0,0,1-.87,1.22,2.34,2.34,0,0,1-1.47.45,1.62,1.62,0,0,1-1.34-.6s0,0-.05,0,0,0,0,0v2.57a.18.18,0,0,1-.15.15h-1.4a.18.18,0,0,1-.15-.15v-8.11a.14.14,0,0,1,.05-.1.12.12,0,0,1,.1,0H363a.12.12,0,0,1,.1,0,.14.14,0,0,1,0,.1v.4s0,0,0,0a.06.06,0,0,0,.05,0,1.65,1.65,0,0,1,1.39-.66,2.27,2.27,0,0,1,1.43.46,2.48,2.48,0,0,1,.87,1.29A4.19,4.19,0,0,1,367.13,160.18Zm-1.75,0a2.49,2.49,0,0,0-.25-1.2.93.93,0,0,0-.89-.52.88.88,0,0,0-.83.52,2.4,2.4,0,0,0-.25,1.21,2.53,2.53,0,0,0,.26,1.25.9.9,0,0,0,.82.48,1,1,0,0,0,.84-.47A2.34,2.34,0,0,0,365.38,160.16Z" transform="translate(0 -1.44)" fill="#393d4f"/><path d="M375.71,159a2,2,0,0,1,1.14,2,2.06,2.06,0,0,1-.79,1.76,3.35,3.35,0,0,1-2.08.59h-3.11a.14.14,0,0,1-.14-.14V155a.12.12,0,0,1,0-.1.14.14,0,0,1,.1-.05h3c1.89,0,2.84.77,2.84,2.31a1.77,1.77,0,0,1-1,1.71S375.66,158.92,375.71,159Zm-3.29-2.58v1.87a.05.05,0,0,0,.06.06h1.41a1.29,1.29,0,0,0,.87-.27.87.87,0,0,0,.31-.72.9.9,0,0,0-.31-.73,1.29,1.29,0,0,0-.87-.27h-1.41A.05.05,0,0,0,372.42,156.37Zm2.43,5.14a1.12,1.12,0,0,0,0-1.55,1.26,1.26,0,0,0-.88-.28h-1.49a.05.05,0,0,0-.06.06v2a.05.05,0,0,0,.06.06H374A1.25,1.25,0,0,0,374.85,161.51Z" transform="translate(0 -1.44)" fill="#393d4f"/><path d="M378.3,156.12a1,1,0,0,1,0-1.36.91.91,0,0,1,.68-.27,1,1,0,1,1,0,1.9A.9.9,0,0,1,378.3,156.12Zm-.15,7.09a.13.13,0,0,1,0-.1v-5.89a.12.12,0,0,1,0-.1.14.14,0,0,1,.1-.05h1.41a.14.14,0,0,1,.1.05.12.12,0,0,1,0,.1v5.89a.14.14,0,0,1-.14.14h-1.41A.13.13,0,0,1,378.15,163.21Z" transform="translate(0 -1.44)" fill="#393d4f"/><path d="M384.62,158.4a.13.13,0,0,1-.1,0h-1.15a.05.05,0,0,0-.06.06v2.55a.86.86,0,0,0,.16.58.64.64,0,0,0,.52.2h.4a.14.14,0,0,1,.14.14v1.14a.15.15,0,0,1-.14.16l-.72,0a2.7,2.7,0,0,1-1.49-.33,1.41,1.41,0,0,1-.51-1.24V158.5a.05.05,0,0,0-.06-.06h-.68a.14.14,0,0,1-.14-.14v-1.07a.14.14,0,0,1,.14-.14h.68a.05.05,0,0,0,.06-.06V155.6a.18.18,0,0,1,.15-.15h1.34a.18.18,0,0,1,.15.15V157a.05.05,0,0,0,.06.06h1.15a.14.14,0,0,1,.14.14v1.07A.13.13,0,0,1,384.62,158.4Z" transform="translate(0 -1.44)" fill="#393d4f"/><path d="M157.81,1.84a.13.13,0,0,1,0,.1V3.12a.14.14,0,0,1-.14.14h-2.15a.05.05,0,0,0-.06.06v6.74a.14.14,0,0,1-.14.14H154a.14.14,0,0,1-.14-.14V3.32a.05.05,0,0,0-.06-.06h-2.09a.14.14,0,0,1-.14-.14V1.94a.14.14,0,0,1,.14-.14h6.05A.13.13,0,0,1,157.81,1.84Z" transform="translate(0 -1.44)" fill="#393d4f"/><path d="M162.58,4.12c.07,0,.09.09.07.18l-.25,1.36c0,.1-.06.13-.17.09a1.33,1.33,0,0,0-.42-.06l-.26,0a1.19,1.19,0,0,0-.73.32,1,1,0,0,0-.3.75v3.28a.18.18,0,0,1,0,.1.15.15,0,0,1-.11,0H159a.14.14,0,0,1-.14-.14V4.18a.15.15,0,0,1,0-.11.18.18,0,0,1,.1,0h1.4a.21.21,0,0,1,.11,0,.21.21,0,0,1,0,.11v.45a.06.06,0,0,0,0,0s0,0,0,0A1.53,1.53,0,0,1,161.9,4,1.14,1.14,0,0,1,162.58,4.12Z" transform="translate(0 -1.44)" fill="#393d4f"/><path d="M167.27,4.21a2.32,2.32,0,0,1,1,.73,1.73,1.73,0,0,1,.34,1v4.07a.14.14,0,0,1-.14.14H167a.14.14,0,0,1-.14-.14v-.4a.05.05,0,0,0,0-.05s0,0,0,0a1.92,1.92,0,0,1-1.62.66,2.41,2.41,0,0,1-1.52-.46,1.61,1.61,0,0,1-.57-1.34,1.71,1.71,0,0,1,.65-1.44,2.9,2.9,0,0,1,1.84-.51h1.23a.05.05,0,0,0,.06-.06V6.23a.8.8,0,0,0-.24-.62,1,1,0,0,0-.72-.22,1.27,1.27,0,0,0-.62.13.64.64,0,0,0-.32.37q0,.14-.15.12l-1.46-.19c-.09,0-.14-.05-.13-.11a1.63,1.63,0,0,1,.4-.91,2.49,2.49,0,0,1,.94-.64,3.58,3.58,0,0,1,1.3-.22A3.38,3.38,0,0,1,167.27,4.21Zm-.75,4.55a.85.85,0,0,0,.36-.71V7.62a.05.05,0,0,0-.06-.06H166a1.53,1.53,0,0,0-.84.2.65.65,0,0,0-.31.58.62.62,0,0,0,.23.51,1,1,0,0,0,.61.19A1.42,1.42,0,0,0,166.52,8.76Z" transform="translate(0 -1.44)" fill="#393d4f"/><path d="M174.52,4.52a2.19,2.19,0,0,1,.59,1.6v3.94a.14.14,0,0,1-.14.14h-1.41a.14.14,0,0,1-.14-.14V6.47a1.12,1.12,0,0,0-.27-.78,1,1,0,0,0-1.43,0,1.12,1.12,0,0,0-.27.78v3.59a.14.14,0,0,1-.14.14H169.9a.14.14,0,0,1-.14-.14V4.18a.15.15,0,0,1,0-.11.18.18,0,0,1,.1,0h1.41a.18.18,0,0,1,.1,0,.15.15,0,0,1,0,.11V4.6s0,0,0,0,0,0,0,0A1.69,1.69,0,0,1,173,3.94,2.1,2.1,0,0,1,174.52,4.52Z" transform="translate(0 -1.44)" fill="#393d4f"/><path d="M177.38,10.06a2.23,2.23,0,0,1-.93-.64,1.42,1.42,0,0,1-.33-.92V8.38a.15.15,0,0,1,0-.11.18.18,0,0,1,.1,0h1.33a.14.14,0,0,1,.15.15h0a.56.56,0,0,0,.29.45,1.4,1.4,0,0,0,.74.18,1.2,1.2,0,0,0,.66-.16.46.46,0,0,0,.25-.4.34.34,0,0,0-.21-.32,3.26,3.26,0,0,0-.71-.23,7.43,7.43,0,0,1-.89-.28A3.59,3.59,0,0,1,176.65,7a1.33,1.33,0,0,1-.46-1.1,1.68,1.68,0,0,1,.69-1.41A2.94,2.94,0,0,1,178.71,4a3.45,3.45,0,0,1,1.34.24,2.13,2.13,0,0,1,.9.69,1.73,1.73,0,0,1,.32,1,.18.18,0,0,1-.15.15h-1.28a.18.18,0,0,1-.15-.15.53.53,0,0,0-.27-.44,1.24,1.24,0,0,0-.71-.18,1.39,1.39,0,0,0-.65.14.44.44,0,0,0-.25.4.38.38,0,0,0,.25.36,4.11,4.11,0,0,0,.82.25l.3.08.36.1a3.81,3.81,0,0,1,1.34.65,1.38,1.38,0,0,1,.49,1.15,1.62,1.62,0,0,1-.7,1.39,3.23,3.23,0,0,1-1.89.49A4,4,0,0,1,177.38,10.06Z" transform="translate(0 -1.44)" fill="#393d4f"/><path d="M190.65,4.5a2.23,2.23,0,0,1,.53,1.58v4a.18.18,0,0,1,0,.1.15.15,0,0,1-.11,0h-1.4a.14.14,0,0,1-.14-.14V6.46a1.13,1.13,0,0,0-.26-.78.81.81,0,0,0-.67-.29.84.84,0,0,0-.68.29,1.05,1.05,0,0,0-.27.76v3.62a.14.14,0,0,1-.14.14h-1.39a.12.12,0,0,1-.1,0,.14.14,0,0,1,0-.1V6.46a1.12,1.12,0,0,0-.26-.78.89.89,0,0,0-.68-.29.93.93,0,0,0-.65.23.94.94,0,0,0-.3.63v3.81a.18.18,0,0,1,0,.1.15.15,0,0,1-.11,0h-1.4a.14.14,0,0,1-.14-.14V4.18a.15.15,0,0,1,0-.11.18.18,0,0,1,.1,0h1.4a.21.21,0,0,1,.11,0,.21.21,0,0,1,0,.11v.46a.06.06,0,0,0,0,.05s0,0,.05,0a1.71,1.71,0,0,1,1.52-.73,2.09,2.09,0,0,1,1.05.25,1.71,1.71,0,0,1,.69.72s.06,0,.09,0a1.67,1.67,0,0,1,.71-.73,2.13,2.13,0,0,1,1-.24A1.88,1.88,0,0,1,190.65,4.5Z" transform="translate(0 -1.44)" fill="#393d4f"/><path d="M192.6,3.07a.93.93,0,0,1-.27-.68,1,1,0,0,1,.26-.69,1,1,0,0,1,.69-.26.91.91,0,0,1,.95,1,1,1,0,0,1-1.63.68Zm-.14,7.09a.14.14,0,0,1-.05-.1V4.16a.14.14,0,0,1,.05-.1.12.12,0,0,1,.1,0H194a.12.12,0,0,1,.1,0,.14.14,0,0,1,.05.1v5.9a.14.14,0,0,1-.05.1.12.12,0,0,1-.1,0h-1.4A.12.12,0,0,1,192.46,10.16Z" transform="translate(0 -1.44)" fill="#393d4f"/><path d="M198.92,5.35a.15.15,0,0,1-.1,0h-1.15a.05.05,0,0,0-.06.06V8a.89.89,0,0,0,.16.59.64.64,0,0,0,.52.19h.4a.18.18,0,0,1,.1,0,.15.15,0,0,1,0,.11v1.14a.14.14,0,0,1-.14.15l-.72,0a2.72,2.72,0,0,1-1.49-.33,1.43,1.43,0,0,1-.5-1.25V5.45a.05.05,0,0,0-.06-.06h-.69a.18.18,0,0,1-.1,0,.15.15,0,0,1,0-.11V4.18a.15.15,0,0,1,0-.11.18.18,0,0,1,.1,0h.69A.05.05,0,0,0,196,4V2.54a.14.14,0,0,1,.14-.14h1.35a.14.14,0,0,1,.14.14V4a.05.05,0,0,0,.06.06h1.15a.15.15,0,0,1,.1,0,.16.16,0,0,1,.05.11V5.24A.16.16,0,0,1,198.92,5.35Z" transform="translate(0 -1.44)" fill="#393d4f"/><path d="M203.48,5.35a.15.15,0,0,1-.1,0h-1.15a.05.05,0,0,0-.06.06V8a.89.89,0,0,0,.16.59.64.64,0,0,0,.52.19h.4a.18.18,0,0,1,.1,0,.15.15,0,0,1,0,.11v1.14a.14.14,0,0,1-.14.15l-.72,0A2.72,2.72,0,0,1,201,9.91a1.43,1.43,0,0,1-.5-1.25V5.45a.05.05,0,0,0-.06-.06h-.69a.18.18,0,0,1-.1,0,.15.15,0,0,1,0-.11V4.18a.15.15,0,0,1,0-.11.18.18,0,0,1,.1,0h.69a.05.05,0,0,0,.06-.06V2.54a.14.14,0,0,1,.14-.14H202a.14.14,0,0,1,.14.14V4a.05.05,0,0,0,.06.06h1.15a.15.15,0,0,1,.1,0,.16.16,0,0,1,.05.11V5.24A.16.16,0,0,1,203.48,5.35Z" transform="translate(0 -1.44)" fill="#393d4f"/><path d="M204.78,3.07a.93.93,0,0,1-.27-.68,1,1,0,0,1,.26-.69,1,1,0,0,1,.69-.26.91.91,0,0,1,.95,1,1,1,0,0,1-1.63.68Zm-.14,7.09a.14.14,0,0,1,0-.1V4.16a.14.14,0,0,1,0-.1.12.12,0,0,1,.1,0h1.4a.12.12,0,0,1,.1,0,.14.14,0,0,1,0,.1v5.9a.14.14,0,0,1,0,.1.12.12,0,0,1-.1,0h-1.4A.12.12,0,0,1,204.64,10.16Z" transform="translate(0 -1.44)" fill="#393d4f"/><path d="M212.37,4.52a2.19,2.19,0,0,1,.59,1.6v3.94a.18.18,0,0,1,0,.1.15.15,0,0,1-.11,0h-1.4a.14.14,0,0,1-.14-.14V6.47a1.12,1.12,0,0,0-.27-.78,1,1,0,0,0-1.43,0,1.12,1.12,0,0,0-.27.78v3.59a.18.18,0,0,1,0,.1.15.15,0,0,1-.11,0h-1.4a.14.14,0,0,1-.14-.14V4.18a.15.15,0,0,1,0-.11.18.18,0,0,1,.1,0h1.4a.21.21,0,0,1,.11,0,.21.21,0,0,1,0,.11V4.6s0,0,0,0,0,0,0,0a1.67,1.67,0,0,1,1.46-.69A2.1,2.1,0,0,1,212.37,4.52Z" transform="translate(0 -1.44)" fill="#393d4f"/><path d="M218,4.07a.18.18,0,0,1,.1,0h1.41a.18.18,0,0,1,.1,0,.15.15,0,0,1,0,.11V9.65a2.59,2.59,0,0,1-.91,2.24,3.79,3.79,0,0,1-2.33.67,8.32,8.32,0,0,1-.94-.06c-.08,0-.12-.06-.12-.15l0-1.24c0-.1.06-.15.17-.13a4.62,4.62,0,0,0,.79.07,1.84,1.84,0,0,0,1.18-.33,1.32,1.32,0,0,0,.42-1.08,0,0,0,0,0,0-.05l0,0a1.74,1.74,0,0,1-1.34.49,2.82,2.82,0,0,1-1.43-.37,2.09,2.09,0,0,1-.93-1.22A4.75,4.75,0,0,1,214,7.08a4.33,4.33,0,0,1,.22-1.52,2.36,2.36,0,0,1,.85-1.18,2.24,2.24,0,0,1,1.39-.44,1.8,1.8,0,0,1,1.42.55l0,0a0,0,0,0,0,0,0V4.18A.15.15,0,0,1,218,4.07Zm0,3a4.3,4.3,0,0,0,0-.58,1.61,1.61,0,0,0-.08-.38,1,1,0,0,0-.36-.52,1.06,1.06,0,0,0-1.24,0,1.18,1.18,0,0,0-.37.52,2.34,2.34,0,0,0-.17,1,2.21,2.21,0,0,0,.15,1,1,1,0,0,0,.38.52,1.06,1.06,0,0,0,.64.2,1,1,0,0,0,.63-.2,1,1,0,0,0,.35-.51A3.68,3.68,0,0,0,217.94,7.07Z" transform="translate(0 -1.44)" fill="#393d4f"/><path d="M224.77,9.94a2.62,2.62,0,0,1-1.09-1,2.87,2.87,0,0,1-.39-1.5V1.94a.14.14,0,0,1,.14-.14h1.41a.14.14,0,0,1,.14.14V7.43a1.42,1.42,0,1,0,2.83,0V1.94a.14.14,0,0,1,.05-.1.12.12,0,0,1,.1,0h1.4a.12.12,0,0,1,.1,0,.14.14,0,0,1,0,.1V7.42a2.87,2.87,0,0,1-.39,1.5,2.65,2.65,0,0,1-1.1,1,3.48,3.48,0,0,1-1.62.36A3.53,3.53,0,0,1,224.77,9.94Z" transform="translate(0 -1.44)" fill="#393d4f"/><path d="M236.08,10.08l-.36-1.18a.05.05,0,0,0-.06,0h-2.95a.07.07,0,0,0-.06,0l-.35,1.18a.14.14,0,0,1-.15.12h-1.53a.14.14,0,0,1-.11,0,.18.18,0,0,1,0-.13l2.59-8.11a.16.16,0,0,1,.16-.12h1.88a.15.15,0,0,1,.16.12L237.88,10a.13.13,0,0,1,0,.06c0,.07,0,.11-.13.11h-1.52A.16.16,0,0,1,236.08,10.08Zm-3-2.53h2.11s.07,0,0-.07l-1.08-3.57s0,0,0,0,0,0,0,0l-1.06,3.57A.05.05,0,0,0,233.13,7.55Z" transform="translate(0 -1.44)" fill="#393d4f"/><path d="M243.39,10.09l-1.5-3.32s0,0-.07,0H240.7a.05.05,0,0,0-.06.06v3.28a.14.14,0,0,1-.14.14h-1.41a.14.14,0,0,1-.14-.14V1.94a.14.14,0,0,1,.14-.14h3.44a2.8,2.8,0,0,1,1.35.31,2.33,2.33,0,0,1,.9.89,2.72,2.72,0,0,1,.31,1.33,2.38,2.38,0,0,1-.4,1.4,2.22,2.22,0,0,1-1.14.82s-.06,0,0,.09L245.14,10a.17.17,0,0,1,0,.07c0,.07,0,.1-.14.1h-1.47A.18.18,0,0,1,243.39,10.09Zm-2.75-6.78V5.36a.05.05,0,0,0,.06.06h1.57a1.18,1.18,0,0,0,.83-.3,1,1,0,0,0,.31-.78,1,1,0,0,0-.31-.78,1.14,1.14,0,0,0-.83-.31H240.7A.05.05,0,0,0,240.64,3.31Z" transform="translate(0 -1.44)" fill="#393d4f"/><path d="M252.22,1.84a.18.18,0,0,1,0,.1V3.12a.18.18,0,0,1,0,.1.15.15,0,0,1-.11,0H250a.05.05,0,0,0-.06.06v6.74a.14.14,0,0,1,0,.1.12.12,0,0,1-.1,0h-1.4a.12.12,0,0,1-.1,0,.14.14,0,0,1,0-.1V3.32a.05.05,0,0,0-.06-.06h-2.08a.15.15,0,0,1-.11,0,.18.18,0,0,1,0-.1V1.94a.18.18,0,0,1,0-.1.15.15,0,0,1,.11,0h6A.15.15,0,0,1,252.22,1.84Z" transform="translate(0 -1.44)" fill="#393d4f"/><rect x="81.7" y="102.74" width="8.4" height="8.4" fill="#9365ab" stroke="#9365ab" stroke-miterlimit="10" stroke-width="2"/><rect x="269.1" y="102.74" width="8.4" height="8.4" fill="#9365ab" stroke="#9365ab" stroke-miterlimit="10" stroke-width="2"/><rect x="292.87" y="102.74" width="8.4" height="8.4" fill="#9365ab" stroke="#9365ab" stroke-miterlimit="10" stroke-width="2"/><line x1="48.05" y1="137.8" x2="78.86" y2="113.76" fill="none" stroke="#393d4f" stroke-width="1.5"/><polygon points="79.11 118.09 87.53 106.94 74.67 112.39 79.11 118.09" fill="#393d4f"/><line x1="310.93" y1="137.8" x2="280.12" y2="113.76" fill="none" stroke="#393d4f" stroke-width="1.5"/><polygon points="279.87 118.09 271.45 106.94 284.32 112.39 279.87 118.09" fill="#393d4f"/><line x1="360.71" y1="137.17" x2="307.42" y2="112.15" fill="none" stroke="#393d4f" stroke-width="1.5"/><polygon points="308.13 116.43 297.45 107.42 311.21 109.89 308.13 116.43" fill="#393d4f"/></svg>