<svg id="a0362303-1541-4e00-9e5b-cc54f13871c7" data-name="Layer 1" xmlns="http://www.w3.org/2000/svg" width="4.97in" height="5.59in" viewBox="0 0 357.69 402.19"><rect x="247.96" y="43.96" width="108.98" height="344.34" rx="6.24" fill="#f8a68c"/><rect x="247.96" y="43.96" width="108.98" height="344.34" rx="6.24" fill="none" stroke="#393d4f" stroke-miterlimit="8" stroke-width="1.5"/><path d="M279.7,39.27a.13.13,0,0,1,0-.1V31.05a.14.14,0,0,1,.14-.14h3a3.71,3.71,0,0,1,1.58.32,2.49,2.49,0,0,1,1.05.89,2.38,2.38,0,0,1,.37,1.33v3.32a2.4,2.4,0,0,1-.37,1.33,2.49,2.49,0,0,1-1.05.89,3.71,3.71,0,0,1-1.58.32h-3A.13.13,0,0,1,279.7,39.27Zm1.71-1.41h1.45a1.17,1.17,0,0,0,.9-.38,1.47,1.47,0,0,0,.35-1V33.73a1.41,1.41,0,0,0-.34-1,1.23,1.23,0,0,0-.92-.37h-1.44a.05.05,0,0,0-.06.06V37.8A.05.05,0,0,0,281.41,37.86Z" transform="translate(0 -1.44)" fill="#393d4f"/><path d="M290.82,33.31a2.46,2.46,0,0,1,.95.74,1.73,1.73,0,0,1,.34,1.05v4.07a.14.14,0,0,1-.14.14h-1.41a.14.14,0,0,1-.14-.14v-.4a.08.08,0,0,0,0-.05s0,0,0,0a1.92,1.92,0,0,1-1.62.66,2.36,2.36,0,0,1-1.51-.46,1.59,1.59,0,0,1-.58-1.35,1.73,1.73,0,0,1,.65-1.43,2.93,2.93,0,0,1,1.85-.51h1.22a.05.05,0,0,0,.06-.06v-.26a.8.8,0,0,0-.24-.62,1,1,0,0,0-.72-.22,1.29,1.29,0,0,0-.62.13.64.64,0,0,0-.32.37q0,.14-.15.12l-1.45-.19c-.1,0-.14,0-.13-.11a1.54,1.54,0,0,1,.4-.91,2.37,2.37,0,0,1,.93-.64,3.78,3.78,0,0,1,2.7,0Zm-.76,4.56a.85.85,0,0,0,.36-.71v-.43a.05.05,0,0,0-.06-.06h-.86a1.57,1.57,0,0,0-.85.2.67.67,0,0,0-.31.58.63.63,0,0,0,.23.51,1,1,0,0,0,.61.19A1.42,1.42,0,0,0,290.06,37.87Z" transform="translate(0 -1.44)" fill="#393d4f"/><path d="M296.8,34.46a.18.18,0,0,1-.1,0h-1.15s-.07,0-.07.06V37.1a.88.88,0,0,0,.17.59.64.64,0,0,0,.52.19h.39a.14.14,0,0,1,.15.14v1.15a.15.15,0,0,1-.15.15l-.72,0a2.66,2.66,0,0,1-1.48-.33,1.44,1.44,0,0,1-.51-1.25V34.56a.05.05,0,0,0-.06-.06h-.68a.18.18,0,0,1-.1,0,.15.15,0,0,1,0-.11V33.29a.15.15,0,0,1,0-.11.18.18,0,0,1,.1,0h.68a.05.05,0,0,0,.06-.06V31.65a.18.18,0,0,1,0-.1.15.15,0,0,1,.11,0h1.34a.12.12,0,0,1,.1,0,.13.13,0,0,1,0,.1v1.43s0,.06.07.06h1.15a.18.18,0,0,1,.1,0,.15.15,0,0,1,0,.11v1.06A.15.15,0,0,1,296.8,34.46Z" transform="translate(0 -1.44)" fill="#393d4f"/><path d="M301.71,33.31a2.42,2.42,0,0,1,1,.74A1.8,1.8,0,0,1,303,35.1v4.07a.18.18,0,0,1,0,.1.15.15,0,0,1-.11,0h-1.4a.14.14,0,0,1-.14-.14v-.4a.05.05,0,0,0,0-.05s0,0-.05,0a1.89,1.89,0,0,1-1.62.66,2.4,2.4,0,0,1-1.51-.46,1.62,1.62,0,0,1-.57-1.35,1.72,1.72,0,0,1,.64-1.43,3,3,0,0,1,1.85-.51h1.23a.05.05,0,0,0,.06-.06v-.26a.8.8,0,0,0-.24-.62,1,1,0,0,0-.72-.22,1.27,1.27,0,0,0-.62.13.61.61,0,0,0-.32.37.14.14,0,0,1-.16.12l-1.45-.19c-.09,0-.14,0-.13-.11a1.6,1.6,0,0,1,.4-.91,2.49,2.49,0,0,1,.94-.64,3.75,3.75,0,0,1,2.69,0ZM301,37.87a.85.85,0,0,0,.36-.71v-.43a.05.05,0,0,0-.06-.06h-.87a1.53,1.53,0,0,0-.84.2.65.65,0,0,0-.31.58.63.63,0,0,0,.23.51,1,1,0,0,0,.61.19A1.44,1.44,0,0,0,301,37.87Z" transform="translate(0 -1.44)" fill="#393d4f"/><path d="M311.68,35a2.29,2.29,0,0,1,.35,3.71,3.33,3.33,0,0,1-2.07.6h-3.11a.12.12,0,0,1-.1,0,.13.13,0,0,1,0-.1V31.05a.13.13,0,0,1,0-.1.12.12,0,0,1,.1,0h3c1.9,0,2.85.77,2.85,2.3a1.79,1.79,0,0,1-1,1.72S311.64,35,311.68,35Zm-3.28-2.58v1.87a.05.05,0,0,0,.06.06h1.4a1.3,1.3,0,0,0,.88-.26.93.93,0,0,0,.31-.72,1,1,0,0,0-.31-.74,1.3,1.3,0,0,0-.88-.27h-1.4A.05.05,0,0,0,308.4,32.42Zm2.42,5.14a1.11,1.11,0,0,0,0-1.54,1.26,1.26,0,0,0-.88-.29h-1.48a.05.05,0,0,0-.06.06v2a.05.05,0,0,0,.06.06H310A1.24,1.24,0,0,0,310.82,37.56Z" transform="translate(0 -1.44)" fill="#393d4f"/><path d="M317.68,33.18a.18.18,0,0,1,.1,0h1.4a.14.14,0,0,1,.15.15v5.88a.18.18,0,0,1,0,.1.15.15,0,0,1-.11,0h-1.4a.14.14,0,0,1-.14-.14v-.41a0,0,0,0,0,0,0s0,0-.05,0a1.72,1.72,0,0,1-1.48.64,2.09,2.09,0,0,1-1.5-.55,2,2,0,0,1-.59-1.55v-4a.15.15,0,0,1,0-.11.18.18,0,0,1,.1,0h1.39a.14.14,0,0,1,.15.15v3.58a1.12,1.12,0,0,0,.26.78.89.89,0,0,0,.71.3,1,1,0,0,0,.67-.24,1.07,1.07,0,0,0,.33-.65V33.29A.15.15,0,0,1,317.68,33.18Z" transform="translate(0 -1.44)" fill="#393d4f"/><path d="M321.63,39.17a2.23,2.23,0,0,1-.93-.64,1.43,1.43,0,0,1-.33-.93v-.12a.21.21,0,0,1,0-.1.15.15,0,0,1,.11,0h1.33a.13.13,0,0,1,.1,0,.14.14,0,0,1,0,.1v0a.55.55,0,0,0,.3.45,1.36,1.36,0,0,0,.73.18,1.15,1.15,0,0,0,.66-.16.48.48,0,0,0,.26-.4.35.35,0,0,0-.22-.32A3.08,3.08,0,0,0,323,37a8.07,8.07,0,0,1-.89-.28,3.59,3.59,0,0,1-1.22-.65,1.36,1.36,0,0,1-.46-1.1,1.68,1.68,0,0,1,.69-1.41,2.94,2.94,0,0,1,1.83-.52,3.5,3.5,0,0,1,1.35.24,2.16,2.16,0,0,1,.89.69,1.73,1.73,0,0,1,.32,1,.12.12,0,0,1,0,.1.14.14,0,0,1-.1,0h-1.29a.14.14,0,0,1-.1,0,.12.12,0,0,1,0-.1.53.53,0,0,0-.27-.44,1.28,1.28,0,0,0-.72-.18,1.32,1.32,0,0,0-.64.14.45.45,0,0,0-.26.4.39.39,0,0,0,.25.36,4.34,4.34,0,0,0,.82.25l.3.08.36.1a3.86,3.86,0,0,1,1.35.65,1.4,1.4,0,0,1,.49,1.15,1.64,1.64,0,0,1-.7,1.39,3.23,3.23,0,0,1-1.89.49A4,4,0,0,1,321.63,39.17Z" transform="translate(0 -1.44)" fill="#393d4f"/><path d="M297.6,61.55a2.66,2.66,0,0,1-.77-2V56.37a2.62,2.62,0,0,1,.77-2,3.36,3.36,0,0,1,4.18,0,2.59,2.59,0,0,1,.78,2v3.17a2.63,2.63,0,0,1-.78,2,3.32,3.32,0,0,1-4.18,0Zm2.95-1a1.21,1.21,0,0,0,.31-.88v-3.3a1.21,1.21,0,0,0-.31-.88,1.15,1.15,0,0,0-.86-.33,1.13,1.13,0,0,0-.85.33,1.22,1.22,0,0,0-.32.88v3.3a1.22,1.22,0,0,0,.32.88,1.13,1.13,0,0,0,.85.33A1.15,1.15,0,0,0,300.55,60.5Z" transform="translate(0 -1.44)" fill="#393d4f"/><path d="M299.56,93.51H301a.18.18,0,0,1,.1,0,.15.15,0,0,1,0,.11v8.11a.14.14,0,0,1-.14.14H299.6a.14.14,0,0,1-.14-.14V95.19l0,0s0,0-.05,0l-1.19.33h-.05c-.07,0-.11,0-.11-.13l0-1a.15.15,0,0,1,.11-.16l1.26-.59A.3.3,0,0,1,299.56,93.51Z" transform="translate(0 -1.44)" fill="#393d4f"/><path d="M299.59,133.63H301a.12.12,0,0,1,.1,0,.14.14,0,0,1,.05.1v8.11a.18.18,0,0,1-.15.15h-1.4a.18.18,0,0,1-.15-.15v-6.57s0,0,0-.05,0,0-.05,0l-1.19.32h0c-.08,0-.11,0-.11-.13l0-1a.18.18,0,0,1,.11-.17l1.26-.59A.42.42,0,0,1,299.59,133.63Z" transform="translate(0 -1.44)" fill="#393d4f"/><path d="M299.59,172.67H301a.12.12,0,0,1,.1.05.14.14,0,0,1,.05.1v8.11a.14.14,0,0,1-.05.1.12.12,0,0,1-.1.05h-1.4a.12.12,0,0,1-.1-.05.14.14,0,0,1-.05-.1v-6.57s0,0,0-.05a.06.06,0,0,0-.05,0l-1.19.33h0c-.08,0-.11,0-.11-.13l0-1a.18.18,0,0,1,.11-.17l1.26-.59A.4.4,0,0,1,299.59,172.67Z" transform="translate(0 -1.44)" fill="#393d4f"/><path d="M297.64,220.58a2.62,2.62,0,0,1-.77-2v-3.16a2.56,2.56,0,0,1,.77-2,2.87,2.87,0,0,1,2.08-.74,2.94,2.94,0,0,1,2.1.74,2.59,2.59,0,0,1,.77,2v3.16a2.66,2.66,0,0,1-.77,2,2.9,2.9,0,0,1-2.1.74A2.83,2.83,0,0,1,297.64,220.58Zm2.94-1a1.22,1.22,0,0,0,.32-.88v-3.3a1.22,1.22,0,0,0-.32-.88,1.14,1.14,0,0,0-.86-.33,1.11,1.11,0,0,0-.84.33,1.18,1.18,0,0,0-.32.88v3.3a1.18,1.18,0,0,0,.32.88,1.11,1.11,0,0,0,.84.33A1.14,1.14,0,0,0,300.58,219.54Z" transform="translate(0 -1.44)" fill="#393d4f"/><path d="M299.59,253.26H301a.12.12,0,0,1,.1,0,.14.14,0,0,1,.05.1v8.11a.16.16,0,0,1-.05.11.15.15,0,0,1-.1,0h-1.4a.15.15,0,0,1-.1,0,.16.16,0,0,1-.05-.11v-6.57a.06.06,0,0,0,0-.05s0,0-.05,0l-1.19.32h0c-.08,0-.11,0-.11-.13l0-1a.18.18,0,0,1,.11-.17l1.26-.59A.42.42,0,0,1,299.59,253.26Z" transform="translate(0 -1.44)" fill="#393d4f"/><path d="M297.64,300.1a2.62,2.62,0,0,1-.77-2v-3.17a2.58,2.58,0,0,1,.77-2,2.91,2.91,0,0,1,2.08-.73,3,3,0,0,1,2.1.73,2.62,2.62,0,0,1,.77,2v3.17a2.66,2.66,0,0,1-.77,2,2.94,2.94,0,0,1-2.1.74A2.87,2.87,0,0,1,297.64,300.1Zm2.94-1a1.24,1.24,0,0,0,.32-.89v-3.29a1.24,1.24,0,0,0-.32-.89,1.14,1.14,0,0,0-.86-.33,1.11,1.11,0,0,0-.84.33,1.2,1.2,0,0,0-.32.89v3.29a1.2,1.2,0,0,0,.32.89,1.11,1.11,0,0,0,.84.33A1.14,1.14,0,0,0,300.58,299.06Z" transform="translate(0 -1.44)" fill="#393d4f"/><path d="M299.59,329.23H301a.12.12,0,0,1,.1,0,.14.14,0,0,1,.05.1v8.11a.18.18,0,0,1-.15.15h-1.4a.18.18,0,0,1-.15-.15v-6.57s0,0,0-.05,0,0-.05,0l-1.19.32h0c-.08,0-.11,0-.11-.13l0-1a.18.18,0,0,1,.11-.17l1.26-.59A.42.42,0,0,1,299.59,329.23Z" transform="translate(0 -1.44)" fill="#393d4f"/><line x1="163.54" y1="57.14" x2="276.59" y2="57.14" fill="none" stroke="#393d4f" stroke-width="1.5"/><polygon points="274.12 60.71 287.61 57.1 274.12 53.48 274.12 60.71" fill="#393d4f"/><polygon points="274.12 100.65 287.61 97.03 274.12 93.42 274.12 100.65" fill="#393d4f"/><polygon points="274.12 140.23 287.61 136.62 274.12 133 274.12 140.23" fill="#393d4f"/><polygon points="274.12 181.06 287.61 177.44 274.12 173.82 274.12 181.06" fill="#393d4f"/><polygon points="274.12 260.22 287.61 256.6 274.12 252.99 274.12 260.22" fill="#393d4f"/><polygon points="274.12 339.38 287.61 335.76 274.12 332.15 274.12 339.38" fill="#393d4f"/><line x1="163.54" y1="216.89" x2="276.59" y2="216.89" fill="none" stroke="#393d4f" stroke-width="1.5"/><polygon points="274.12 220.46 287.61 216.84 274.12 213.23 274.12 220.46" fill="#393d4f"/><line x1="163.54" y1="295.7" x2="276.59" y2="295.7" fill="none" stroke="#393d4f" stroke-width="1.5"/><polygon points="274.12 299.27 287.61 295.65 274.12 292.03 274.12 299.27" fill="#393d4f"/><polyline points="163.54 97.21 225.85 97.1 225.85 85.85 237.51 85.85 237.51 97.16 283.74 97.16" fill="none" stroke="#393d4f" stroke-miterlimit="8" stroke-width="1.5"/><polyline points="163.54 136.62 225.85 136.51 225.85 125.25 237.51 125.25 237.51 136.56 280.87 136.56" fill="none" stroke="#393d4f" stroke-miterlimit="8" stroke-width="1.5"/><polyline points="164.6 177.44 226.91 177.33 226.91 166.08 238.58 166.08 238.58 177.38 280.87 177.38" fill="none" stroke="#393d4f" stroke-miterlimit="8" stroke-width="1.5"/><polyline points="164.6 256.6 226.91 256.5 226.91 245.24 238.58 245.24 238.58 256.55 280.87 256.55" fill="none" stroke="#393d4f" stroke-miterlimit="8" stroke-width="1.5"/><polyline points="164.6 335.76 226.91 335.66 226.91 324.4 238.58 324.4 238.58 335.71 280.87 335.71" fill="none" stroke="#393d4f" stroke-miterlimit="8" stroke-width="1.5"/><rect x="42.28" y="32.25" width="108.98" height="369.19" rx="3.61" fill="#8fd0b8"/><rect x="42.28" y="32.25" width="108.98" height="369.19" rx="3.61" fill="none" stroke="#393d4f" stroke-miterlimit="8" stroke-width="1.5"/><polygon points="144.88 163.95 156.64 163.95 156.64 169.27 192.44 173 192.44 180.46 156.64 184.19 156.64 189.51 144.88 189.51 144.88 163.95" fill="#a1dbf7" fill-rule="evenodd"/><polygon points="144.88 163.95 156.64 163.95 156.64 169.27 192.44 173 192.44 180.46 156.64 184.19 156.64 189.51 144.88 189.51 144.88 163.95" fill="none" stroke="#393d4f" stroke-miterlimit="8" stroke-width="1.5"/><polygon points="144.88 204.06 156.64 204.06 156.64 209.38 192.44 213.11 192.44 220.57 156.64 224.3 156.64 229.62 144.88 229.62 144.88 204.06" fill="#a1dbf7" fill-rule="evenodd"/><polygon points="144.88 204.06 156.64 204.06 156.64 209.38 192.44 213.11 192.44 220.57 156.64 224.3 156.64 229.62 144.88 229.62 144.88 204.06" fill="none" stroke="#393d4f" stroke-miterlimit="8" stroke-width="1.5"/><polygon points="144.88 243.82 156.64 243.82 156.64 249.14 192.44 252.87 192.44 260.33 156.64 264.06 156.64 269.38 144.88 269.38 144.88 243.82" fill="#a1dbf7" fill-rule="evenodd"/><polygon points="144.88 243.82 156.64 243.82 156.64 249.14 192.44 252.87 192.44 260.33 156.64 264.06 156.64 269.38 144.88 269.38 144.88 243.82" fill="none" stroke="#393d4f" stroke-miterlimit="8" stroke-width="1.5"/><path d="M75.69,10.09l-1.5-3.32a.08.08,0,0,0-.07,0H73a.05.05,0,0,0-.06.06v3.28a.14.14,0,0,1-.14.14H71.4a.15.15,0,0,1-.11,0,.18.18,0,0,1,0-.1V1.94a.18.18,0,0,1,0-.1.15.15,0,0,1,.11,0h3.43a2.8,2.8,0,0,1,1.35.31,2.2,2.2,0,0,1,.9.89,2.73,2.73,0,0,1,.32,1.33A2.39,2.39,0,0,1,77,5.73a2.14,2.14,0,0,1-1.14.82.07.07,0,0,0,0,.09L77.44,10a.17.17,0,0,1,0,.07c0,.07,0,.1-.13.1H75.86A.18.18,0,0,1,75.69,10.09ZM72.94,3.31V5.36a.05.05,0,0,0,.06.06h1.58a1.15,1.15,0,0,0,.82-.3,1,1,0,0,0,.32-.78,1,1,0,0,0-.32-.78,1.12,1.12,0,0,0-.82-.31H73A.05.05,0,0,0,72.94,3.31Z" transform="translate(0 -1.44)" fill="#393d4f"/><path d="M84,7.5a.14.14,0,0,1-.16.14h-3.7s-.07,0,0,.06a2.14,2.14,0,0,0,.13.48,1.26,1.26,0,0,0,1.27.68,1.44,1.44,0,0,0,1.21-.63c0-.05.07-.07.11-.07s0,0,.09.05l.86.85a.17.17,0,0,1,.06.11.28.28,0,0,1,0,.09,2.56,2.56,0,0,1-1,.77,3.38,3.38,0,0,1-1.37.27,3.12,3.12,0,0,1-1.74-.47,2.59,2.59,0,0,1-1-1.31A4.06,4.06,0,0,1,78.38,7a3.51,3.51,0,0,1,.18-1.17,2.61,2.61,0,0,1,1-1.35,2.66,2.66,0,0,1,1.63-.51,2.69,2.69,0,0,1,1.93.7A3,3,0,0,1,84,6.48,4.71,4.71,0,0,1,84,7.5ZM80.18,6.1a2.49,2.49,0,0,0-.08.38.05.05,0,0,0,.06.06h2.07s.07,0,0-.06l-.06-.34a1,1,0,0,0-.38-.55,1,1,0,0,0-.66-.2A1,1,0,0,0,80.18,6.1Z" transform="translate(0 -1.44)" fill="#393d4f"/><path d="M86.11,9.82a2.66,2.66,0,0,1-1-1.32,4.63,4.63,0,0,1-.2-1.42,4.39,4.39,0,0,1,.2-1.39,2.52,2.52,0,0,1,1-1.29,3.22,3.22,0,0,1,3.35,0,2.27,2.27,0,0,1,1,1.21,1.56,1.56,0,0,1,.09.43v0a.13.13,0,0,1-.12.14L89,6.42h0a.14.14,0,0,1-.14-.12l0-.19a1,1,0,0,0-.37-.52,1.19,1.19,0,0,0-.69-.2,1,1,0,0,0-1,.72,3.18,3.18,0,0,0-.13,1,3.25,3.25,0,0,0,.12,1,1.06,1.06,0,0,0,.38.56,1,1,0,0,0,.65.2,1.14,1.14,0,0,0,.66-.19,1,1,0,0,0,.39-.55.15.15,0,0,0,0-.07s0,0,0,0,.07-.13.17-.12l1.38.22a.12.12,0,0,1,.12.13,1.6,1.6,0,0,1-.07.36,2.24,2.24,0,0,1-1,1.26,3.1,3.1,0,0,1-1.67.46A2.9,2.9,0,0,1,86.11,9.82Z" transform="translate(0 -1.44)" fill="#393d4f"/><path d="M97,7.5a.14.14,0,0,1-.16.14H93.15c-.05,0-.06,0-.05.06a2.18,2.18,0,0,0,.14.48,1.25,1.25,0,0,0,1.27.68,1.46,1.46,0,0,0,1.21-.63.13.13,0,0,1,.11-.07.15.15,0,0,1,.08.05l.87.85a.17.17,0,0,1,.06.11.28.28,0,0,1,0,.09,2.71,2.71,0,0,1-1,.77,3.42,3.42,0,0,1-1.37.27,3.15,3.15,0,0,1-1.75-.47,2.63,2.63,0,0,1-1-1.31A4.06,4.06,0,0,1,91.38,7a3.51,3.51,0,0,1,.18-1.17,2.6,2.6,0,0,1,1-1.35,3,3,0,0,1,3.57.19A3.08,3.08,0,0,1,97,6.48,5.44,5.44,0,0,1,97,7.5ZM93.18,6.1a2.38,2.38,0,0,0-.09.38.05.05,0,0,0,.06.06h2.08s.06,0,0-.06l-.06-.34a1,1,0,0,0-1-.75A1,1,0,0,0,93.18,6.1Z" transform="translate(0 -1.44)" fill="#393d4f"/><path d="M98.29,3.07A.93.93,0,0,1,98,2.39a.91.91,0,0,1,1-1,1,1,0,0,1,.69.26,1,1,0,0,1,.26.69,1,1,0,0,1-1.63.68Zm-.14,7.09a.13.13,0,0,1,0-.1V4.16A.14.14,0,0,1,98.25,4h1.41a.14.14,0,0,1,.14.14v5.9a.14.14,0,0,1-.14.14H98.25A.13.13,0,0,1,98.15,10.16Z" transform="translate(0 -1.44)" fill="#393d4f"/><path d="M102.68,10.08l-1.92-5.89a.13.13,0,0,1,0-.06c0-.07,0-.11.13-.11h1.55a.16.16,0,0,1,.17.12l1,3.64s0,0,0,0l0,0,1-3.64A.15.15,0,0,1,104.8,4l1.55,0a.13.13,0,0,1,.11,0,.12.12,0,0,1,0,.12l-1.91,5.87a.14.14,0,0,1-.15.12h-1.57A.15.15,0,0,1,102.68,10.08Z" transform="translate(0 -1.44)" fill="#393d4f"/><path d="M107.59,3.07a.93.93,0,0,1-.27-.68.91.91,0,0,1,1-1,1,1,0,0,1,.69.26,1,1,0,0,1,.26.69,1,1,0,0,1-1.63.68Zm-.14,7.09a.13.13,0,0,1,0-.1V4.16a.14.14,0,0,1,.14-.14H109a.14.14,0,0,1,.14.14v5.9a.14.14,0,0,1-.14.14h-1.41A.13.13,0,0,1,107.45,10.16Z" transform="translate(0 -1.44)" fill="#393d4f"/><path d="M115.18,4.52a2.15,2.15,0,0,1,.59,1.6v3.94a.14.14,0,0,1-.14.14h-1.41a.14.14,0,0,1-.14-.14V6.47a1.12,1.12,0,0,0-.27-.78,1,1,0,0,0-1.43,0,1.12,1.12,0,0,0-.27.78v3.59a.14.14,0,0,1-.14.14h-1.41a.14.14,0,0,1-.14-.14V4.18a.15.15,0,0,1,0-.11.18.18,0,0,1,.1,0H112a.18.18,0,0,1,.1,0,.15.15,0,0,1,0,.11V4.6s0,0,0,0,0,0,0,0a1.69,1.69,0,0,1,1.47-.69A2.07,2.07,0,0,1,115.18,4.52Z" transform="translate(0 -1.44)" fill="#393d4f"/><path d="M120.79,4.07a.21.21,0,0,1,.11,0h1.4a.18.18,0,0,1,.1,0,.15.15,0,0,1,0,.11V9.65a2.61,2.61,0,0,1-.9,2.24,3.82,3.82,0,0,1-2.34.67,8,8,0,0,1-.93-.06c-.08,0-.12-.06-.12-.15l0-1.24c0-.1,0-.15.16-.13a4.73,4.73,0,0,0,.8.07,1.86,1.86,0,0,0,1.18-.33,1.34,1.34,0,0,0,.41-1.08.06.06,0,0,0,0-.05l0,0a1.71,1.71,0,0,1-1.33.49,2.86,2.86,0,0,1-1.44-.37A2.17,2.17,0,0,1,117,8.51a4.75,4.75,0,0,1-.18-1.43A4.57,4.57,0,0,1,117,5.56a2.42,2.42,0,0,1,.85-1.18,2.26,2.26,0,0,1,1.39-.44,1.8,1.8,0,0,1,1.42.55l0,0a.06.06,0,0,0,0,0V4.18A.21.21,0,0,1,120.79,4.07Zm0,3c0-.25,0-.44,0-.58a2.34,2.34,0,0,0-.09-.38,1,1,0,0,0-.36-.52,1,1,0,0,0-1.23,0,1.1,1.1,0,0,0-.37.52,2.19,2.19,0,0,0-.17,1,2.42,2.42,0,0,0,.14,1,1,1,0,0,0,.38.52,1.06,1.06,0,0,0,.64.2,1,1,0,0,0,1-.71A4.24,4.24,0,0,0,120.75,7.07Z" transform="translate(0 -1.44)" fill="#393d4f"/><path d="M82.74,24.34a2.65,2.65,0,0,1-1.1-1,2.87,2.87,0,0,1-.39-1.5V16.34a.14.14,0,0,1,0-.1.12.12,0,0,1,.1,0h1.4a.12.12,0,0,1,.1,0,.14.14,0,0,1,0,.1v5.49a1.42,1.42,0,1,0,2.83,0V16.34a.14.14,0,0,1,.14-.14h1.41a.14.14,0,0,1,.14.14v5.48a2.87,2.87,0,0,1-.39,1.5,2.62,2.62,0,0,1-1.09,1,3.53,3.53,0,0,1-1.63.36A3.48,3.48,0,0,1,82.74,24.34Z" transform="translate(0 -1.44)" fill="#393d4f"/><path d="M94.05,24.48l-.36-1.18a.07.07,0,0,0-.06,0h-3a.07.07,0,0,0-.06,0l-.34,1.18a.16.16,0,0,1-.16.12H88.59a.12.12,0,0,1-.11,0s0-.07,0-.13l2.59-8.11a.14.14,0,0,1,.15-.12H93.1a.14.14,0,0,1,.15.12l2.6,8.11s0,0,0,.06,0,.11-.13.11H94.2A.14.14,0,0,1,94.05,24.48Zm-3-2.53h2.12s.06,0,0-.07l-1.08-3.57s0,0,0,0,0,0,0,0l-1,3.57S91.05,22,91.09,22Z" transform="translate(0 -1.44)" fill="#393d4f"/><path d="M101.35,24.49l-1.5-3.32a.08.08,0,0,0-.07-.05H98.67a.05.05,0,0,0-.06.06v3.28a.14.14,0,0,1,0,.1.12.12,0,0,1-.1,0h-1.4a.12.12,0,0,1-.1,0,.14.14,0,0,1,0-.1V16.34a.14.14,0,0,1,0-.1.12.12,0,0,1,.1,0h3.43a2.8,2.8,0,0,1,1.35.31,2.2,2.2,0,0,1,.9.89,2.73,2.73,0,0,1,.32,1.33,2.39,2.39,0,0,1-.41,1.4,2.14,2.14,0,0,1-1.14.82.07.07,0,0,0,0,.09l1.64,3.39a.41.41,0,0,1,0,.07c0,.07,0,.1-.13.1h-1.48A.18.18,0,0,1,101.35,24.49Zm-2.74-6.78v2.05a.05.05,0,0,0,.06.06h1.57a1.15,1.15,0,0,0,.82-.3,1.11,1.11,0,0,0,0-1.56,1.12,1.12,0,0,0-.82-.31H98.67A.05.05,0,0,0,98.61,17.71Z" transform="translate(0 -1.44)" fill="#393d4f"/><path d="M110.18,16.24a.13.13,0,0,1,0,.1v1.18a.14.14,0,0,1-.14.14h-2.15a.05.05,0,0,0-.06.06v6.74a.14.14,0,0,1-.14.14h-1.41a.14.14,0,0,1-.14-.14V17.72a.05.05,0,0,0-.06-.06H104a.14.14,0,0,1-.14-.14V16.34a.14.14,0,0,1,.14-.14h6A.13.13,0,0,1,110.18,16.24Z" transform="translate(0 -1.44)" fill="#393d4f"/><polygon points="48.67 163.95 36.91 163.95 36.91 169.27 1.1 173 1.1 180.46 36.91 184.19 36.91 189.51 48.67 189.51 48.67 163.95" fill="#a1dbf7" fill-rule="evenodd"/><polygon points="48.67 163.95 36.91 163.95 36.91 169.27 1.1 173 1.1 180.46 36.91 184.19 36.91 189.51 48.67 189.51 48.67 163.95" fill="none" stroke="#393d4f" stroke-miterlimit="8" stroke-width="1.5"/><polygon points="48.67 204.06 36.91 204.06 36.91 209.38 1.1 213.11 1.1 220.57 36.91 224.3 36.91 229.62 48.67 229.62 48.67 204.06" fill="#a1dbf7" fill-rule="evenodd"/><polygon points="48.67 204.06 36.91 204.06 36.91 209.38 1.1 213.11 1.1 220.57 36.91 224.3 36.91 229.62 48.67 229.62 48.67 204.06" fill="none" stroke="#393d4f" stroke-miterlimit="8" stroke-width="1.5"/><polygon points="48.67 243.82 36.91 243.82 36.91 249.14 1.1 252.87 1.1 260.33 36.91 264.06 36.91 269.38 48.67 269.38 48.67 243.82" fill="#a1dbf7" fill-rule="evenodd"/><polygon points="48.67 243.82 36.91 243.82 36.91 249.14 1.1 252.87 1.1 260.33 36.91 264.06 36.91 269.38 48.67 269.38 48.67 243.82" fill="none" stroke="#393d4f" stroke-miterlimit="8" stroke-width="1.5"/><polygon points="144.88 44.32 156.64 44.32 156.64 49.64 192.44 53.37 192.44 60.83 156.64 64.56 156.64 69.88 144.88 69.88 144.88 44.32" fill="#a1dbf7" fill-rule="evenodd"/><polygon points="144.88 44.32 156.64 44.32 156.64 49.64 192.44 53.37 192.44 60.83 156.64 64.56 156.64 69.88 144.88 69.88 144.88 44.32" fill="none" stroke="#393d4f" stroke-miterlimit="8" stroke-width="1.5"/><polygon points="144.88 84.43 156.64 84.43 156.64 89.68 192.44 93.36 192.44 100.71 156.64 104.39 156.64 109.64 144.88 109.64 144.88 84.43" fill="#a1dbf7" fill-rule="evenodd"/><polygon points="144.88 84.43 156.64 84.43 156.64 89.68 192.44 93.36 192.44 100.71 156.64 104.39 156.64 109.64 144.88 109.64 144.88 84.43" fill="none" stroke="#393d4f" stroke-miterlimit="8" stroke-width="1.5"/><polygon points="144.88 124.19 156.64 124.19 156.64 129.51 192.44 133.24 192.44 140.7 156.64 144.43 156.64 149.75 144.88 149.75 144.88 124.19" fill="#a1dbf7" fill-rule="evenodd"/><polygon points="144.88 124.19 156.64 124.19 156.64 129.51 192.44 133.24 192.44 140.7 156.64 144.43 156.64 149.75 144.88 149.75 144.88 124.19" fill="none" stroke="#393d4f" stroke-miterlimit="8" stroke-width="1.5"/><polygon points="144.88 282.87 156.64 282.87 156.64 288.19 192.44 291.92 192.44 299.38 156.64 303.11 156.64 308.43 144.88 308.43 144.88 282.87" fill="#a1dbf7" fill-rule="evenodd"/><polygon points="144.88 282.87 156.64 282.87 156.64 288.19 192.44 291.92 192.44 299.38 156.64 303.11 156.64 308.43 144.88 308.43 144.88 282.87" fill="none" stroke="#393d4f" stroke-miterlimit="8" stroke-width="1.5"/><polygon points="144.88 322.99 156.64 322.99 156.64 328.31 192.44 332.04 192.44 339.5 156.64 343.22 156.64 348.55 144.88 348.55 144.88 322.99" fill="#a1dbf7" fill-rule="evenodd"/><polygon points="144.88 322.99 156.64 322.99 156.64 328.31 192.44 332.04 192.44 339.5 156.64 343.22 156.64 348.55 144.88 348.55 144.88 322.99" fill="none" stroke="#393d4f" stroke-miterlimit="8" stroke-width="1.5"/><polygon points="144.88 362.74 156.64 362.74 156.64 368.06 192.44 371.79 192.44 379.25 156.64 382.98 156.64 388.3 144.88 388.3 144.88 362.74" fill="#a1dbf7" fill-rule="evenodd"/><polygon points="144.88 362.74 156.64 362.74 156.64 368.06 192.44 371.79 192.44 379.25 156.64 382.98 156.64 388.3 144.88 388.3 144.88 362.74" fill="none" stroke="#393d4f" stroke-miterlimit="8" stroke-width="1.5"/><polygon points="48.32 44.32 36.56 44.32 36.56 49.64 0.75 53.37 0.75 60.83 36.56 64.56 36.56 69.88 48.32 69.88 48.32 44.32" fill="#a1dbf7" fill-rule="evenodd"/><polygon points="48.32 44.32 36.56 44.32 36.56 49.64 0.75 53.37 0.75 60.83 36.56 64.56 36.56 69.88 48.32 69.88 48.32 44.32" fill="none" stroke="#393d4f" stroke-miterlimit="8" stroke-width="1.5"/><polygon points="48.32 84.43 36.56 84.43 36.56 89.68 0.75 93.36 0.75 100.71 36.56 104.39 36.56 109.64 48.32 109.64 48.32 84.43" fill="#a1dbf7" fill-rule="evenodd"/><polygon points="48.32 84.43 36.56 84.43 36.56 89.68 0.75 93.36 0.75 100.71 36.56 104.39 36.56 109.64 48.32 109.64 48.32 84.43" fill="none" stroke="#393d4f" stroke-miterlimit="8" stroke-width="1.5"/><polygon points="48.32 124.19 36.56 124.19 36.56 129.51 0.75 133.24 0.75 140.7 36.56 144.43 36.56 149.75 48.32 149.75 48.32 124.19" fill="#a1dbf7" fill-rule="evenodd"/><polygon points="48.32 124.19 36.56 124.19 36.56 129.51 0.75 133.24 0.75 140.7 36.56 144.43 36.56 149.75 48.32 149.75 48.32 124.19" fill="none" stroke="#393d4f" stroke-miterlimit="8" stroke-width="1.5"/><polygon points="48.32 282.87 36.56 282.87 36.56 288.19 0.75 291.92 0.75 299.38 36.56 303.11 36.56 308.43 48.32 308.43 48.32 282.87" fill="#a1dbf7" fill-rule="evenodd"/><polygon points="48.32 282.87 36.56 282.87 36.56 288.19 0.75 291.92 0.75 299.38 36.56 303.11 36.56 308.43 48.32 308.43 48.32 282.87" fill="none" stroke="#393d4f" stroke-miterlimit="8" stroke-width="1.5"/><polygon points="48.32 322.99 36.56 322.99 36.56 328.31 0.75 332.04 0.75 339.5 36.56 343.22 36.56 348.55 48.32 348.55 48.32 322.99" fill="#a1dbf7" fill-rule="evenodd"/><polygon points="48.32 322.99 36.56 322.99 36.56 328.31 0.75 332.04 0.75 339.5 36.56 343.22 36.56 348.55 48.32 348.55 48.32 322.99" fill="none" stroke="#393d4f" stroke-miterlimit="8" stroke-width="1.5"/><polygon points="48.32 362.74 36.56 362.74 36.56 368.06 0.75 371.79 0.75 379.25 36.56 382.98 36.56 388.3 48.32 388.3 48.32 362.74" fill="#a1dbf7" fill-rule="evenodd"/><polygon points="48.32 362.74 36.56 362.74 36.56 368.06 0.75 371.79 0.75 379.25 36.56 382.98 36.56 388.3 48.32 388.3 48.32 362.74" fill="none" stroke="#393d4f" stroke-miterlimit="8" stroke-width="1.5"/><path d="M132.48,61.55a2.62,2.62,0,0,1-.77-2V56.37a2.58,2.58,0,0,1,.77-2,2.87,2.87,0,0,1,2.08-.73,2.94,2.94,0,0,1,2.1.73,2.62,2.62,0,0,1,.77,2v3.17a2.66,2.66,0,0,1-.77,2,2.94,2.94,0,0,1-2.1.74A2.87,2.87,0,0,1,132.48,61.55Zm2.94-1a1.22,1.22,0,0,0,.32-.88v-3.3a1.22,1.22,0,0,0-.32-.88,1.14,1.14,0,0,0-.86-.33,1.11,1.11,0,0,0-.84.33,1.22,1.22,0,0,0-.32.88v3.3a1.22,1.22,0,0,0,.32.88,1.11,1.11,0,0,0,.84.33A1.14,1.14,0,0,0,135.42,60.5Z" transform="translate(0 -1.44)" fill="#393d4f"/><path d="M134.43,93.51h1.45a.14.14,0,0,1,.15.15v8.11a.18.18,0,0,1,0,.1.15.15,0,0,1-.11,0h-1.4a.14.14,0,0,1-.14-.14V95.19a.09.09,0,0,0,0,0,0,0,0,0,0-.05,0l-1.18.33H133c-.07,0-.11,0-.11-.13l0-1a.16.16,0,0,1,.11-.16l1.26-.59A.3.3,0,0,1,134.43,93.51Z" transform="translate(0 -1.44)" fill="#393d4f"/><path d="M134.47,133.63h1.45a.14.14,0,0,1,.14.14v8.11a.12.12,0,0,1,0,.1.14.14,0,0,1-.1.05h-1.41a.14.14,0,0,1-.1-.05.12.12,0,0,1,0-.1v-6.57a.08.08,0,0,0,0-.05s0,0,0,0l-1.19.32h-.05c-.07,0-.11,0-.11-.13l0-1a.16.16,0,0,1,.11-.17l1.26-.59A.42.42,0,0,1,134.47,133.63Z" transform="translate(0 -1.44)" fill="#393d4f"/><path d="M134.47,172.67h1.45a.14.14,0,0,1,.1.05.13.13,0,0,1,0,.1v8.11a.13.13,0,0,1,0,.1.14.14,0,0,1-.1.05h-1.41a.14.14,0,0,1-.1-.05.13.13,0,0,1,0-.1v-6.57a.08.08,0,0,0,0-.05.06.06,0,0,0,0,0l-1.19.33h-.05c-.07,0-.11,0-.11-.13l0-1a.16.16,0,0,1,.11-.17l1.26-.59A.4.4,0,0,1,134.47,172.67Z" transform="translate(0 -1.44)" fill="#393d4f"/><path d="M132.51,220.58a2.66,2.66,0,0,1-.77-2v-3.16a2.59,2.59,0,0,1,.77-2,3.32,3.32,0,0,1,4.18,0,2.56,2.56,0,0,1,.78,2v3.16a2.63,2.63,0,0,1-.78,2,3.32,3.32,0,0,1-4.18,0Zm3-1a1.21,1.21,0,0,0,.31-.88v-3.3a1.21,1.21,0,0,0-.31-.88,1.15,1.15,0,0,0-.86-.33,1.13,1.13,0,0,0-.85.33,1.22,1.22,0,0,0-.32.88v3.3a1.22,1.22,0,0,0,.32.88,1.13,1.13,0,0,0,.85.33A1.15,1.15,0,0,0,135.46,219.54Z" transform="translate(0 -1.44)" fill="#393d4f"/><path d="M134.47,253.26h1.45a.14.14,0,0,1,.14.14v8.11a.15.15,0,0,1,0,.11.18.18,0,0,1-.1,0h-1.41a.18.18,0,0,1-.1,0,.15.15,0,0,1,0-.11v-6.57s0,0,0-.05,0,0,0,0l-1.19.32h-.05c-.07,0-.11,0-.11-.13l0-1a.16.16,0,0,1,.11-.17l1.26-.59A.42.42,0,0,1,134.47,253.26Z" transform="translate(0 -1.44)" fill="#393d4f"/><path d="M132.51,300.1a2.66,2.66,0,0,1-.77-2v-3.17a2.62,2.62,0,0,1,.77-2,3.36,3.36,0,0,1,4.18,0,2.59,2.59,0,0,1,.78,2v3.17a2.63,2.63,0,0,1-.78,2,3.32,3.32,0,0,1-4.18,0Zm3-1a1.24,1.24,0,0,0,.31-.89v-3.29a1.24,1.24,0,0,0-.31-.89,1.15,1.15,0,0,0-.86-.33,1.13,1.13,0,0,0-.85.33,1.24,1.24,0,0,0-.32.89v3.29a1.24,1.24,0,0,0,.32.89,1.13,1.13,0,0,0,.85.33A1.15,1.15,0,0,0,135.46,299.06Z" transform="translate(0 -1.44)" fill="#393d4f"/><path d="M134.47,329.23h1.45a.14.14,0,0,1,.14.14v8.11a.12.12,0,0,1,0,.1.14.14,0,0,1-.1.05h-1.41a.14.14,0,0,1-.1-.05.12.12,0,0,1,0-.1v-6.57a.08.08,0,0,0,0-.05s0,0,0,0l-1.19.32h-.05c-.07,0-.11,0-.11-.13l0-1a.16.16,0,0,1,.11-.17l1.26-.59A.42.42,0,0,1,134.47,329.23Z" transform="translate(0 -1.44)" fill="#393d4f"/></svg>