<svg id="f9273be2-6a65-4d42-9977-80cf69ebe925" data-name="Layer 1" xmlns="http://www.w3.org/2000/svg" width="5.18in" height="5.59in" viewBox="0 0 372.82 402.19"><rect x="0.75" y="43.96" width="108.98" height="344.34" rx="6.24" fill="#f8a68c"/><rect x="0.75" y="43.96" width="108.98" height="344.34" rx="6.24" fill="none" stroke="#393d4f" stroke-miterlimit="8" stroke-width="1.5"/><line x1="62.94" y1="57.14" x2="167.99" y2="57.14" fill="none" stroke="#393d4f" stroke-width="1.5"/><polygon points="165.52 60.71 179.02 57.1 165.52 53.48 165.52 60.71" fill="#393d4f"/><polygon points="165.52 100.65 179.02 97.03 165.52 93.42 165.52 100.65" fill="#393d4f"/><polygon points="165.52 140.23 179.02 136.62 165.52 133 165.52 140.23" fill="#393d4f"/><polygon points="165.52 181.06 179.02 177.44 165.52 173.82 165.52 181.06" fill="#393d4f"/><polygon points="165.52 260.22 179.02 256.6 165.52 252.99 165.52 260.22" fill="#393d4f"/><polygon points="165.52 339.38 179.02 335.76 165.52 332.15 165.52 339.38" fill="#393d4f"/><line x1="62.94" y1="216.89" x2="167.99" y2="216.89" fill="none" stroke="#393d4f" stroke-width="1.5"/><polygon points="165.52 220.46 179.02 216.84 165.52 213.23 165.52 220.46" fill="#393d4f"/><line x1="62.94" y1="295.7" x2="167.99" y2="295.7" fill="none" stroke="#393d4f" stroke-width="1.5"/><polygon points="165.52 299.27 179.02 295.65 165.52 292.03 165.52 299.27" fill="#393d4f"/><rect x="221.91" y="32.25" width="108.98" height="369.19" rx="3.61" fill="#8fd0b8"/><rect x="221.91" y="32.25" width="108.98" height="369.19" rx="3.61" fill="none" stroke="#393d4f" stroke-miterlimit="8" stroke-width="1.5"/><polygon points="324.5 163.95 336.27 163.95 336.27 169.27 372.07 173 372.07 180.46 336.27 184.19 336.27 189.51 324.5 189.51 324.5 163.95" fill="#a1dbf7" fill-rule="evenodd"/><polygon points="324.5 163.95 336.27 163.95 336.27 169.27 372.07 173 372.07 180.46 336.27 184.19 336.27 189.51 324.5 189.51 324.5 163.95" fill="none" stroke="#393d4f" stroke-miterlimit="8" stroke-width="1.5"/><polygon points="324.5 204.06 336.27 204.06 336.27 209.38 372.07 213.11 372.07 220.57 336.27 224.3 336.27 229.62 324.5 229.62 324.5 204.06" fill="#a1dbf7" fill-rule="evenodd"/><polygon points="324.5 204.06 336.27 204.06 336.27 209.38 372.07 213.11 372.07 220.57 336.27 224.3 336.27 229.62 324.5 229.62 324.5 204.06" fill="none" stroke="#393d4f" stroke-miterlimit="8" stroke-width="1.5"/><polygon points="324.5 243.82 336.27 243.82 336.27 249.14 372.07 252.87 372.07 260.33 336.27 264.06 336.27 269.38 324.5 269.38 324.5 243.82" fill="#a1dbf7" fill-rule="evenodd"/><polygon points="324.5 243.82 336.27 243.82 336.27 249.14 372.07 252.87 372.07 260.33 336.27 264.06 336.27 269.38 324.5 269.38 324.5 243.82" fill="none" stroke="#393d4f" stroke-miterlimit="8" stroke-width="1.5"/><path d="M248.51,1.84a.14.14,0,0,1,.05.1V3.12a.14.14,0,0,1-.05.1.12.12,0,0,1-.1,0h-2.15a.05.05,0,0,0-.06.06v6.74a.14.14,0,0,1-.14.14h-1.4a.15.15,0,0,1-.11,0,.18.18,0,0,1,0-.1V3.32a.05.05,0,0,0-.06-.06h-2.09a.14.14,0,0,1-.14-.14V1.94a.14.14,0,0,1,.14-.14h6A.12.12,0,0,1,248.51,1.84Z" transform="translate(0 -1.44)" fill="#393d4f"/><path d="M253.28,4.12c.07,0,.09.09.08.18l-.26,1.36c0,.1-.06.13-.16.09a1.37,1.37,0,0,0-.42-.06l-.27,0a1.19,1.19,0,0,0-.73.32,1,1,0,0,0-.3.75v3.28a.18.18,0,0,1,0,.1.14.14,0,0,1-.11,0h-1.4a.14.14,0,0,1-.14-.14V4.18a.15.15,0,0,1,0-.11.18.18,0,0,1,.1,0h1.4a.18.18,0,0,1,.11,0,.21.21,0,0,1,0,.11v.45a.06.06,0,0,0,0,0s0,0,0,0A1.53,1.53,0,0,1,252.6,4,1.12,1.12,0,0,1,253.28,4.12Z" transform="translate(0 -1.44)" fill="#393d4f"/><path d="M258,4.21a2.35,2.35,0,0,1,.95.73,1.73,1.73,0,0,1,.34,1v4.07a.14.14,0,0,1-.14.14h-1.41a.14.14,0,0,1-.14-.14v-.4a.08.08,0,0,0,0-.05s0,0-.05,0a1.92,1.92,0,0,1-1.62.66,2.36,2.36,0,0,1-1.51-.46,1.59,1.59,0,0,1-.58-1.34,1.73,1.73,0,0,1,.65-1.44,2.93,2.93,0,0,1,1.85-.51h1.22a.05.05,0,0,0,.06-.06V6.23a.8.8,0,0,0-.24-.62,1,1,0,0,0-.72-.22,1.29,1.29,0,0,0-.62.13.64.64,0,0,0-.32.37q0,.14-.15.12l-1.45-.19c-.1,0-.14-.05-.14-.11a1.64,1.64,0,0,1,.41-.91,2.37,2.37,0,0,1,.93-.64,3.58,3.58,0,0,1,1.3-.22A3.46,3.46,0,0,1,258,4.21Zm-.76,4.55a.85.85,0,0,0,.36-.71V7.62a.05.05,0,0,0-.06-.06h-.86a1.57,1.57,0,0,0-.85.2.67.67,0,0,0-.31.58.62.62,0,0,0,.23.51,1,1,0,0,0,.61.19A1.42,1.42,0,0,0,257.22,8.76Z" transform="translate(0 -1.44)" fill="#393d4f"/><path d="M265.22,4.52a2.15,2.15,0,0,1,.59,1.6v3.94a.14.14,0,0,1-.14.14h-1.41a.14.14,0,0,1-.14-.14V6.47a1.12,1.12,0,0,0-.27-.78,1,1,0,0,0-1.43,0,1.12,1.12,0,0,0-.27.78v3.59a.14.14,0,0,1-.14.14H260.6a.14.14,0,0,1-.14-.14V4.18a.15.15,0,0,1,0-.11.18.18,0,0,1,.1,0H262a.18.18,0,0,1,.1,0,.15.15,0,0,1,0,.11V4.6s0,0,0,0,0,0,0,0a1.69,1.69,0,0,1,1.47-.69A2.07,2.07,0,0,1,265.22,4.52Z" transform="translate(0 -1.44)" fill="#393d4f"/><path d="M268.08,10.06a2.23,2.23,0,0,1-.93-.64,1.42,1.42,0,0,1-.33-.92V8.38a.15.15,0,0,1,0-.11.18.18,0,0,1,.1,0h1.34a.21.21,0,0,1,.1,0,.15.15,0,0,1,0,.11h0a.56.56,0,0,0,.29.45,1.42,1.42,0,0,0,.74.18,1.2,1.2,0,0,0,.66-.16.46.46,0,0,0,.25-.4.34.34,0,0,0-.21-.32,3.26,3.26,0,0,0-.71-.23,7.43,7.43,0,0,1-.89-.28A3.59,3.59,0,0,1,267.35,7a1.33,1.33,0,0,1-.46-1.1,1.68,1.68,0,0,1,.69-1.41A2.94,2.94,0,0,1,269.41,4a3.54,3.54,0,0,1,1.35.24,2.16,2.16,0,0,1,.89.69,1.73,1.73,0,0,1,.32,1,.15.15,0,0,1,0,.1.16.16,0,0,1-.11,0h-1.28a.14.14,0,0,1-.1,0,.12.12,0,0,1,0-.1.52.52,0,0,0-.28-.44,1.22,1.22,0,0,0-.71-.18,1.39,1.39,0,0,0-.65.14.46.46,0,0,0-.25.4.38.38,0,0,0,.25.36,4.34,4.34,0,0,0,.82.25l.3.08.36.1a3.81,3.81,0,0,1,1.34.65,1.38,1.38,0,0,1,.49,1.15,1.62,1.62,0,0,1-.7,1.39,3.19,3.19,0,0,1-1.89.49A4,4,0,0,1,268.08,10.06Z" transform="translate(0 -1.44)" fill="#393d4f"/><path d="M281.35,4.5a2.23,2.23,0,0,1,.53,1.58v4a.14.14,0,0,1-.14.14h-1.41a.14.14,0,0,1-.14-.14V6.46a1.18,1.18,0,0,0-.25-.78.84.84,0,0,0-.68-.29.86.86,0,0,0-.68.29,1,1,0,0,0-.26.76v3.62a.14.14,0,0,1-.05.1.12.12,0,0,1-.1,0h-1.39a.14.14,0,0,1-.14-.14V6.46a1.12,1.12,0,0,0-.27-.78,1,1,0,0,0-1.32-.06.91.91,0,0,0-.31.63v3.81a.14.14,0,0,1-.14.14h-1.41a.14.14,0,0,1-.14-.14V4.18a.15.15,0,0,1,0-.11.18.18,0,0,1,.1,0h1.41a.18.18,0,0,1,.1,0,.15.15,0,0,1,0,.11v.46a.06.06,0,0,0,0,.05,0,0,0,0,0,.05,0,1.71,1.71,0,0,1,1.53-.73,2.09,2.09,0,0,1,1.05.25,1.71,1.71,0,0,1,.69.72s.05,0,.08,0a1.73,1.73,0,0,1,.71-.73,2.13,2.13,0,0,1,1-.24A1.88,1.88,0,0,1,281.35,4.5Z" transform="translate(0 -1.44)" fill="#393d4f"/><path d="M283.3,3.07a.93.93,0,0,1-.27-.68,1,1,0,0,1,.26-.69,1,1,0,0,1,.69-.26.91.91,0,0,1,.95,1,1,1,0,0,1-1.63.68Zm-.14,7.09a.13.13,0,0,1,0-.1V4.16a.14.14,0,0,1,.14-.14h1.4a.15.15,0,0,1,.11,0,.18.18,0,0,1,0,.1v5.9a.18.18,0,0,1,0,.1.15.15,0,0,1-.11,0h-1.4A.13.13,0,0,1,283.16,10.16Z" transform="translate(0 -1.44)" fill="#393d4f"/><path d="M289.62,5.35a.15.15,0,0,1-.1,0h-1.15a.05.05,0,0,0-.06.06V8a.94.94,0,0,0,.16.59.64.64,0,0,0,.52.19h.4a.18.18,0,0,1,.1,0,.15.15,0,0,1,0,.11v1.14a.14.14,0,0,1-.14.15l-.72,0a2.72,2.72,0,0,1-1.49-.33,1.43,1.43,0,0,1-.5-1.25V5.45a.05.05,0,0,0-.06-.06h-.69a.18.18,0,0,1-.1,0,.15.15,0,0,1,0-.11V4.18a.15.15,0,0,1,0-.11.18.18,0,0,1,.1,0h.69a.05.05,0,0,0,.06-.06V2.54a.14.14,0,0,1,.14-.14h1.35a.14.14,0,0,1,.14.14V4a.05.05,0,0,0,.06.06h1.15a.15.15,0,0,1,.1,0,.16.16,0,0,1,.05.11V5.24A.16.16,0,0,1,289.62,5.35Z" transform="translate(0 -1.44)" fill="#393d4f"/><path d="M294.19,5.35a.21.21,0,0,1-.11,0h-1.15a.05.05,0,0,0-.06.06V8a.94.94,0,0,0,.16.59.66.66,0,0,0,.53.19H294a.15.15,0,0,1,.1,0,.16.16,0,0,1,.05.11v1.14a.15.15,0,0,1-.15.15l-.72,0a2.72,2.72,0,0,1-1.49-.33,1.43,1.43,0,0,1-.5-1.25V5.45a.05.05,0,0,0-.06-.06h-.69a.18.18,0,0,1-.1,0,.21.21,0,0,1,0-.11V4.18a.21.21,0,0,1,0-.11.18.18,0,0,1,.1,0h.69a.05.05,0,0,0,.06-.06V2.54a.14.14,0,0,1,.14-.14h1.35a.14.14,0,0,1,.14.14V4a.05.05,0,0,0,.06.06h1.15a.21.21,0,0,1,.11,0,.21.21,0,0,1,0,.11V5.24A.21.21,0,0,1,294.19,5.35Z" transform="translate(0 -1.44)" fill="#393d4f"/><path d="M295.48,3.07a.93.93,0,0,1-.27-.68,1,1,0,0,1,.26-.69,1,1,0,0,1,.69-.26.91.91,0,0,1,.95,1,1,1,0,0,1-1.63.68Zm-.14,7.09a.14.14,0,0,1,0-.1V4.16a.14.14,0,0,1,0-.1.13.13,0,0,1,.1,0h1.4a.15.15,0,0,1,.11,0,.18.18,0,0,1,0,.1v5.9a.18.18,0,0,1,0,.1.15.15,0,0,1-.11,0h-1.4A.13.13,0,0,1,295.34,10.16Z" transform="translate(0 -1.44)" fill="#393d4f"/><path d="M303.07,4.52a2.19,2.19,0,0,1,.59,1.6v3.94a.18.18,0,0,1,0,.1.15.15,0,0,1-.11,0h-1.4a.14.14,0,0,1-.14-.14V6.47a1.12,1.12,0,0,0-.27-.78,1,1,0,0,0-1.43,0,1.12,1.12,0,0,0-.27.78v3.59a.18.18,0,0,1,0,.1.15.15,0,0,1-.11,0h-1.4a.14.14,0,0,1-.14-.14V4.18a.15.15,0,0,1,0-.11.18.18,0,0,1,.1,0h1.4a.21.21,0,0,1,.11,0,.21.21,0,0,1,0,.11V4.6s0,0,0,0,0,0,0,0a1.67,1.67,0,0,1,1.46-.69A2.1,2.1,0,0,1,303.07,4.52Z" transform="translate(0 -1.44)" fill="#393d4f"/><path d="M308.68,4.07a.18.18,0,0,1,.1,0h1.41a.18.18,0,0,1,.1,0,.15.15,0,0,1,0,.11V9.65a2.59,2.59,0,0,1-.91,2.24,3.79,3.79,0,0,1-2.33.67,8,8,0,0,1-.93-.06c-.09,0-.13-.06-.13-.15l.05-1.24c0-.1.06-.15.17-.13a4.62,4.62,0,0,0,.79.07,1.84,1.84,0,0,0,1.18-.33,1.32,1.32,0,0,0,.42-1.08.06.06,0,0,0,0-.05l-.05,0a1.73,1.73,0,0,1-1.33.49,2.83,2.83,0,0,1-1.44-.37,2.13,2.13,0,0,1-.93-1.22,4.75,4.75,0,0,1-.18-1.43,4.33,4.33,0,0,1,.22-1.52,2.36,2.36,0,0,1,.85-1.18,2.24,2.24,0,0,1,1.39-.44,1.8,1.8,0,0,1,1.42.55l.05,0a.06.06,0,0,0,0,0V4.18A.15.15,0,0,1,308.68,4.07Zm0,3c0-.25,0-.44,0-.58a2.34,2.34,0,0,0-.09-.38,1,1,0,0,0-.36-.52.94.94,0,0,0-.62-.2.9.9,0,0,0-.61.2,1.12,1.12,0,0,0-.38.52,2.36,2.36,0,0,0-.16,1,2.25,2.25,0,0,0,.14,1,1,1,0,0,0,.38.52,1.06,1.06,0,0,0,.64.2,1,1,0,0,0,.64-.2,1,1,0,0,0,.34-.51A3.68,3.68,0,0,0,308.64,7.07Z" transform="translate(0 -1.44)" fill="#393d4f"/><path d="M262.36,24.34a2.62,2.62,0,0,1-1.09-1,2.87,2.87,0,0,1-.39-1.5V16.34a.14.14,0,0,1,.14-.14h1.41a.14.14,0,0,1,.14.14v5.49a1.42,1.42,0,1,0,2.83,0V16.34a.14.14,0,0,1,.05-.1.12.12,0,0,1,.1,0H267a.12.12,0,0,1,.1,0,.14.14,0,0,1,.05.1v5.48a2.87,2.87,0,0,1-.39,1.5,2.65,2.65,0,0,1-1.1,1,3.48,3.48,0,0,1-1.62.36A3.53,3.53,0,0,1,262.36,24.34Z" transform="translate(0 -1.44)" fill="#393d4f"/><path d="M273.67,24.48l-.36-1.18a.05.05,0,0,0-.06,0H270.3a.07.07,0,0,0-.06,0l-.35,1.18a.14.14,0,0,1-.15.12h-1.53a.14.14,0,0,1-.11,0,.18.18,0,0,1,0-.13l2.59-8.11a.16.16,0,0,1,.16-.12h1.88a.15.15,0,0,1,.16.12l2.59,8.11a.13.13,0,0,1,0,.06c0,.07,0,.11-.13.11h-1.52A.16.16,0,0,1,273.67,24.48ZM270.72,22h2.11c.05,0,.07,0,.05-.07l-1.08-3.57s0,0,0,0,0,0,0,0l-1.06,3.57A.05.05,0,0,0,270.72,22Z" transform="translate(0 -1.44)" fill="#393d4f"/><path d="M281,24.49l-1.5-3.32s0-.05-.07-.05h-1.12a.05.05,0,0,0-.06.06v3.28a.14.14,0,0,1-.14.14h-1.41a.14.14,0,0,1-.14-.14V16.34a.14.14,0,0,1,.14-.14h3.44a2.8,2.8,0,0,1,1.35.31,2.33,2.33,0,0,1,.9.89,2.72,2.72,0,0,1,.31,1.33,2.38,2.38,0,0,1-.4,1.4,2.22,2.22,0,0,1-1.14.82s-.06.05,0,.09l1.63,3.39a.17.17,0,0,1,0,.07c0,.07-.05.1-.14.1h-1.47A.18.18,0,0,1,281,24.49Zm-2.75-6.78v2.05a.05.05,0,0,0,.06.06h1.57a1.18,1.18,0,0,0,.83-.3,1.14,1.14,0,0,0,0-1.56,1.14,1.14,0,0,0-.83-.31h-1.57A.05.05,0,0,0,278.23,17.71Z" transform="translate(0 -1.44)" fill="#393d4f"/><path d="M289.81,16.24a.18.18,0,0,1,0,.1v1.18a.18.18,0,0,1,0,.1.15.15,0,0,1-.11,0h-2.14a.05.05,0,0,0-.06.06v6.74a.14.14,0,0,1-.05.1.12.12,0,0,1-.1,0H286a.12.12,0,0,1-.1,0,.14.14,0,0,1-.05-.1V17.72a.05.05,0,0,0-.06-.06h-2.08a.15.15,0,0,1-.11,0,.18.18,0,0,1,0-.1V16.34a.18.18,0,0,1,0-.1.15.15,0,0,1,.11,0h6A.15.15,0,0,1,289.81,16.24Z" transform="translate(0 -1.44)" fill="#393d4f"/><polygon points="228.3 163.95 216.54 163.95 216.54 169.27 180.73 173 180.73 180.46 216.54 184.19 216.54 189.51 228.3 189.51 228.3 163.95" fill="#a1dbf7" fill-rule="evenodd"/><polygon points="228.3 163.95 216.54 163.95 216.54 169.27 180.73 173 180.73 180.46 216.54 184.19 216.54 189.51 228.3 189.51 228.3 163.95" fill="none" stroke="#393d4f" stroke-miterlimit="8" stroke-width="1.5"/><polygon points="228.3 204.06 216.54 204.06 216.54 209.38 180.73 213.11 180.73 220.57 216.54 224.3 216.54 229.62 228.3 229.62 228.3 204.06" fill="#a1dbf7" fill-rule="evenodd"/><polygon points="228.3 204.06 216.54 204.06 216.54 209.38 180.73 213.11 180.73 220.57 216.54 224.3 216.54 229.62 228.3 229.62 228.3 204.06" fill="none" stroke="#393d4f" stroke-miterlimit="8" stroke-width="1.5"/><polygon points="228.3 243.82 216.54 243.82 216.54 249.14 180.73 252.87 180.73 260.33 216.54 264.06 216.54 269.38 228.3 269.38 228.3 243.82" fill="#a1dbf7" fill-rule="evenodd"/><polygon points="228.3 243.82 216.54 243.82 216.54 249.14 180.73 252.87 180.73 260.33 216.54 264.06 216.54 269.38 228.3 269.38 228.3 243.82" fill="none" stroke="#393d4f" stroke-miterlimit="8" stroke-width="1.5"/><polygon points="324.5 44.32 336.27 44.32 336.27 49.64 372.07 53.37 372.07 60.83 336.27 64.56 336.27 69.88 324.5 69.88 324.5 44.32" fill="#a1dbf7" fill-rule="evenodd"/><polygon points="324.5 44.32 336.27 44.32 336.27 49.64 372.07 53.37 372.07 60.83 336.27 64.56 336.27 69.88 324.5 69.88 324.5 44.32" fill="none" stroke="#393d4f" stroke-miterlimit="8" stroke-width="1.5"/><polygon points="324.5 84.43 336.27 84.43 336.27 89.68 372.07 93.36 372.07 100.71 336.27 104.39 336.27 109.64 324.5 109.64 324.5 84.43" fill="#a1dbf7" fill-rule="evenodd"/><polygon points="324.5 84.43 336.27 84.43 336.27 89.68 372.07 93.36 372.07 100.71 336.27 104.39 336.27 109.64 324.5 109.64 324.5 84.43" fill="none" stroke="#393d4f" stroke-miterlimit="8" stroke-width="1.5"/><polygon points="324.5 124.19 336.27 124.19 336.27 129.51 372.07 133.24 372.07 140.7 336.27 144.43 336.27 149.75 324.5 149.75 324.5 124.19" fill="#a1dbf7" fill-rule="evenodd"/><polygon points="324.5 124.19 336.27 124.19 336.27 129.51 372.07 133.24 372.07 140.7 336.27 144.43 336.27 149.75 324.5 149.75 324.5 124.19" fill="none" stroke="#393d4f" stroke-miterlimit="8" stroke-width="1.5"/><polygon points="324.5 282.87 336.27 282.87 336.27 288.19 372.07 291.92 372.07 299.38 336.27 303.11 336.27 308.43 324.5 308.43 324.5 282.87" fill="#a1dbf7" fill-rule="evenodd"/><polygon points="324.5 282.87 336.27 282.87 336.27 288.19 372.07 291.92 372.07 299.38 336.27 303.11 336.27 308.43 324.5 308.43 324.5 282.87" fill="none" stroke="#393d4f" stroke-miterlimit="8" stroke-width="1.5"/><polygon points="324.5 322.99 336.27 322.99 336.27 328.31 372.07 332.04 372.07 339.5 336.27 343.22 336.27 348.55 324.5 348.55 324.5 322.99" fill="#a1dbf7" fill-rule="evenodd"/><polygon points="324.5 322.99 336.27 322.99 336.27 328.31 372.07 332.04 372.07 339.5 336.27 343.22 336.27 348.55 324.5 348.55 324.5 322.99" fill="none" stroke="#393d4f" stroke-miterlimit="8" stroke-width="1.5"/><polygon points="324.5 362.74 336.27 362.74 336.27 368.06 372.07 371.79 372.07 379.25 336.27 382.98 336.27 388.3 324.5 388.3 324.5 362.74" fill="#a1dbf7" fill-rule="evenodd"/><polygon points="324.5 362.74 336.27 362.74 336.27 368.06 372.07 371.79 372.07 379.25 336.27 382.98 336.27 388.3 324.5 388.3 324.5 362.74" fill="none" stroke="#393d4f" stroke-miterlimit="8" stroke-width="1.5"/><polygon points="227.94 44.32 216.18 44.32 216.18 49.64 180.38 53.37 180.38 60.83 216.18 64.56 216.18 69.88 227.94 69.88 227.94 44.32" fill="#a1dbf7" fill-rule="evenodd"/><polygon points="227.94 44.32 216.18 44.32 216.18 49.64 180.38 53.37 180.38 60.83 216.18 64.56 216.18 69.88 227.94 69.88 227.94 44.32" fill="none" stroke="#393d4f" stroke-miterlimit="8" stroke-width="1.5"/><polygon points="227.94 84.43 216.18 84.43 216.18 89.68 180.38 93.36 180.38 100.71 216.18 104.39 216.18 109.64 227.94 109.64 227.94 84.43" fill="#a1dbf7" fill-rule="evenodd"/><polygon points="227.94 84.43 216.18 84.43 216.18 89.68 180.38 93.36 180.38 100.71 216.18 104.39 216.18 109.64 227.94 109.64 227.94 84.43" fill="none" stroke="#393d4f" stroke-miterlimit="8" stroke-width="1.5"/><polygon points="227.94 124.19 216.18 124.19 216.18 129.51 180.38 133.24 180.38 140.7 216.18 144.43 216.18 149.75 227.94 149.75 227.94 124.19" fill="#a1dbf7" fill-rule="evenodd"/><polygon points="227.94 124.19 216.18 124.19 216.18 129.51 180.38 133.24 180.38 140.7 216.18 144.43 216.18 149.75 227.94 149.75 227.94 124.19" fill="none" stroke="#393d4f" stroke-miterlimit="8" stroke-width="1.5"/><polygon points="227.94 282.87 216.18 282.87 216.18 288.19 180.38 291.92 180.38 299.38 216.18 303.11 216.18 308.43 227.94 308.43 227.94 282.87" fill="#a1dbf7" fill-rule="evenodd"/><polygon points="227.94 282.87 216.18 282.87 216.18 288.19 180.38 291.92 180.38 299.38 216.18 303.11 216.18 308.43 227.94 308.43 227.94 282.87" fill="none" stroke="#393d4f" stroke-miterlimit="8" stroke-width="1.5"/><polygon points="227.94 322.99 216.18 322.99 216.18 328.31 180.38 332.04 180.38 339.5 216.18 343.22 216.18 348.55 227.94 348.55 227.94 322.99" fill="#a1dbf7" fill-rule="evenodd"/><polygon points="227.94 322.99 216.18 322.99 216.18 328.31 180.38 332.04 180.38 339.5 216.18 343.22 216.18 348.55 227.94 348.55 227.94 322.99" fill="none" stroke="#393d4f" stroke-miterlimit="8" stroke-width="1.5"/><polygon points="227.94 362.74 216.18 362.74 216.18 368.06 180.38 371.79 180.38 379.25 216.18 382.98 216.18 388.3 227.94 388.3 227.94 362.74" fill="#a1dbf7" fill-rule="evenodd"/><polygon points="227.94 362.74 216.18 362.74 216.18 368.06 180.38 371.79 180.38 379.25 216.18 382.98 216.18 388.3 227.94 388.3 227.94 362.74" fill="none" stroke="#393d4f" stroke-miterlimit="8" stroke-width="1.5"/><path d="M32.49,39.27a.13.13,0,0,1,0-.1V31.05a.14.14,0,0,1,.14-.14h3a3.71,3.71,0,0,1,1.58.32,2.49,2.49,0,0,1,1,.89,2.38,2.38,0,0,1,.37,1.33v3.32a2.4,2.4,0,0,1-.37,1.33,2.49,2.49,0,0,1-1,.89,3.71,3.71,0,0,1-1.58.32h-3A.13.13,0,0,1,32.49,39.27Zm1.71-1.41h1.45a1.17,1.17,0,0,0,.9-.38,1.47,1.47,0,0,0,.35-1V33.73a1.46,1.46,0,0,0-.34-1,1.23,1.23,0,0,0-.92-.37H34.2a.05.05,0,0,0-.06.06V37.8A.05.05,0,0,0,34.2,37.86Z" transform="translate(0 -1.44)" fill="#393d4f"/><path d="M43.61,33.31a2.46,2.46,0,0,1,1,.74,1.73,1.73,0,0,1,.34,1.05v4.07a.14.14,0,0,1-.14.14h-1.4a.15.15,0,0,1-.11,0,.13.13,0,0,1,0-.1v-.4a.08.08,0,0,0,0-.05s0,0,0,0a1.92,1.92,0,0,1-1.62.66A2.38,2.38,0,0,1,40,39a1.59,1.59,0,0,1-.58-1.35,1.73,1.73,0,0,1,.65-1.43,2.93,2.93,0,0,1,1.85-.51h1.22a.05.05,0,0,0,.06-.06v-.26a.8.8,0,0,0-.24-.62,1,1,0,0,0-.72-.22,1.29,1.29,0,0,0-.62.13.59.59,0,0,0-.31.37c0,.09-.08.13-.16.12l-1.45-.19c-.1,0-.14,0-.14-.11a1.61,1.61,0,0,1,.41-.91,2.45,2.45,0,0,1,.93-.64A3.64,3.64,0,0,1,42.22,33,3.59,3.59,0,0,1,43.61,33.31Zm-.76,4.56a.85.85,0,0,0,.36-.71v-.43a.05.05,0,0,0-.06-.06h-.86a1.59,1.59,0,0,0-.85.2.67.67,0,0,0-.3.58.63.63,0,0,0,.22.51,1,1,0,0,0,.62.19A1.41,1.41,0,0,0,42.85,37.87Z" transform="translate(0 -1.44)" fill="#393d4f"/><path d="M49.59,34.46a.18.18,0,0,1-.1,0H48.34c-.05,0-.06,0-.06.06V37.1a.89.89,0,0,0,.16.59.64.64,0,0,0,.52.19h.4a.21.21,0,0,1,.1,0,.14.14,0,0,1,0,.1v1.15a.14.14,0,0,1-.14.15l-.72,0A2.67,2.67,0,0,1,47.15,39a1.44,1.44,0,0,1-.51-1.25V34.56a.05.05,0,0,0-.06-.06H45.9a.15.15,0,0,1-.1,0,.15.15,0,0,1,0-.11V33.29a.15.15,0,0,1,0-.11.15.15,0,0,1,.1,0h.68a.05.05,0,0,0,.06-.06V31.65a.18.18,0,0,1,0-.1.15.15,0,0,1,.11,0h1.34a.13.13,0,0,1,.1,0,.14.14,0,0,1,.05.1v1.43s0,.06.06.06h1.15a.18.18,0,0,1,.1,0,.15.15,0,0,1,0,.11v1.06A.15.15,0,0,1,49.59,34.46Z" transform="translate(0 -1.44)" fill="#393d4f"/><path d="M54.5,33.31a2.42,2.42,0,0,1,1,.74,1.73,1.73,0,0,1,.34,1.05v4.07a.18.18,0,0,1,0,.1.13.13,0,0,1-.1,0H54.25a.14.14,0,0,1-.14-.14v-.4a.05.05,0,0,0,0-.05s0,0,0,0a1.89,1.89,0,0,1-1.61.66A2.41,2.41,0,0,1,50.9,39a1.62,1.62,0,0,1-.57-1.35A1.7,1.7,0,0,1,51,36.17a2.9,2.9,0,0,1,1.84-.51h1.23a.05.05,0,0,0,.06-.06v-.26a.8.8,0,0,0-.24-.62,1,1,0,0,0-.72-.22,1.27,1.27,0,0,0-.62.13.64.64,0,0,0-.32.37.13.13,0,0,1-.16.12l-1.45-.19c-.09,0-.14,0-.13-.11a1.6,1.6,0,0,1,.4-.91,2.49,2.49,0,0,1,.94-.64,3.75,3.75,0,0,1,2.69,0Zm-.75,4.56a.85.85,0,0,0,.36-.71v-.43a.05.05,0,0,0-.06-.06h-.87a1.53,1.53,0,0,0-.84.2.65.65,0,0,0-.31.58.63.63,0,0,0,.23.51,1,1,0,0,0,.61.19A1.42,1.42,0,0,0,53.75,37.87Z" transform="translate(0 -1.44)" fill="#393d4f"/><path d="M64.47,35a2,2,0,0,1,1.15,2,2,2,0,0,1-.8,1.75,3.33,3.33,0,0,1-2.07.6H59.64a.12.12,0,0,1-.1,0,.14.14,0,0,1,0-.1V31.05a.14.14,0,0,1,0-.1.12.12,0,0,1,.1,0h3c1.9,0,2.84.77,2.84,2.3a1.76,1.76,0,0,1-1,1.72S64.43,35,64.47,35Zm-3.28-2.58v1.87a.05.05,0,0,0,.06.06h1.4a1.3,1.3,0,0,0,.88-.26.9.9,0,0,0,.31-.72.92.92,0,0,0-.31-.74,1.3,1.3,0,0,0-.88-.27h-1.4A.05.05,0,0,0,61.19,32.42Zm2.42,5.14a1.11,1.11,0,0,0,0-1.54,1.25,1.25,0,0,0-.87-.29H61.25a.05.05,0,0,0-.06.06v2a.05.05,0,0,0,.06.06h1.5A1.22,1.22,0,0,0,63.61,37.56Z" transform="translate(0 -1.44)" fill="#393d4f"/><path d="M70.47,33.18a.18.18,0,0,1,.1,0H72a.14.14,0,0,1,.15.15v5.88a.18.18,0,0,1,0,.1.15.15,0,0,1-.11,0h-1.4a.14.14,0,0,1-.14-.14v-.41a0,0,0,0,0,0,0s0,0-.05,0a1.72,1.72,0,0,1-1.48.64,2.09,2.09,0,0,1-1.5-.55,2,2,0,0,1-.59-1.55v-4a.15.15,0,0,1,0-.11.18.18,0,0,1,.1,0h1.39a.14.14,0,0,1,.15.15v3.58a1.12,1.12,0,0,0,.26.78.89.89,0,0,0,.71.3,1,1,0,0,0,.67-.24,1.07,1.07,0,0,0,.33-.65V33.29A.15.15,0,0,1,70.47,33.18Z" transform="translate(0 -1.44)" fill="#393d4f"/><path d="M74.42,39.17a2.23,2.23,0,0,1-.93-.64,1.43,1.43,0,0,1-.33-.93v-.12a.21.21,0,0,1,0-.1.15.15,0,0,1,.11,0h1.33a.13.13,0,0,1,.1,0,.14.14,0,0,1,0,.1v0a.55.55,0,0,0,.3.45,1.36,1.36,0,0,0,.73.18,1.15,1.15,0,0,0,.66-.16.48.48,0,0,0,.26-.4.34.34,0,0,0-.22-.32A3.08,3.08,0,0,0,75.8,37a8.07,8.07,0,0,1-.89-.28,3.59,3.59,0,0,1-1.22-.65,1.35,1.35,0,0,1-.45-1.1,1.66,1.66,0,0,1,.69-1.41,2.92,2.92,0,0,1,1.83-.52,3.45,3.45,0,0,1,1.34.24A2.16,2.16,0,0,1,78,34a1.73,1.73,0,0,1,.32,1,.12.12,0,0,1,0,.1.14.14,0,0,1-.1,0H76.88a.14.14,0,0,1-.1,0,.12.12,0,0,1,0-.1.53.53,0,0,0-.27-.44,1.27,1.27,0,0,0-.71-.18,1.36,1.36,0,0,0-.65.14.45.45,0,0,0-.26.4.39.39,0,0,0,.25.36,4.34,4.34,0,0,0,.82.25l.3.08.36.1a3.86,3.86,0,0,1,1.35.65,1.4,1.4,0,0,1,.49,1.15,1.64,1.64,0,0,1-.7,1.39,3.23,3.23,0,0,1-1.89.49A4,4,0,0,1,74.42,39.17Z" transform="translate(0 -1.44)" fill="#393d4f"/><path d="M50.39,61.55a2.66,2.66,0,0,1-.77-2V56.37a2.62,2.62,0,0,1,.77-2,3.36,3.36,0,0,1,4.18,0,2.59,2.59,0,0,1,.78,2v3.17a2.63,2.63,0,0,1-.78,2,3.32,3.32,0,0,1-4.18,0Zm3-1a1.22,1.22,0,0,0,.32-.88v-3.3a1.22,1.22,0,0,0-.32-.88,1.27,1.27,0,0,0-1.71,0,1.21,1.21,0,0,0-.31.88v3.3a1.21,1.21,0,0,0,.31.88,1.27,1.27,0,0,0,1.71,0Z" transform="translate(0 -1.44)" fill="#393d4f"/><path d="M52.35,93.51H53.8a.18.18,0,0,1,.1,0,.15.15,0,0,1,0,.11v8.11a.14.14,0,0,1-.14.14H52.39a.14.14,0,0,1-.14-.14V95.19l0,0s0,0,0,0L51,95.46h-.05c-.07,0-.11,0-.11-.13l0-1a.15.15,0,0,1,.11-.16l1.26-.59A.3.3,0,0,1,52.35,93.51Z" transform="translate(0 -1.44)" fill="#393d4f"/><path d="M52.38,133.63h1.45a.15.15,0,0,1,.11,0,.18.18,0,0,1,0,.1v8.11a.15.15,0,0,1,0,.1.16.16,0,0,1-.11.05h-1.4a.14.14,0,0,1-.1-.05.12.12,0,0,1,0-.1v-6.57s0,0,0-.05,0,0,0,0l-1.18.32H51c-.07,0-.11,0-.11-.13l0-1a.18.18,0,0,1,.11-.17l1.26-.59A.42.42,0,0,1,52.38,133.63Z" transform="translate(0 -1.44)" fill="#393d4f"/><path d="M52.38,172.67h1.45a.16.16,0,0,1,.11.05.18.18,0,0,1,0,.1v8.11a.18.18,0,0,1,0,.1.16.16,0,0,1-.11.05h-1.4a.18.18,0,0,1-.15-.15v-6.57s0,0,0-.05a.06.06,0,0,0,0,0l-1.18.33H51c-.07,0-.11,0-.11-.13l0-1a.18.18,0,0,1,.11-.17l1.26-.59A.4.4,0,0,1,52.38,172.67Z" transform="translate(0 -1.44)" fill="#393d4f"/><path d="M50.43,220.58a2.62,2.62,0,0,1-.77-2v-3.16a2.56,2.56,0,0,1,.77-2,2.87,2.87,0,0,1,2.08-.74,2.94,2.94,0,0,1,2.1.74,2.59,2.59,0,0,1,.77,2v3.16a2.66,2.66,0,0,1-.77,2,2.9,2.9,0,0,1-2.1.74A2.83,2.83,0,0,1,50.43,220.58Zm2.94-1a1.22,1.22,0,0,0,.32-.88v-3.3a1.22,1.22,0,0,0-.32-.88,1.14,1.14,0,0,0-.86-.33,1.11,1.11,0,0,0-.84.33,1.22,1.22,0,0,0-.32.88v3.3a1.22,1.22,0,0,0,.32.88,1.11,1.11,0,0,0,.84.33A1.14,1.14,0,0,0,53.37,219.54Z" transform="translate(0 -1.44)" fill="#393d4f"/><path d="M52.38,253.26h1.45a.15.15,0,0,1,.11,0,.18.18,0,0,1,0,.1v8.11a.14.14,0,0,1-.15.15h-1.4a.18.18,0,0,1-.1,0,.16.16,0,0,1,0-.11v-6.57a.06.06,0,0,0,0-.05s0,0,0,0L51,255.2H51c-.07,0-.11,0-.11-.13l0-1a.18.18,0,0,1,.11-.17l1.26-.59A.42.42,0,0,1,52.38,253.26Z" transform="translate(0 -1.44)" fill="#393d4f"/><path d="M50.43,300.1a2.62,2.62,0,0,1-.77-2v-3.17a2.58,2.58,0,0,1,.77-2,2.91,2.91,0,0,1,2.08-.73,3,3,0,0,1,2.1.73,2.62,2.62,0,0,1,.77,2v3.17a2.66,2.66,0,0,1-.77,2,2.94,2.94,0,0,1-2.1.74A2.87,2.87,0,0,1,50.43,300.1Zm2.94-1a1.24,1.24,0,0,0,.32-.89v-3.29a1.24,1.24,0,0,0-.32-.89,1.14,1.14,0,0,0-.86-.33,1.11,1.11,0,0,0-.84.33,1.24,1.24,0,0,0-.32.89v3.29a1.24,1.24,0,0,0,.32.89,1.11,1.11,0,0,0,.84.33A1.14,1.14,0,0,0,53.37,299.06Z" transform="translate(0 -1.44)" fill="#393d4f"/><path d="M52.38,329.23h1.45a.15.15,0,0,1,.11,0,.18.18,0,0,1,0,.1v8.11a.15.15,0,0,1,0,.1.16.16,0,0,1-.11.05h-1.4a.14.14,0,0,1-.1-.05.12.12,0,0,1,0-.1v-6.57s0,0,0-.05,0,0,0,0l-1.18.32H51c-.07,0-.11,0-.11-.13l0-1a.18.18,0,0,1,.11-.17l1.26-.59A.42.42,0,0,1,52.38,329.23Z" transform="translate(0 -1.44)" fill="#393d4f"/><path d="M240.1,61.55a2.66,2.66,0,0,1-.77-2V56.37a2.62,2.62,0,0,1,.77-2,3.36,3.36,0,0,1,4.18,0,2.59,2.59,0,0,1,.78,2v3.17a2.63,2.63,0,0,1-.78,2,3.32,3.32,0,0,1-4.18,0Zm3-1a1.22,1.22,0,0,0,.32-.88v-3.3a1.22,1.22,0,0,0-.32-.88,1.27,1.27,0,0,0-1.71,0,1.21,1.21,0,0,0-.31.88v3.3a1.21,1.21,0,0,0,.31.88,1.27,1.27,0,0,0,1.71,0Z" transform="translate(0 -1.44)" fill="#393d4f"/><path d="M242.06,93.51h1.45a.18.18,0,0,1,.1,0,.15.15,0,0,1,0,.11v8.11a.14.14,0,0,1-.14.14h-1.4a.15.15,0,0,1-.11,0,.18.18,0,0,1,0-.1V95.19l0,0s0,0-.05,0l-1.19.33h0c-.07,0-.1,0-.1-.13l0-1a.16.16,0,0,1,.11-.16l1.26-.59A.3.3,0,0,1,242.06,93.51Z" transform="translate(0 -1.44)" fill="#393d4f"/><path d="M242.09,133.63h1.45a.15.15,0,0,1,.11,0,.18.18,0,0,1,0,.1v8.11a.15.15,0,0,1,0,.1.16.16,0,0,1-.11.05h-1.4a.14.14,0,0,1-.1-.05.12.12,0,0,1,0-.1v-6.57a.05.05,0,0,0,0-.05s0,0-.05,0l-1.18.32h-.05c-.07,0-.11,0-.11-.13l0-1a.18.18,0,0,1,.11-.17l1.26-.59A.42.42,0,0,1,242.09,133.63Z" transform="translate(0 -1.44)" fill="#393d4f"/><path d="M242.09,172.67h1.45a.16.16,0,0,1,.11.05.18.18,0,0,1,0,.1v8.11a.18.18,0,0,1,0,.1.16.16,0,0,1-.11.05h-1.4a.14.14,0,0,1-.1-.05.13.13,0,0,1,0-.1v-6.57a.05.05,0,0,0,0-.05s0,0-.05,0l-1.18.33h-.05c-.07,0-.11,0-.11-.13l0-1a.18.18,0,0,1,.11-.17l1.26-.59A.4.4,0,0,1,242.09,172.67Z" transform="translate(0 -1.44)" fill="#393d4f"/><path d="M240.14,220.58a2.62,2.62,0,0,1-.77-2v-3.16a2.56,2.56,0,0,1,.77-2,3.32,3.32,0,0,1,4.18,0,2.59,2.59,0,0,1,.77,2v3.16a2.66,2.66,0,0,1-.77,2,3.32,3.32,0,0,1-4.18,0Zm2.94-1a1.22,1.22,0,0,0,.32-.88v-3.3a1.22,1.22,0,0,0-.32-.88,1.13,1.13,0,0,0-.85-.33,1.11,1.11,0,0,0-.85.33,1.22,1.22,0,0,0-.32.88v3.3a1.22,1.22,0,0,0,.32.88,1.11,1.11,0,0,0,.85.33A1.13,1.13,0,0,0,243.08,219.54Z" transform="translate(0 -1.44)" fill="#393d4f"/><path d="M242.09,253.26h1.45a.15.15,0,0,1,.11,0,.18.18,0,0,1,0,.1v8.11a.14.14,0,0,1-.15.15h-1.4a.18.18,0,0,1-.1,0,.15.15,0,0,1,0-.11v-6.57s0,0,0-.05,0,0-.05,0l-1.18.32h-.05c-.07,0-.11,0-.11-.13l0-1a.18.18,0,0,1,.11-.17l1.26-.59A.42.42,0,0,1,242.09,253.26Z" transform="translate(0 -1.44)" fill="#393d4f"/><path d="M240.14,300.1a2.62,2.62,0,0,1-.77-2v-3.17a2.58,2.58,0,0,1,.77-2,3.36,3.36,0,0,1,4.18,0,2.62,2.62,0,0,1,.77,2v3.17a2.66,2.66,0,0,1-.77,2,3.32,3.32,0,0,1-4.18,0Zm2.94-1a1.24,1.24,0,0,0,.32-.89v-3.29a1.24,1.24,0,0,0-.32-.89,1.13,1.13,0,0,0-.85-.33,1.11,1.11,0,0,0-.85.33,1.24,1.24,0,0,0-.32.89v3.29a1.24,1.24,0,0,0,.32.89,1.11,1.11,0,0,0,.85.33A1.13,1.13,0,0,0,243.08,299.06Z" transform="translate(0 -1.44)" fill="#393d4f"/><path d="M242.09,329.23h1.45a.15.15,0,0,1,.11,0,.18.18,0,0,1,0,.1v8.11a.15.15,0,0,1,0,.1.16.16,0,0,1-.11.05h-1.4a.14.14,0,0,1-.1-.05.12.12,0,0,1,0-.1v-6.57a.05.05,0,0,0,0-.05s0,0-.05,0l-1.18.32h-.05c-.07,0-.11,0-.11-.13l0-1a.18.18,0,0,1,.11-.17l1.26-.59A.42.42,0,0,1,242.09,329.23Z" transform="translate(0 -1.44)" fill="#393d4f"/><polyline points="62.94 97.21 125.25 97.1 125.25 85.85 136.92 85.85 136.92 97.16 175.15 97.16" fill="none" stroke="#393d4f" stroke-miterlimit="8" stroke-width="1.5"/><polyline points="62.94 136.62 125.25 136.51 125.25 125.25 136.92 125.25 136.92 136.56 172.27 136.56" fill="none" stroke="#393d4f" stroke-miterlimit="8" stroke-width="1.5"/><polyline points="64.01 177.44 126.32 177.33 126.32 166.08 137.99 166.08 137.99 177.38 172.27 177.38" fill="none" stroke="#393d4f" stroke-miterlimit="8" stroke-width="1.5"/><polyline points="64.01 256.6 126.32 256.5 126.32 245.24 137.99 245.24 137.99 256.55 172.27 256.55" fill="none" stroke="#393d4f" stroke-miterlimit="8" stroke-width="1.5"/><polyline points="64.01 335.76 126.32 335.66 126.32 324.4 137.99 324.4 137.99 335.71 172.27 335.71" fill="none" stroke="#393d4f" stroke-miterlimit="8" stroke-width="1.5"/></svg>